<svg width="95" height="56" viewBox="0 0 95 56" fill="none" xmlns="http://www.w3.org/2000/svg">
<path d="M5.56645 15.3544V4.03332H0.894531V1.50488H13.0905V4.03332H8.43609V15.3544H5.56645Z" fill="white"/>
<path d="M14.498 15.3546V1.50508L17.219 0.910156V5.89703C18.0124 5.19192 19.0451 4.81639 20.1061 4.84716C20.8514 4.83158 21.5877 5.01263 22.2408 5.3721C22.8418 5.71339 23.338 6.2126 23.6756 6.81567C24.0263 7.47778 24.201 8.21887 24.1831 8.9679V15.3546H21.4972V9.3616C21.5136 9.07093 21.4709 8.77995 21.3717 8.50626C21.2724 8.23257 21.1187 7.98186 20.9197 7.7693C20.7134 7.56867 20.4677 7.41299 20.1981 7.3121C19.9286 7.21121 19.6411 7.16729 19.3537 7.18312C18.9295 7.17319 18.5092 7.26625 18.1288 7.45434C17.7779 7.63049 17.477 7.89227 17.254 8.21549V15.3546H14.498Z" fill="white"/>
<path d="M31.2868 15.5557C30.3071 15.5645 29.342 15.3172 28.4872 14.8383C27.6711 14.3815 26.9869 13.7215 26.5012 12.9223C26.0075 12.1047 25.7529 11.1651 25.7663 10.2101C25.7517 9.27479 25.9873 8.35256 26.4488 7.53886C26.9102 6.72516 27.5808 6.04955 28.3909 5.58195C29.2031 5.1 30.1326 4.85173 31.0768 4.86453C32.0047 4.84788 32.9172 5.10337 33.7015 5.59944C34.4635 6.08859 35.0823 6.7708 35.495 7.5767C35.9501 8.45115 36.1788 9.42573 36.16 10.4113V11.12H28.5397C28.6587 11.5259 28.858 11.9037 29.1258 12.2311C29.3988 12.5604 29.7428 12.8236 30.132 13.001C30.5381 13.1874 30.98 13.283 31.4268 13.281C31.8621 13.2832 32.2944 13.2092 32.7041 13.0623C33.0753 12.929 33.4148 12.7205 33.7015 12.4498L35.495 14.0334C34.9135 14.5176 34.2537 14.8993 33.544 15.162C32.8198 15.4218 32.0563 15.555 31.2868 15.5557ZM28.4959 9.17775H33.509C33.4197 8.78656 33.2466 8.4194 33.0016 8.10163C32.7631 7.79964 32.4653 7.54956 32.1267 7.36672C31.7834 7.1897 31.4019 7.09958 31.0156 7.10425C30.6191 7.09904 30.2268 7.18589 29.8695 7.35797C29.5239 7.52636 29.2238 7.77542 28.9946 8.08413C28.758 8.41226 28.5885 8.78392 28.4959 9.17775Z" fill="white"/>
<path d="M1.78516 33.1677V19.2832H5.46845L9.24797 26.7985L13.0625 19.2832H16.7458V33.1677H14.0336V22.984L9.24797 32.1791L4.43607 22.9402V33.1677H1.78516Z" fill="white"/>
<path d="M22.1457 33.3508C21.4726 33.3633 20.8055 33.2227 20.1947 32.9396C19.6594 32.6995 19.2019 32.3147 18.8736 31.8285C18.5555 31.3397 18.391 30.7668 18.4012 30.1837C18.381 29.736 18.4729 29.2903 18.6684 28.887C18.8639 28.4837 19.157 28.1355 19.521 27.874C20.4324 27.2839 21.5079 26.999 22.5919 27.0604C23.4549 27.0518 24.313 27.1908 25.1291 27.4716V26.7192C25.1405 26.4715 25.0952 26.2246 24.9966 25.9972C24.8981 25.7697 24.7489 25.5678 24.5604 25.4068C24.0886 25.075 23.5175 24.9145 22.9418 24.9519C22.465 24.9576 21.9911 25.0282 21.5333 25.1618C20.935 25.3346 20.3502 25.551 19.7835 25.8093L18.7949 23.8058C19.5503 23.4599 20.335 23.1818 21.1396 22.9746C21.8753 22.7935 22.6303 22.7024 23.388 22.7034C24.5498 22.6179 25.703 22.9568 26.6339 23.657C27.0262 24.0093 27.3338 24.4456 27.5337 24.9334C27.7337 25.4213 27.8209 25.948 27.7887 26.4742V33.1583H25.1641V32.4059C24.7512 32.7114 24.2898 32.9451 23.7992 33.0971C23.2642 33.2653 22.7066 33.3509 22.1457 33.3508ZM20.9646 30.1225C20.9628 30.313 21.0111 30.5006 21.1048 30.6664C21.1985 30.8323 21.3342 30.9706 21.4983 31.0674C21.9095 31.3136 22.3844 31.4323 22.8631 31.4086C23.2889 31.4148 23.7133 31.3588 24.1229 31.2423C24.4945 31.136 24.8442 30.9642 25.1553 30.7349V29.2301C24.822 29.0905 24.4764 28.9821 24.1229 28.9064C23.7443 28.8417 23.3609 28.8095 22.9768 28.8101C22.4687 28.78 21.9631 28.9018 21.5245 29.1601C21.3517 29.2534 21.2079 29.3927 21.1091 29.5625C21.0103 29.7323 20.9603 29.9261 20.9646 30.1225Z" fill="white"/>
<path d="M29.8438 33.1674V22.8612H32.5559V24.0073C32.8676 23.5716 33.2805 23.2182 33.759 22.9774C34.2376 22.7366 34.7674 22.6157 35.3031 22.625C35.6928 22.6114 36.0801 22.6925 36.4317 22.8612V25.2409C36.2267 25.141 36.0088 25.0704 35.7843 25.0309C35.5419 24.9851 35.2959 24.9617 35.0493 24.961C34.5411 24.9565 34.0414 25.0928 33.6058 25.3547C33.1589 25.6274 32.7956 26.0178 32.5559 26.4833V33.1674H29.8438Z" fill="white"/>
<path d="M37.918 33.1676V19.2831L40.6301 18.8281V27.1571L45.1183 22.8614H48.1804L43.2811 27.5945L48.4429 33.1676H44.9433L40.5689 28.4607V33.1676H37.918Z" fill="white"/>
<path d="M53.3182 33.3687C52.3363 33.3816 51.368 33.1373 50.5098 32.66C49.695 32.1976 49.0115 31.5352 48.5238 30.7352C48.0328 29.9169 47.7812 28.9773 47.7976 28.0231C47.7859 27.322 47.9148 26.6256 48.1766 25.9751C48.4385 25.3246 48.828 24.7332 49.3222 24.2357C49.8164 23.7382 50.4053 23.3448 51.054 23.0787C51.7028 22.8126 52.3983 22.6791 53.0995 22.6862C54.026 22.6705 54.9374 22.9227 55.7241 23.4124C56.494 23.9049 57.1191 24.5934 57.5352 25.4072C57.9902 26.2785 58.2189 27.2502 58.2001 28.233V28.9067H50.5623C50.6813 29.3126 50.8806 29.6904 51.1485 30.0178C51.419 30.3496 51.7636 30.6133 52.1546 30.7877C52.561 30.9731 53.0027 31.0686 53.4494 31.0677C53.8851 31.0749 54.3183 31.0008 54.7268 30.849C55.0995 30.7191 55.4397 30.5102 55.7241 30.2365L57.4739 31.8551C56.8937 32.3412 56.2336 32.723 55.5229 32.9837C54.815 33.2357 54.0696 33.3658 53.3182 33.3687ZM50.5273 26.9995H55.5317C55.4452 26.6171 55.2779 26.2576 55.041 25.9452C54.804 25.6328 54.503 25.3748 54.1581 25.1884C53.8123 25.0087 53.428 24.9156 53.0382 24.9172C52.6407 24.9117 52.2477 25.0018 51.8921 25.1797C51.5469 25.3447 51.2467 25.5909 51.0172 25.8971C50.785 26.2299 50.6187 26.6041 50.5273 26.9995Z" fill="white"/>
<path d="M64.4548 33.3336C63.5126 33.4044 62.5776 33.1239 61.8301 32.5462C61.5256 32.2531 61.2893 31.8966 61.1381 31.502C60.9869 31.1073 60.9245 30.6842 60.9552 30.2627V25.1183H58.8555V22.8611H60.9727V20.2364L63.6849 19.624V22.8699H66.6332V25.1271H63.6849V29.7203C63.6668 29.9019 63.6854 30.0853 63.7395 30.2596C63.7936 30.4339 63.8821 30.5956 63.9998 30.7351C64.3143 30.975 64.709 31.0846 65.1022 31.0413C65.344 31.056 65.5865 31.056 65.8283 31.0413C66.0758 30.9995 66.3188 30.9351 66.5545 30.8489V33.0886C66.2141 33.1882 65.8658 33.2585 65.5134 33.2986C65.1615 33.331 64.808 33.3427 64.4548 33.3336Z" fill="white"/>
<path d="M69.3015 21.6364C69.099 21.6399 68.898 21.6012 68.7112 21.5229C68.5245 21.4446 68.356 21.3283 68.2166 21.1814C68.0029 20.9661 67.8575 20.6925 67.7987 20.3948C67.7399 20.0971 67.7704 19.7888 67.8863 19.5084C68.0022 19.228 68.1983 18.988 68.4501 18.8187C68.7019 18.6494 68.9981 18.5583 69.3015 18.5568C69.5048 18.5509 69.7071 18.5876 69.8954 18.6644C70.0837 18.7412 70.2539 18.8566 70.3951 19.0029C70.6805 19.2955 70.8402 19.6879 70.8402 20.0966C70.8402 20.5052 70.6805 20.8977 70.3951 21.1902C70.2546 21.3375 70.0845 21.4533 69.896 21.5302C69.7075 21.6071 69.5049 21.6433 69.3015 21.6364ZM67.9542 33.1674V22.8612H70.6663V33.1674H67.9542Z" fill="white"/>
<path d="M72.7832 33.167V22.8608H75.4954V23.7356C76.2897 23.0329 77.3225 22.6605 78.3825 22.6945C79.1243 22.6762 79.8577 22.8542 80.5085 23.2107C81.1138 23.5503 81.611 24.0537 81.9433 24.663C82.2978 25.3209 82.4756 26.0594 82.4595 26.8065V33.1932H79.7473V27.1565C79.7628 26.8659 79.7196 26.5752 79.6204 26.3016C79.5212 26.0281 79.368 25.7773 79.1699 25.5642C78.9643 25.3651 78.72 25.2103 78.4521 25.1095C78.1842 25.0087 77.8985 24.9639 77.6126 24.978C77.1887 24.9714 76.7692 25.0643 76.3878 25.2492C76.0368 25.4254 75.7359 25.6871 75.5129 26.0104V33.1495L72.7832 33.167Z" fill="white"/>
<path d="M89.7391 37.4015C88.9655 37.4049 88.1938 37.3228 87.4382 37.1566C86.7463 37.0085 86.0761 36.7733 85.4434 36.4567L86.3883 34.3569C86.9187 34.6203 87.4761 34.8257 88.0506 34.9693C88.5831 35.1008 89.1294 35.1684 89.6779 35.1706C90.3288 35.2162 90.9754 35.0337 91.5064 34.6544C91.7219 34.4632 91.8902 34.2247 91.998 33.9575C92.1057 33.6903 92.1501 33.4018 92.1276 33.1146V32.3009C91.313 32.912 90.3199 33.2379 89.3017 33.2283C88.3796 33.2365 87.4726 32.9947 86.677 32.5284C85.8815 32.0589 85.2239 31.3878 84.7708 30.5829C84.3176 29.7779 84.0849 28.8676 84.0961 27.944C84.0913 27.0223 84.3329 26.1162 84.796 25.3193C85.2614 24.513 85.9329 23.8451 86.7416 23.3838C87.5502 22.9226 88.467 22.6848 89.3979 22.6946C89.8933 22.6925 90.386 22.7662 90.859 22.9134C91.3279 23.0564 91.7753 23.2624 92.1888 23.5258V22.8521H94.8135V33.1496C94.8469 33.7396 94.7462 34.3295 94.5189 34.875C94.2916 35.4206 93.9437 35.9075 93.5012 36.2992C92.4144 37.0948 91.0834 37.4848 89.7391 37.4015ZM89.7391 30.9361C90.2054 30.9407 90.6684 30.8576 91.104 30.6911C91.5014 30.5343 91.8597 30.2924 92.1538 29.9825V25.9492C91.8519 25.6511 91.4914 25.4187 91.0952 25.2668C90.6721 25.0995 90.2204 25.0163 89.7654 25.0218C89.2298 25.0108 88.701 25.1437 88.2343 25.4068C87.7855 25.6596 87.413 26.0286 87.1559 26.475C86.8988 26.9215 86.7666 27.4289 86.7733 27.944C86.7668 28.4791 86.8994 29.0067 87.1582 29.475C87.4232 29.9327 87.807 30.3102 88.2691 30.5674C88.7312 30.8246 89.2543 30.952 89.7829 30.9361H89.7391Z" fill="white"/>
<path d="M0.5 50.9892L6.19554 37.1396H9.50262L15.1369 50.9892H11.9961L10.5962 47.3496H4.87445L3.44838 50.9892H0.5ZM5.74934 45.0487H9.70385L7.72659 39.948L5.74934 45.0487Z" fill="white"/>
<path d="M20.7018 55.223C19.9313 55.2222 19.1629 55.1401 18.4096 54.9781C17.7174 54.8313 17.047 54.596 16.4149 54.2782L17.3597 52.1872C17.8912 52.4482 18.4483 52.6534 19.022 52.7996C19.5549 52.9282 20.1012 52.9928 20.6493 52.9921C21.2991 53.0387 21.9451 52.8595 22.4779 52.4846C22.691 52.2897 22.8574 52.0492 22.965 51.7812C23.0725 51.5131 23.1183 51.2243 23.099 50.9361V50.1224C22.2853 50.736 21.2923 51.0649 20.2731 51.0586C19.3496 51.0695 18.441 50.8242 17.6485 50.3499C16.8461 49.8867 16.1806 49.2193 15.7196 48.4157C15.2587 47.612 15.0186 46.7007 15.0238 45.7742C15.0129 44.8518 15.255 43.9441 15.7237 43.1495C16.1806 42.3616 16.8389 41.7094 17.631 41.2598C18.449 40.7851 19.38 40.5403 20.3256 40.5511C20.8206 40.5532 21.3128 40.6269 21.7867 40.7698C22.255 40.9145 22.7022 41.1204 23.1165 41.3823V40.7174H25.7849V50.9711C25.8196 51.56 25.7195 52.149 25.492 52.6933C25.2646 53.2376 24.916 53.7228 24.4726 54.1119C23.386 54.9153 22.0504 55.3089 20.7018 55.223ZM20.7018 48.7488C21.1683 48.7561 21.6318 48.6729 22.0667 48.5039C22.4619 48.3469 22.8196 48.1084 23.1165 47.804V43.7795C22.8146 43.4813 22.4541 43.2489 22.0579 43.0971C21.6306 42.9338 21.1768 42.8507 20.7193 42.8521C20.1871 42.8463 19.6625 42.979 19.197 43.237C18.758 43.4909 18.3907 43.8522 18.1297 44.2869C17.8639 44.7402 17.7278 45.2576 17.7359 45.783C17.7274 46.305 17.854 46.8204 18.1034 47.279C18.3565 47.7245 18.7253 48.0933 19.1708 48.3464C19.6304 48.6129 20.153 48.7519 20.6843 48.7488H20.7018Z" fill="white"/>
<path d="M32.9762 51.181C31.997 51.1949 31.0313 50.9505 30.1766 50.4724C29.3561 50.0184 28.6684 49.3579 28.1818 48.5563C27.6935 47.7486 27.4294 46.8253 27.4165 45.8815C27.4036 44.9377 27.6426 44.0075 28.1086 43.1867C28.5747 42.366 29.2512 41.6842 30.0683 41.2118C30.8854 40.7393 31.8136 40.4931 32.7575 40.4986C33.6851 40.4845 34.5968 40.7398 35.3822 41.2335C36.146 41.7231 36.7676 42.405 37.1845 43.2108C37.6385 44.0825 37.8671 45.054 37.8494 46.0367V46.7541H30.2466C30.3656 47.16 30.5649 47.5378 30.8327 47.8652C31.1057 48.1944 31.4497 48.4576 31.8389 48.6351C32.2459 48.8177 32.6876 48.9102 33.1337 48.9063C33.5685 48.9114 34.0008 48.8403 34.4111 48.6963C34.7859 48.5614 35.1286 48.3498 35.4172 48.0752L37.167 49.7025C36.5867 50.1885 35.9266 50.5704 35.216 50.8311C34.4949 51.0751 33.7373 51.1934 32.9762 51.181ZM30.1853 44.8118H35.1897C35.0961 44.4355 34.9231 44.0835 34.6823 43.7794C34.4423 43.4788 34.1449 43.229 33.8074 43.0445C33.4609 42.8675 33.0766 42.7774 32.6875 42.7821C32.2912 42.779 31.8994 42.8658 31.5414 43.0358C31.1972 43.2064 30.8976 43.4551 30.6665 43.7619C30.441 44.0782 30.2777 44.4345 30.1853 44.8118Z" fill="white"/>
<path d="M39.5195 50.9888V40.6826H42.2317V41.5575C43.0251 40.8524 44.0578 40.4768 45.1188 40.5076C45.8614 40.4919 46.5949 40.673 47.2448 41.0325C47.8495 41.369 48.3468 41.8694 48.6796 42.4761C49.0372 43.1328 49.2152 43.8721 49.1958 44.6196V51.015H46.4837V44.9958C46.4993 44.7059 46.457 44.4159 46.3594 44.1425C46.2618 43.8691 46.1107 43.6179 45.915 43.4035C45.7083 43.2033 45.4626 43.0479 45.1931 42.9471C44.9236 42.8462 44.6363 42.802 44.3489 42.8173C43.9259 42.809 43.5066 42.8988 43.1241 43.0798C42.7769 43.2615 42.4772 43.5222 42.2492 43.8409V50.9888H39.5195Z" fill="white"/>
<path d="M56.1867 51.1814C55.2221 51.1981 54.2705 50.9565 53.4308 50.4815C52.6258 50.0251 51.9558 49.3642 51.4886 48.5655C51.0235 47.7324 50.7793 46.7942 50.7793 45.8402C50.7793 44.8861 51.0235 43.9479 51.4886 43.1149C51.9689 42.3004 52.6571 41.6282 53.4826 41.167C54.3081 40.7058 55.2413 40.4723 56.1867 40.4902C56.9921 40.4888 57.7895 40.6495 58.5314 40.9627C59.265 41.2716 59.9219 41.7375 60.4562 42.3275L58.7939 44.0773C58.458 43.6891 58.0512 43.3684 57.5953 43.1324C57.1728 42.9274 56.7088 42.8226 56.2392 42.8262C55.7415 42.8183 55.2522 42.9551 54.8306 43.2199C54.4202 43.487 54.0881 43.8584 53.8683 44.296C53.6178 44.7732 53.4914 45.3057 53.5008 45.8445C53.4946 46.3719 53.621 46.8923 53.8683 47.3581C54.0977 47.8035 54.4499 48.1738 54.8831 48.4255C55.3211 48.681 55.8197 48.8139 56.3267 48.8104C56.7746 48.8135 57.2174 48.7148 57.6215 48.5217C58.0585 48.3018 58.4525 48.0055 58.7851 47.6468L60.4037 49.3441C59.866 49.917 59.2169 50.3739 58.4963 50.6868C57.7756 50.9997 56.9986 51.1621 56.213 51.1639L56.1867 51.1814Z" fill="white"/>
<path d="M62.7932 55.2408C62.5599 55.2408 62.3324 55.2408 62.1108 55.2408L61.5683 55.1533V52.8086C61.88 52.8654 62.1964 52.8918 62.5132 52.8873C62.9626 52.9086 63.4066 52.7825 63.7777 52.5282C64.1488 52.274 64.4267 51.9055 64.5692 51.4788L64.7354 51.0851L60.7109 40.6826H63.7031L66.2752 47.6817L69.1799 40.6826H72.1108L67.3601 51.82C67.0735 52.539 66.6814 53.2113 66.1965 53.8147C65.8091 54.2925 65.3104 54.668 64.7442 54.9083C64.1208 55.1419 63.4587 55.2547 62.7932 55.2408Z" fill="white"/>
</svg>
