<svg width="38" height="61" viewBox="0 0 38 61" fill="none" xmlns="http://www.w3.org/2000/svg">
<path d="M6.71299 54.3222C4.38964 52.0082 3.0223 48.9046 2.88289 45.6284C2.74348 42.3523 3.84221 39.1437 5.96059 36.6407C6.21722 36.3374 6.48844 36.0458 6.77424 35.7658C7.06295 35.4946 7.34292 35.2321 7.64913 34.9696C9.9886 33.0263 12.9368 31.9672 15.9781 31.9775C18.9232 31.9753 21.7834 32.9638 24.0987 34.7839C26.4139 36.6041 28.0497 39.1502 28.7427 42.0125C28.8471 42.4218 28.9288 42.8366 28.9877 43.2549C29.0402 43.6836 29.0752 44.1297 29.0927 44.5584C29.0927 44.7247 29.0927 44.9084 29.0927 45.0834C29.0927 48.5639 27.7101 51.9019 25.249 54.363C22.7878 56.8241 19.4499 58.2067 15.9693 58.2067C14.2462 58.2036 12.5409 57.8587 10.952 57.1919C9.3631 56.5251 7.9223 55.5497 6.71299 54.3222ZM4.63075 31.925L3.4584 30.7352L4.66575 29.5278L22.0236 12.2312L29.1802 19.3966L31.2887 21.5051C31.3762 21.6101 31.4811 21.7151 31.5774 21.8113C33.8998 24.3001 35.1643 27.5939 35.1039 30.9975C35.0435 34.401 33.6629 37.6479 31.2537 40.0528L30.8075 40.4815C30.0579 38.087 28.7471 35.9063 26.9842 34.121C26.1639 33.3014 25.2542 32.5765 24.272 31.96C23.5469 31.4876 22.7796 31.0834 21.9798 30.7527C20.0909 29.9696 18.0666 29.5653 16.0218 29.5628C13.9953 29.5607 11.9884 29.9592 10.1163 30.7352C8.61737 31.3556 7.22418 32.2057 5.98683 33.2549L4.63075 31.925ZM2.99471 3.29861L29.2414 3.3511V16.0195L22.916 9.68531C22.8029 9.56875 22.6666 9.47734 22.5158 9.41704C22.3651 9.35674 22.2033 9.32891 22.0411 9.33535C21.879 9.33052 21.7177 9.3591 21.5672 9.4193C21.4167 9.47951 21.2802 9.57006 21.1662 9.68531L2.95096 27.8655L2.99471 3.29861ZM1.78736 0.910156C1.47099 0.912466 1.16836 1.03977 0.945472 1.2643C0.72258 1.48883 0.597501 1.79238 0.597509 2.10876V30.7177C0.599729 30.9607 0.672692 31.1978 0.807483 31.4001L0.877474 31.4876L0.956214 31.5838L1.03495 31.6538L4.2983 34.9347C2.35592 37.1788 1.09898 39.9337 0.676965 42.8716C0.254951 45.8094 0.685621 48.8067 1.91776 51.5069C3.14989 54.2071 5.13164 56.4966 7.62731 58.1031C10.123 59.7096 13.0276 60.5654 15.9956 60.5689C20.1043 60.5666 24.0445 58.9352 26.9523 56.0324C29.86 53.1295 31.4981 49.1921 31.5074 45.0834C31.5061 44.4254 31.4652 43.768 31.3849 43.1149C31.9332 42.6911 32.4562 42.2353 32.951 41.75C34.3929 40.3109 35.5369 38.6015 36.3175 36.7197C37.098 34.8378 37.4998 32.8206 37.4998 30.7833C37.4998 28.746 37.098 26.7288 36.3175 24.8469C35.5369 22.9651 34.3929 21.2557 32.951 19.8165L31.5511 18.4167V2.16125C31.5538 1.85218 31.437 1.55404 31.225 1.32907C31.0131 1.10409 30.7225 0.969682 30.4138 0.953901L1.80486 0.910156H1.78736Z" fill="white"/>
</svg>
