<svg width="224" height="92" viewBox="0 0 224 92" fill="none" xmlns="http://www.w3.org/2000/svg">
<g style="mix-blend-mode:difference">
<g clip-path="url(#clip0_2121_514)">
<path d="M197.848 65.5746C197.626 65.7867 197.539 66.0244 197.414 66.2383C194.602 71.0618 190.739 74.8035 185.828 77.4633C181.231 79.9505 176.296 81.4115 171.171 82.2945C167.294 82.9618 163.382 83.1094 159.463 82.9751C156.139 82.848 152.825 82.5177 149.542 81.986C142.824 80.9254 136.161 79.5554 129.485 78.2632C125.178 77.4297 120.858 76.6811 116.505 76.1287C113.593 75.7592 110.671 75.525 107.739 75.6868C102.318 75.9784 96.9299 76.5379 91.7638 78.3383C87.5062 79.825 83.5015 81.8481 79.6956 84.2602C76.3684 86.3621 73.3021 88.851 70.5609 91.6749C70.3152 91.9277 70.119 91.9763 69.8017 91.8057C64.9899 89.2484 60.175 86.6993 55.3568 84.1586C52.935 82.8787 50.5118 81.6024 48.087 80.3297C47.4286 79.9832 47.4277 79.9832 48.019 79.5466C52.6398 76.1322 57.51 73.0687 62.5885 70.3819C66.8125 68.1466 71.1407 66.1535 75.6838 64.6483C80.2867 63.1304 85.0288 62.0726 89.8405 61.4902C92.2069 61.1921 94.5911 61.0586 96.9759 61.0907C100.316 61.1464 103.652 61.3117 106.979 61.6573C114.477 62.436 121.773 64.1568 128.968 66.3497C135.841 68.4444 142.691 70.6152 149.634 72.4731C152.948 73.3569 156.287 74.1471 159.672 74.7128C162.039 75.1051 164.427 75.3612 166.823 75.4799C172.331 75.7628 177.737 75.1565 183.014 73.5797C186.852 72.4306 190.282 70.5321 193.09 67.6171C194.542 66.1146 195.552 64.3584 196.033 62.314C196.121 61.9286 196.265 61.7368 196.694 61.7315C197.443 61.7227 198.196 61.6555 198.941 61.6078C199.224 61.5892 199.324 61.7174 199.346 61.994C199.744 66.9189 204.929 69.2319 208.814 67.6357C210.956 66.7563 212.139 65.0725 212.2 62.7435C212.264 60.3174 212.212 57.8876 212.2 55.4597C212.2 54.6898 211.722 54.3708 210.991 54.6227C210.604 54.7552 210.313 55.0363 210.002 55.2785C207.038 57.5889 203.758 57.9521 200.231 56.903C196.84 55.8928 194.772 53.555 193.746 50.2864C192.395 45.9856 192.563 41.7325 194.684 37.6915C196.174 34.8534 198.429 32.7242 201.508 31.744C204.468 30.8018 207.441 31.0095 210.258 32.4511C210.798 32.7271 211.277 33.1081 211.667 33.5718C211.844 33.7777 212.037 33.9156 212.317 33.8458C212.577 33.7804 212.694 33.5806 212.746 33.3367C212.753 33.3068 212.761 33.2773 212.771 33.2483C213.18 31.8606 213.18 31.8553 214.614 31.8527C217.383 31.8474 220.153 31.8474 222.922 31.8527C223.712 31.8527 223.906 32.0551 223.908 32.8532C223.908 33.8255 223.782 33.9881 222.843 34.2197C222.429 34.3213 222.01 34.4088 221.597 34.5166C221.01 34.6713 220.701 35.047 220.652 35.6462C220.637 35.8371 220.645 36.0289 220.644 36.2207C220.637 44.6386 220.629 53.0571 220.621 61.4761C220.621 62.8744 220.545 64.2753 220.144 65.6302C219.19 68.8492 217.095 71.0218 213.947 72.1522C210.785 73.2862 207.592 73.2774 204.425 72.1628C201.815 71.2445 199.976 69.4078 198.598 67.0692C198.331 66.5998 198.113 66.0996 197.848 65.5746ZM212.211 43.8573V41.2569C212.203 40.8594 212.143 40.4646 212.034 40.0823C211.406 37.6764 208.6 36.0342 205.798 36.6353C203.5 37.1267 202.174 38.7618 201.481 40.937C200.972 42.5394 200.862 44.1922 200.916 45.8663C201.034 49.5148 203.968 51.9437 207.556 51.3462C209.897 50.9564 211.805 49.0057 212.137 46.6821C212.285 45.6692 212.166 44.6536 212.211 43.8573Z" fill="white"/>
<path d="M37.9203 1.03962C44.2248 1.03962 50.5285 1.01752 56.8348 1.05288C58.7042 1.06348 60.5745 1.07409 62.4447 1.0953C62.5808 1.0953 62.7691 1.02106 62.8415 1.18369C62.8999 1.3145 62.7532 1.42056 62.6807 1.52397C59.2042 6.36575 55.7259 11.2066 52.2459 16.0467C50.9201 17.8904 49.5984 19.7335 48.2809 21.5761C47.9477 22.0401 47.953 22.0383 47.5331 21.653C44.8285 19.167 41.654 17.6821 38.0095 17.1983C34.0401 16.668 30.2546 17.2681 26.6909 19.0862C22.4961 21.2258 19.2611 24.3652 16.9861 28.5046C15.3677 31.4514 14.4583 34.6033 14.1577 37.9442C13.6813 43.2359 14.4795 48.311 16.8588 53.0768C20.0292 59.4247 25.0557 63.752 31.6528 66.2816C35.3127 67.683 39.2325 68.2755 43.143 68.0184C47.001 67.7833 50.586 66.6087 53.8978 64.6041C55.6625 63.5378 57.3498 62.3484 58.9473 61.0448C59.2001 60.8388 59.4617 60.6364 59.817 60.6806C59.9969 60.6999 60.1678 60.7695 60.3101 60.8814C60.4523 60.9934 60.5601 61.1431 60.6212 61.3135C60.6823 61.4839 60.6941 61.668 60.6553 61.8448C60.6166 62.0216 60.5288 62.1839 60.4021 62.3131C59.8462 62.9018 59.284 63.4869 58.6918 64.0375C55.1246 67.3511 51.0412 69.8056 46.4106 71.3373C38.8107 73.834 30.5713 73.5521 23.1598 70.5418C19.5263 69.0684 16.2604 66.9808 13.2606 64.4697C6.33779 58.724 1.89817 50.5292 0.866275 41.5919C0.589924 39.2682 0.516286 36.9248 0.646194 34.5882C0.916562 29.4331 2.12701 24.3708 4.21787 19.651C6.63345 14.1879 9.94173 9.31784 14.0287 4.96483C15.2095 3.7071 16.4761 2.54306 17.7409 1.37549C18.0343 1.10502 18.3516 1.02194 18.7414 1.02194C25.1335 1.03019 31.5267 1.03196 37.9212 1.02725L37.9203 1.03962Z" fill="white"/>
<path d="M180.394 57.6578H175.4C174.665 57.6578 174.664 57.6578 174.664 56.9392C174.664 50.8017 174.599 44.6642 174.689 38.5294C174.719 36.4293 172.656 35.808 171.382 36.5044C170.145 37.1824 168.938 37.9239 167.758 38.7088C167.688 38.7484 167.629 38.805 167.586 38.8734C167.543 38.9418 167.518 39.0198 167.514 39.1003C167.364 41.5 165.949 43.1705 164.249 44.6492C161.902 46.6927 159.064 47.6746 156.072 48.2933C155.743 48.3718 155.408 48.4282 155.071 48.4622C154.711 48.4869 154.608 48.6213 154.718 48.9677C155.315 50.8866 156.471 52.3414 158.347 53.1077C161.118 54.2382 163.739 53.7423 166.237 52.2353C167.076 51.728 167.78 51.0625 168.462 50.3642C168.992 49.8198 169.842 50.0284 170.044 50.7257C170.139 51.0527 170.004 51.3347 169.859 51.6096C169.431 52.4344 168.906 53.2057 168.297 53.9076C165.963 56.5512 163.026 57.915 159.508 58.1165C157.263 58.2447 155.084 58.0008 153.047 57.0347C149.554 55.3801 147.444 52.5447 146.373 48.9032C146.201 48.319 145.988 48.0008 145.357 47.8541C143.766 47.4811 142.23 46.9048 140.731 46.249C140.348 46.0819 140.284 46.1942 140.278 46.5566C140.261 47.9981 140.32 49.4388 140.224 50.8804C139.994 54.3 137.201 57.215 133.78 57.4828C131.504 57.6596 129.219 57.5712 126.938 57.5058C126.335 57.489 125.732 57.5297 125.131 57.428C121.721 56.8482 119.332 54.0694 119.328 50.6099C119.315 39.7349 119.31 28.8596 119.313 17.9841C119.313 17.7056 119.337 17.4246 119.238 17.1532C119.061 16.6848 118.748 16.3905 118.24 16.3374C117.874 16.2985 117.507 16.2747 117.141 16.2393C116.635 16.1898 116.332 15.9158 116.332 15.4191C116.332 13.7398 116.093 14.0314 117.615 14.0235C120.148 14.0111 122.682 14.0235 125.217 14.0306C125.835 14.0306 126.454 14.0739 127.073 14.0783C127.361 14.0783 127.473 14.2073 127.469 14.4778C127.469 14.6395 127.469 14.8013 127.469 14.9639C127.472 26.6638 127.474 38.3632 127.474 50.0619C127.474 51.142 127.827 52.017 128.717 52.6516C130.031 53.5938 132.837 53.4966 134.069 52.4545C134.318 52.2547 134.519 52.002 134.658 51.7147C134.797 51.4274 134.87 51.1129 134.873 50.7938C134.887 48.2925 134.873 45.7903 134.883 43.2889C134.883 43.0149 134.75 42.8576 134.557 42.7047C133.784 42.0922 133.025 41.4629 132.241 40.8627C131.884 40.5989 131.594 40.2538 131.395 39.856C131.197 39.4582 131.096 39.0189 131.1 38.5744C131.074 36.485 131.1 34.3955 131.095 32.3061C131.095 31.9711 131.214 31.8368 131.562 31.8385C134.288 31.8492 137.013 31.8492 139.737 31.8385C140.16 31.8385 140.214 32.0445 140.213 32.3874C140.213 35.4809 140.223 38.5691 140.206 41.6591C140.206 42.0957 140.333 42.3565 140.709 42.5827C142.161 43.4548 143.726 44.1228 145.361 44.5679C145.714 44.6642 145.83 44.582 145.862 44.2143C146.044 42.1594 146.513 40.1724 147.467 38.3331C149.546 34.3257 152.951 32.1815 157.33 31.4868C159.035 31.2154 160.733 31.3604 162.403 31.8403C164.304 32.383 165.776 33.4843 166.79 35.176C167.002 35.5295 167.168 35.5667 167.509 35.3422C169.169 34.2488 170.821 33.1405 172.521 32.1108C173.866 31.2941 175.349 30.8919 176.949 31.0254C178.161 31.127 179.049 31.7325 179.727 32.6888C180.086 33.1979 180.315 33.7724 180.5 34.3681C180.549 34.5535 180.622 34.7318 180.717 34.8985C180.823 35.0698 180.986 35.1984 181.177 35.2619C181.368 35.3254 181.576 35.3197 181.763 35.2458C181.953 35.1794 182.113 35.0467 182.213 34.872C182.313 34.6973 182.347 34.4924 182.308 34.2948C182.164 33.5131 182.141 32.7139 182.24 31.9252C182.453 30.3165 184.059 28.9766 185.668 29.1057C186.227 29.1507 186.706 29.4159 187.177 29.6961C187.925 30.138 188.541 30.7708 189.298 31.2048C189.726 31.4496 190.157 31.6556 190.671 31.6043C191.67 31.5036 192.359 30.6904 192.405 29.5405C192.447 28.4675 192.059 27.5554 191.344 26.774C190.926 26.3184 190.468 25.9005 189.977 25.5251C189.414 25.0947 189.294 24.5467 189.629 24.0226C189.964 23.4985 190.531 23.3721 191.145 23.6911C193.046 24.6793 194.327 26.2048 194.925 28.2536C195.822 31.333 195.445 34.232 193.477 36.827C192.491 38.1272 191.232 38.9898 189.506 38.9297C188.511 38.8953 187.666 38.4454 186.836 37.9575C186.467 37.7418 186.129 37.4811 185.754 37.2716C184.885 36.7811 183.939 36.9499 183.271 37.6915C183.032 37.9364 182.895 38.2638 182.89 38.6063C182.89 38.7088 182.883 38.8122 182.883 38.9147C182.864 43.6976 182.844 48.4798 182.826 53.2615C182.817 53.5265 182.839 53.7915 182.89 54.0517C183.024 54.6492 183.42 55.0389 184.022 55.1379C184.443 55.2078 184.868 55.2475 185.29 55.3147C185.829 55.4031 186.118 55.7186 186.155 56.2684C186.176 56.576 186.155 56.8871 186.167 57.1956C186.184 57.5385 186.037 57.6614 185.695 57.6569C184.68 57.6428 183.663 57.6516 182.646 57.6516L180.394 57.6578ZM153.934 44.1313C153.934 44.4106 153.926 44.6898 153.934 44.9691C153.942 45.2484 154.083 45.3625 154.365 45.3324C156.265 45.1318 158.091 44.6642 159.66 43.547C161.416 42.2955 162.621 40.6948 162.468 38.3756C162.406 37.4148 161.882 36.6653 160.98 36.3339C159.325 35.7258 157.227 36.2455 156.113 37.6146C154.57 39.5043 154 41.7413 153.934 44.1313Z" fill="white"/>
<path d="M60.6373 47.9221C60.1414 48.3534 59.6606 48.7759 59.1745 49.1922C56.9259 51.1137 54.7366 53.1077 52.344 54.8551C51.1235 55.7312 49.8211 56.4871 48.455 57.1125C47.5176 57.5569 46.4775 57.7401 45.4446 57.6428C44.3716 57.5464 43.5947 57.0188 43.1908 55.9944C43.0556 55.6523 42.938 55.3015 42.7789 54.9709C42.3988 54.1843 41.4885 54.0402 40.8821 54.666C40.617 54.9408 40.3677 55.2325 40.1158 55.5198C38.9412 56.8588 37.4139 57.4006 35.6815 57.4757C30.7567 57.6896 27.1735 55.4658 24.6943 51.34C23.8272 49.8967 23.4984 48.2465 23.2845 46.5884C22.931 43.8484 23.0874 41.1456 24.2417 38.5886C26.1173 34.4344 29.3177 31.9694 33.8581 31.4293C36.797 31.0758 39.5369 31.7325 41.9092 33.6151C42.504 34.0871 43.1086 33.8953 43.3817 33.1802C43.4701 32.9469 43.5426 32.7065 43.6248 32.4732C43.8714 31.759 44.0932 31.5831 44.8498 31.576C46.1013 31.5637 47.3538 31.569 48.6053 31.569C49.8135 31.569 51.0209 31.569 52.2291 31.569C52.877 31.569 53.1439 31.843 53.1607 32.4767C53.1961 33.8387 53.1307 33.9156 51.7642 34.1074C51.5874 34.1322 51.4107 34.1481 51.2392 34.1763C50.9885 34.2093 50.7582 34.3316 50.5905 34.5208C50.4228 34.7099 50.3289 34.9532 50.3262 35.206C50.3182 35.397 50.3262 35.5879 50.3262 35.7797C50.3262 40.0764 50.3262 44.3731 50.3262 48.6699C50.3262 49.9762 51.0041 50.5534 52.2954 50.3492C52.88 50.2639 53.4376 50.0469 53.9261 49.7146C56.2657 48.1157 58.4709 46.3559 60.4746 44.3478C60.5865 44.2444 60.6746 44.1181 60.7328 43.9774C60.7911 43.8367 60.8182 43.685 60.8123 43.5329C60.7999 41.3851 60.807 39.2364 60.8052 37.0878C60.8052 36.6282 60.7566 36.1774 60.5241 35.762C60.1202 35.0478 59.4812 34.7791 58.6919 35.0045C58.5094 35.0625 58.3303 35.1306 58.1554 35.2087C57.5844 35.4429 57.2512 35.3483 56.91 34.8552C56.5689 34.362 56.6078 33.989 57.017 33.5453C58.1996 32.2663 59.7348 31.7342 61.4 31.4753C62.7523 31.2649 64.0463 31.4125 65.2316 32.1382C65.9553 32.5795 66.5171 33.243 66.8331 34.0296C67.1548 34.803 67.6339 34.8967 68.2411 34.2948C69.0436 33.4993 69.8064 32.6499 70.8131 32.0896C74.1214 30.2511 79.4935 31.9128 80.053 36.4205C80.266 38.136 80.0724 39.8083 78.9429 41.2348C77.3113 43.2951 73.7626 43.5214 72.0072 41.6838C70.9979 40.6285 70.8449 39.2541 71.5971 38.0017C71.9038 37.4908 71.8932 37.0913 71.5635 36.7519C71.2338 36.4125 70.784 36.363 70.3023 36.6476C69.2496 37.2663 68.8165 38.2615 68.7997 39.4282C68.7714 42.0321 68.7873 44.6368 68.7847 47.2415C68.7847 49.2744 68.7794 51.3073 68.7847 53.334C68.7847 54.3133 69.17 54.7482 70.1467 54.8958C71.6333 55.1211 71.6537 55.145 71.6298 56.6467C71.6201 57.2398 71.4336 57.4536 70.8343 57.4554C67.7267 57.4648 64.6188 57.4648 61.5105 57.4554C60.8918 57.4554 60.715 57.2495 60.715 56.614C60.715 53.8917 60.713 51.1694 60.7089 48.4471C60.7089 48.288 60.7513 48.1236 60.6373 47.9221ZM42.0886 43.8325C42.0462 42.8603 42.177 41.8933 42.0267 40.9467C41.6007 38.2147 38.8007 36.8765 36.5212 37.1311C34.4238 37.3644 33.0467 38.661 32.2265 40.5207C31.4584 42.261 31.3347 44.1286 31.401 46.0148C31.5203 49.3805 34.2833 51.6847 37.6004 51.1676C38.6921 50.9957 39.7029 50.4874 40.4919 49.7136C41.281 48.9398 41.8088 47.939 42.002 46.8509C42.1788 45.8442 42.0365 44.8242 42.0886 43.8325Z" fill="white"/>
<path d="M90.4601 32.6102C90.4601 38.3788 90.4601 44.1475 90.4601 49.9161C90.4612 50.4456 90.4907 50.9746 90.5484 51.5009C90.6017 52.0188 90.838 52.5008 91.2149 52.8602C91.5917 53.2195 92.0844 53.4326 92.6043 53.4613C93.6207 53.5072 94.54 52.7612 94.7141 51.7006C94.844 50.9157 94.524 50.2467 94.0008 49.6943C93.7286 49.407 93.7772 49.247 94.0476 49.0296C94.5639 48.6079 95.1897 48.342 95.8516 48.2633C96.1769 48.2226 96.3581 48.3234 96.465 48.6619C97.2543 51.1632 98.9893 52.5977 101.543 53.0688C102.619 53.2819 103.734 53.1724 104.748 52.7542C106.437 52.0559 107.196 50.5763 106.803 48.7892C106.602 47.8691 106.145 47.1982 105.286 46.7484C103.607 45.8698 101.945 44.9409 100.282 44.0225C99.6752 43.6876 99.1413 43.2439 98.6031 42.8028C97.3011 41.7289 96.7664 40.3174 96.7876 38.6708C96.8168 36.4709 97.5398 34.5723 99.3101 33.1749C100.384 32.3237 101.711 31.8555 103.081 31.8447C105.774 31.7988 108.468 31.8244 111.162 31.8226C112.782 31.8226 114.402 31.8306 116.023 31.8226C116.389 31.8226 116.504 31.8836 116.328 32.2646C115.369 34.3496 114.43 36.4452 113.483 38.54C113.264 39.0226 113.259 39.0208 112.859 38.6955C111.675 37.7339 110.271 37.3202 108.803 37.0842C107.729 36.9119 106.66 36.881 105.639 37.3591C105.066 37.6287 104.57 37.9778 104.327 38.5965C103.917 39.6439 104.452 40.8398 105.556 41.3215C107.459 42.1511 109.363 42.9787 111.268 43.8042C113.812 44.9108 115.451 47.3573 115.35 50.2184C115.254 52.969 113.886 55.0071 111.523 56.3798C110.271 57.1141 108.843 57.497 107.391 57.4881C101.646 57.481 95.9011 57.4978 90.156 57.4749C86.3077 57.459 82.9084 54.4379 82.371 50.6356C82.3045 50.1103 82.275 49.5811 82.2826 49.0517C82.2826 38.6316 82.2826 28.2124 82.2826 17.794C82.2826 17.5448 82.3038 17.2947 82.2358 17.0481C82.0979 16.5496 81.7717 16.272 81.2538 16.2526C80.8861 16.2367 80.5167 16.2526 80.149 16.242C79.6107 16.2208 79.2651 15.9247 79.1652 15.4023C79.091 15.024 79.1272 14.6395 79.1334 14.2577C79.1334 14.0412 79.2633 13.9413 79.4719 13.9351C79.6195 13.9351 79.7663 13.9289 79.9139 13.9289L89.2828 13.936C90.4645 13.936 90.4645 13.936 90.4645 15.085L90.4601 32.6102Z" fill="white"/>
<path d="M181.911 19.8676C180.66 19.8579 179.574 19.0677 179.247 17.7543C179.011 16.805 178.485 16.158 177.695 15.6604C177.458 15.5119 177.242 15.3317 177.053 15.1248C176.861 14.9198 176.717 14.6752 176.631 14.4084C176.545 14.1416 176.518 13.859 176.553 13.5808C176.588 13.3025 176.683 13.0353 176.833 12.7981C176.983 12.5609 177.183 12.3594 177.419 12.2081C178.046 11.7962 178.7 11.425 179.328 11.0131C179.759 10.7302 179.883 10.3458 179.72 9.95245C179.523 9.48135 179.003 9.31254 178.493 9.57681C177.892 9.88881 177.306 10.2282 176.706 10.542C175.236 11.3109 173.823 10.5367 173.677 8.89094C173.648 8.55419 173.616 8.21744 173.573 7.88245C173.494 7.26375 173.144 6.81122 172.71 6.38697C171.575 5.27507 171.413 3.78312 172.325 2.59698C173.083 1.61236 174.136 1.25352 175.312 1.60529C176.237 1.88106 177.041 1.75113 177.861 1.33306C178.138 1.19596 178.431 1.09298 178.733 1.02636C179.003 0.966546 179.282 0.96617 179.552 1.02526C179.822 1.08435 180.075 1.20149 180.295 1.36854C180.515 1.53559 180.696 1.74854 180.826 1.99258C180.955 2.23662 181.03 2.5059 181.044 2.78171C181.079 3.50117 181.104 4.22063 181.133 4.94097C181.153 5.51548 181.513 5.94592 181.974 5.93885C182.435 5.93178 182.779 5.50664 182.789 4.91799C182.802 4.18262 182.796 3.44814 182.863 2.71365C182.963 1.59203 184.048 0.774464 185.152 1.01576C185.538 1.10972 185.913 1.247 186.269 1.42498C186.969 1.77707 187.777 1.8476 188.528 1.62208C190.272 1.12712 191.842 2.1524 192.134 3.90332C192.209 4.32874 192.174 4.76629 192.031 5.17407C191.889 5.58186 191.644 5.94623 191.32 6.23229C190.536 6.94556 190.293 7.79937 190.23 8.78487C190.16 9.88263 189.584 10.5871 188.639 10.8027C188.25 10.904 187.837 10.8578 187.481 10.6728C186.803 10.3193 186.127 9.95599 185.448 9.61217C184.917 9.3417 184.506 9.42832 184.251 9.84462C183.995 10.2609 184.117 10.7364 184.604 11.0502C185.174 11.4161 185.761 11.7573 186.338 12.1108C187.633 12.9063 187.738 14.4336 186.563 15.4032C186.441 15.5097 186.311 15.6072 186.175 15.6949C185.368 16.1819 184.878 16.8519 184.642 17.7976C184.308 19.1234 183.222 19.8773 181.911 19.8676Z" fill="white"/>
</g>
</g>
<defs>
<clipPath id="clip0_2121_514">
<rect width="223.333" height="90.9323" fill="white" transform="translate(0.583984 0.973328)"/>
</clipPath>
</defs>
</svg>
