<svg width="94" height="140" viewBox="0 0 94 140" fill="none" xmlns="http://www.w3.org/2000/svg">
<g style="mix-blend-mode:difference" clip-path="url(#clip0_2121_489)">
<path d="M93.5837 5.2449V134.292C93.5528 134.406 93.5219 134.517 93.494 134.631C92.9958 136.682 91.8571 138.262 89.8922 139.24C89.1358 139.588 88.3257 139.812 87.494 139.906H7.42433C7.15822 139.879 6.88901 139.84 6.62289 139.825C3.95555 139.681 2.08656 138.358 0.882851 136.121C0.573414 135.563 0.486772 134.903 0.294922 134.292V86.286C0.310394 86.0971 0.344432 85.9082 0.344432 85.7192C0.344432 59.0614 0.352683 32.4055 0.369187 5.75171C0.369187 5.61976 0.369187 5.48781 0.369187 5.35586C0.378664 5.23633 0.399379 5.11788 0.431074 5.002C0.71579 3.708 1.42186 2.53685 2.44526 1.66112C3.46865 0.785398 4.75523 0.251412 6.11542 0.13785L7.8823 -0.00909424H87.4074C87.5126 0.0178955 87.6178 0.0508829 87.7168 0.068876C89.7344 0.389754 91.4115 1.20844 92.5193 2.93278C92.9872 3.64975 93.3458 4.42851 93.5837 5.2449ZM3.872 69.8853V116.736C3.872 121.535 3.81321 126.333 3.872 131.131C3.90604 133.434 5.28613 135.044 7.29746 136.121C8.38977 136.706 9.6368 136.766 10.8715 136.766H36.2452C52.2988 136.766 68.3523 136.766 84.4059 136.766C84.8223 136.768 85.2376 136.723 85.6436 136.634C87.0272 136.288 88.2501 135.5 89.1148 134.398C89.9795 133.295 90.4354 131.943 90.4089 130.558C90.4089 90.0636 90.4089 49.569 90.4089 9.07444C90.3748 7.51705 89.7195 6.03301 88.5806 4.93375C87.4417 3.8345 85.9078 3.20548 84.3007 3.17869C81.296 3.12771 78.2852 3.1607 75.2806 3.1577H37.5913C29.1168 3.1577 20.6393 3.1647 12.1587 3.17869C10.9725 3.16637 9.78701 3.24156 8.61257 3.4036C5.99474 3.78146 3.872 6.28851 3.872 8.85553V69.8853Z" fill="white"/>
<path d="M80.6556 8.68759C80.6061 10.328 80.5534 11.9683 80.507 13.6087C80.4266 16.5566 80.3523 19.5045 80.2657 22.4523C80.1543 26.3928 80.0274 30.3333 79.916 34.2768C79.8294 37.2217 79.7551 40.1696 79.6716 43.1175C79.5746 46.5821 79.4715 50.0448 79.3621 53.5055C79.2899 56.0705 79.2167 58.6345 79.1424 61.1976C79.0434 64.6583 78.9403 68.1199 78.833 71.5826C78.7628 74.1476 78.6896 76.7117 78.6133 79.2747L78.3038 89.6627L78.0811 97.3548C77.9635 101.295 77.8459 105.237 77.7283 109.179C77.6417 112.127 77.5674 115.072 77.4838 118.02C77.4838 118.149 77.4591 118.278 77.4343 118.503L47.0322 78.9838C36.8662 92.1668 26.728 105.321 16.6177 118.446L16.5187 118.422C16.5187 118.236 16.5187 118.05 16.5187 117.864L16.2495 108.268L15.9401 97.9516L15.6306 87.5995C15.5378 84.3627 15.447 81.128 15.3583 77.8952C15.2531 74.2266 15.15 70.561 15.0489 66.8984L14.8508 59.3023L14.4795 46.2183C14.4053 43.6892 14.331 41.1612 14.2567 38.6342C14.1515 35.0355 14.0484 31.4369 13.9473 27.8383C13.8823 25.6221 13.8359 23.403 13.774 21.1868C13.6874 18.2539 13.5822 15.3181 13.5079 12.3822C13.4769 11.1497 13.5079 9.91412 13.5079 8.71458L47.0322 78.9778L80.5844 8.68759H80.6556Z" fill="white"/>
<path d="M38.7095 123.871L37.7317 124.135C37.7017 124.083 37.6749 124.03 37.6513 123.976C37.1716 122.752 36.2031 122.194 34.8663 122.365C33.2758 122.566 32.3475 123.487 32.1711 125.049C32.0553 125.812 32.1448 126.591 32.4311 127.31C32.7133 127.917 33.2035 128.41 33.8184 128.706C34.4333 129.001 35.1349 129.082 35.8039 128.933C36.4061 128.769 36.9889 128.545 37.5429 128.264C37.6001 128.226 37.6479 128.176 37.6832 128.118C37.7184 128.06 37.7403 127.995 37.7472 127.928C37.7688 127.499 37.7472 127.067 37.7472 126.579H35.2717V125.643H38.8426V126.411C38.8426 127.082 38.8426 127.754 38.8426 128.426C38.845 128.562 38.7929 128.693 38.6971 128.792C37.0324 130.069 34.8849 130.333 33.1273 129.488C31.7874 128.843 31.1809 127.724 31.0138 126.354C30.8866 125.397 31.0422 124.424 31.4625 123.55C32.1247 122.176 33.3006 121.568 34.7952 121.451C35.6358 121.358 36.4859 121.504 37.2428 121.87C38.0597 122.272 38.4774 122.977 38.7095 123.871Z" fill="white"/>
<path d="M31.4688 116.925V108.69H32.592V112.718C32.756 112.571 32.855 112.49 32.9479 112.4C34.1392 111.248 35.3336 110.1 36.5126 108.939C36.5956 108.845 36.7005 108.77 36.8188 108.722C36.9371 108.674 37.0654 108.654 37.1933 108.663C37.5368 108.687 37.8803 108.663 38.329 108.663L34.7673 112.004L38.4806 116.913C37.9607 116.913 37.512 116.913 37.0634 116.913C36.9767 116.913 36.8808 116.769 36.8127 116.676C35.9432 115.477 35.0768 114.277 34.2104 113.078C34.1392 112.979 34.0649 112.883 33.9659 112.751C33.5203 113.168 33.0809 113.564 32.6601 113.98C32.5985 114.081 32.5724 114.197 32.5858 114.313C32.5858 115.081 32.5858 115.849 32.5858 116.616C32.5858 116.853 32.5115 116.937 32.2764 116.916C32.0412 116.895 31.7627 116.925 31.4688 116.925Z" fill="white"/>
<path d="M58.2793 123.844H59.1859V124.5C59.2695 124.464 59.3252 124.455 59.3469 124.425C60.17 123.295 62.4722 123.427 63.2241 124.998C63.5058 125.549 63.6524 126.156 63.6524 126.771C63.6524 127.385 63.5058 127.992 63.2241 128.543C62.4876 130.018 60.8229 130.342 59.3066 129.266V132.091H58.2793V123.844ZM62.6362 126.843L62.5495 126.822C62.5619 126.703 62.5619 126.583 62.5495 126.465C62.4913 126.1 62.3949 125.743 62.2617 125.397C62.1549 125.124 61.961 124.892 61.7084 124.733C61.4557 124.575 61.1574 124.498 60.8569 124.515C60.5315 124.535 60.2203 124.652 59.9652 124.848C59.7101 125.045 59.5234 125.313 59.4304 125.616C59.102 126.416 59.0965 127.307 59.4149 128.111C59.5064 128.401 59.6905 128.656 59.9406 128.839C60.1908 129.021 60.4942 129.123 60.8074 129.128C61.1204 129.15 61.4323 129.073 61.6959 128.908C61.9595 128.743 62.1604 128.499 62.2679 128.213C62.4243 127.765 62.5473 127.307 62.6362 126.843Z" fill="white"/>
<path d="M51.6045 114.187H47.0342C46.9863 114.606 47.0859 115.028 47.3168 115.384C47.5477 115.741 47.8963 116.011 48.3059 116.152C48.7021 116.287 49.1368 116.269 49.5195 116.101C49.9023 115.934 50.2036 115.629 50.3606 115.252C50.3746 115.207 50.3977 115.166 50.4285 115.13C50.4593 115.095 50.4972 115.065 50.5399 115.044C50.5826 115.023 50.6292 115.01 50.6771 115.007C50.725 115.003 50.7731 115.009 50.8186 115.024C51.0444 115.069 51.2765 115.093 51.6138 115.144C51.4533 115.489 51.2617 115.821 51.0414 116.134C50.2987 117.033 49.2745 117.162 48.1853 116.994C47.7274 116.939 47.2947 116.76 46.936 116.479C46.5773 116.197 46.3069 115.824 46.1554 115.402C45.7842 114.462 45.7842 113.421 46.1554 112.481C46.2948 112.094 46.5321 111.747 46.8456 111.472C47.1592 111.197 47.5389 111.003 47.9501 110.907C49.8562 110.409 51.4251 111.548 51.5767 113.537C51.6169 113.741 51.6045 113.947 51.6045 114.187ZM47.0775 113.315H50.4967C50.4194 112.142 49.5684 111.599 48.7206 111.644C48.2757 111.659 47.8545 111.842 47.5474 112.155C47.2402 112.467 47.0715 112.883 47.0775 113.315Z" fill="white"/>
<path d="M40.2069 114.184C40.2874 115.318 40.8072 116.005 41.6706 116.179C42.5989 116.368 43.1435 116.059 43.7252 115.003L44.7278 115.123C44.657 115.545 44.4632 115.938 44.1694 116.257C43.8755 116.576 43.4938 116.807 43.0692 116.922C42.4001 117.115 41.6868 117.11 41.0208 116.907C40.6133 116.795 40.2426 116.582 39.9441 116.291C39.6456 115.999 39.4292 115.639 39.3158 115.243C39.034 114.379 39.0437 113.45 39.3436 112.592C39.5273 112.037 39.898 111.558 40.3963 111.232C40.8946 110.905 41.4916 110.751 42.0914 110.793C42.7036 110.788 43.2983 110.99 43.7732 111.365C44.2481 111.739 44.5736 112.262 44.6938 112.844C44.7528 113.149 44.7931 113.458 44.8144 113.768C44.8144 113.884 44.8144 114.004 44.8144 114.169L40.2069 114.184ZM43.6695 113.348C43.6891 113.133 43.663 112.917 43.5929 112.712C43.5228 112.508 43.4102 112.319 43.262 112.158C43.1138 111.998 42.9332 111.868 42.7314 111.778C42.5295 111.687 42.3107 111.638 42.0883 111.632C41.8507 111.62 41.6131 111.656 41.3905 111.737C41.1679 111.819 40.9651 111.944 40.795 112.105C40.6249 112.266 40.4911 112.46 40.4021 112.674C40.3132 112.888 40.2709 113.117 40.2781 113.348H43.6819H43.6695Z" fill="white"/>
<path d="M51.7197 104.051V103.577C51.7197 102.474 51.7197 101.37 51.7197 100.279C51.7197 99.343 51.3453 98.8752 50.5996 98.8182C50.3999 98.7885 50.1961 98.7976 50 98.8448C49.8039 98.8921 49.6195 98.9766 49.4575 99.0935C49.2954 99.2104 49.1589 99.3574 49.0559 99.5258C48.9529 99.6943 48.8854 99.8808 48.8574 100.075C48.814 100.322 48.7923 100.573 48.7924 100.824C48.7924 101.889 48.7924 102.954 48.7924 104.042H47.793V95.7954H48.7863V98.7283C49.0718 98.4141 49.4367 98.1773 49.8452 98.0411C50.2538 97.905 50.6918 97.8741 51.1163 97.9516C52.0446 98.0715 52.6635 98.6323 52.7099 99.526C52.7749 100.95 52.7532 102.378 52.7532 103.805C52.7378 103.859 52.7087 103.907 52.6686 103.946C52.6286 103.986 52.5789 104.015 52.5242 104.03C52.2567 104.053 51.9881 104.06 51.7197 104.051Z" fill="white"/>
<path d="M50.0962 126.843C50.0467 127.202 50.0281 127.589 49.9384 127.958C49.629 129.251 48.4655 130.021 46.9833 129.955C46.3379 129.953 45.7159 129.721 45.2359 129.303C44.756 128.885 44.4516 128.31 44.3809 127.688C44.2951 127.025 44.3181 126.353 44.449 125.697C44.7306 124.386 45.8384 123.679 47.3608 123.718C47.9848 123.723 48.5874 123.94 49.0646 124.329C49.5419 124.719 49.864 125.258 49.9755 125.853C50.0405 126.165 50.056 126.489 50.0962 126.843ZM45.3092 126.876C45.3777 127.294 45.4812 127.706 45.6187 128.108C45.7357 128.423 45.9555 128.692 46.2448 128.875C46.534 129.058 46.877 129.145 47.2215 129.122C47.5661 129.13 47.9042 129.03 48.1861 128.838C48.4679 128.646 48.6787 128.371 48.7873 128.054C49.099 127.284 49.1067 126.43 48.809 125.655C48.687 125.326 48.4617 125.043 48.165 124.845C47.8682 124.647 47.5148 124.544 47.1545 124.55C46.7942 124.557 46.4451 124.673 46.1562 124.882C45.8674 125.091 45.6535 125.382 45.5444 125.715C45.4419 126.095 45.3633 126.48 45.3092 126.87V126.876Z" fill="white"/>
<path d="M46.3686 101.052C46.3377 101.889 46.2263 102.696 45.5888 103.32C44.6853 104.204 43.5775 104.366 42.4016 103.994C41.1639 103.604 40.675 102.651 40.5976 101.478C40.5592 100.954 40.602 100.428 40.7245 99.9158C41.0339 98.5813 42.1386 97.8706 43.6672 97.9306C44.2978 97.9416 44.9041 98.1677 45.3795 98.5692C45.8549 98.9708 46.169 99.5219 46.2665 100.126C46.3222 100.426 46.3346 100.752 46.3686 101.052ZM45.3382 101.052C45.2772 100.647 45.1862 100.246 45.0659 99.8528C44.9564 99.5357 44.7457 99.2605 44.4642 99.067C44.1828 98.8735 43.8452 98.7717 43.5001 98.7763C43.1618 98.7516 42.8242 98.8326 42.5368 99.0075C42.2495 99.1823 42.0275 99.4418 41.9035 99.7479C41.7114 100.166 41.6121 100.618 41.6121 101.075C41.6121 101.532 41.7114 101.984 41.9035 102.402C42.0446 102.693 42.2707 102.938 42.5536 103.106C42.8366 103.275 43.1642 103.359 43.4961 103.349C43.8279 103.339 44.1495 103.235 44.4213 103.051C44.6931 102.866 44.9032 102.608 45.0257 102.309C45.1603 101.898 45.2647 101.478 45.3382 101.052Z" fill="white"/>
<path d="M63.1495 112.478L62.2212 112.607C62.1205 112.402 62.0003 112.206 61.8622 112.022C61.4321 111.539 60.1913 111.497 59.6962 111.932C59.61 111.997 59.5431 112.083 59.5023 112.182C59.4616 112.28 59.4484 112.387 59.4641 112.492C59.4798 112.596 59.5239 112.695 59.5918 112.778C59.6598 112.861 59.7492 112.925 59.8509 112.964C60.1821 113.094 60.5223 113.201 60.869 113.285C61.33 113.42 61.7973 113.546 62.2552 113.687C63.7405 114.148 63.6508 115.771 62.7441 116.5C61.8901 117.186 60.0397 117.258 59.1392 116.619C58.897 116.445 58.6957 116.223 58.5485 115.967C58.4013 115.712 58.3116 115.429 58.2852 115.138L59.2475 114.991C59.724 116.077 60.3584 116.419 61.4569 116.158C61.6877 116.106 61.9008 115.998 62.0757 115.843C62.1803 115.765 62.2601 115.66 62.3062 115.541C62.3522 115.421 62.3626 115.291 62.3362 115.166C62.3097 115.041 62.2475 114.926 62.1565 114.833C62.0656 114.741 61.9497 114.675 61.822 114.643C61.3114 114.466 60.7792 114.343 60.2563 114.202C60.0087 114.13 59.7581 114.061 59.5198 113.968C59.209 113.876 58.9379 113.688 58.748 113.432C58.558 113.177 58.4596 112.868 58.4677 112.553C58.4569 112.229 58.5511 111.911 58.7371 111.642C58.9231 111.373 59.1914 111.167 59.5043 111.054C59.9299 110.886 60.3859 110.803 60.8452 110.81C61.3045 110.817 61.7577 110.913 62.1779 111.093C62.4586 111.211 62.699 111.403 62.871 111.649C63.043 111.894 63.1396 112.182 63.1495 112.478Z" fill="white"/>
<path d="M59.5429 104.027H58.5497C58.5497 103.88 58.5342 103.742 58.5311 103.604C58.5311 102.441 58.5311 101.277 58.5002 100.114C58.4692 99.2561 58.0824 98.8452 57.3831 98.8002C56.4981 98.7403 55.8545 99.1631 55.6719 99.9518C55.6147 100.221 55.5867 100.496 55.5884 100.77C55.5884 101.706 55.5884 102.642 55.5884 103.577V104.018H54.5703V98.0745H55.4584L55.5017 98.8452C55.7528 98.51 56.0936 98.2475 56.4873 98.0863C56.8811 97.9251 57.3128 97.8713 57.7358 97.9306C58.822 98.0235 59.4873 98.5903 59.5306 99.6369C59.5863 101.085 59.5429 102.552 59.5429 104.027Z" fill="white"/>
<path d="M56.4238 129.811H55.5264L55.4924 129.059C55.4027 129.134 55.3377 129.179 55.282 129.233C54.9724 129.565 54.5674 129.799 54.119 129.906C53.6706 130.013 53.1995 129.987 52.7663 129.832C52.3981 129.753 52.0697 129.553 51.8372 129.265C51.6047 128.977 51.4825 128.62 51.4914 128.255C51.4543 126.879 51.4666 125.499 51.4512 124.12C51.4512 123.895 51.5471 123.841 51.7606 123.835C52.494 123.814 52.4909 123.805 52.494 124.494C52.494 125.574 52.494 126.654 52.494 127.73C52.494 128.522 52.8436 128.963 53.5058 129.065C53.8727 129.139 54.2549 129.079 54.5792 128.897C54.9035 128.715 55.1471 128.423 55.2634 128.078C55.3589 127.695 55.4067 127.302 55.4058 126.909C55.4243 125.904 55.4058 124.899 55.4058 123.868H56.4052L56.4238 129.811Z" fill="white"/>
<path d="M34.4356 101.691L35.3825 101.562C35.4258 101.811 35.4536 102.045 35.5031 102.276C35.5476 102.558 35.7041 102.813 35.9393 102.986C36.1745 103.158 36.4699 103.235 36.7626 103.2C36.909 103.204 37.0548 103.179 37.1915 103.128C37.3281 103.077 37.4528 102.999 37.5583 102.901C37.6637 102.802 37.7478 102.684 37.8057 102.554C37.8635 102.423 37.8939 102.283 37.8951 102.141C37.9446 101.436 37.9539 100.729 37.957 100.021C37.957 98.7523 37.957 97.4807 37.957 96.2092V95.7924H39.0338C39.0512 95.8704 39.0626 95.9496 39.0679 96.0293C39.0679 97.9606 39.0679 99.8888 39.0462 101.817C39.0271 102.259 38.9221 102.693 38.7368 103.098C38.597 103.39 38.3708 103.635 38.0869 103.802C37.6891 104.039 37.2349 104.171 36.7686 104.187C36.3023 104.202 35.8397 104.101 35.4258 103.892C34.6986 103.544 34.3459 102.705 34.4356 101.691Z" fill="white"/>
<path d="M54.0571 108.696V116.898H53.0762V108.696H54.0571Z" fill="white"/>
<path d="M55.8867 108.684H56.8614V116.901H55.8867V108.684Z" fill="white"/>
<path d="M41.5788 129.799H40.5638C40.5638 129.673 40.5391 129.556 40.5391 129.443C40.5391 127.706 40.5391 125.97 40.5391 124.234C40.5391 123.877 40.6783 123.814 40.9908 123.826C41.3034 123.838 41.554 123.802 41.489 124.222C41.482 124.345 41.4882 124.468 41.5076 124.59C42.4669 123.589 42.9403 123.478 43.8872 124.036L43.5468 124.935L43.2559 124.842C42.5473 124.596 41.9408 124.869 41.7551 125.568C41.655 125.975 41.6011 126.391 41.5942 126.81C41.5695 127.67 41.5942 128.531 41.5942 129.395L41.5788 129.799Z" fill="white"/>
</g>
<defs>
<clipPath id="clip0_2121_489">
<rect width="93.2764" height="139.915" fill="white" transform="translate(0.308594 -0.00909424)"/>
</clipPath>
</defs>
</svg>
