<svg width="95" height="140" viewBox="0 0 95 140" fill="none" xmlns="http://www.w3.org/2000/svg">
<g style="mix-blend-mode:difference" clip-path="url(#clip0_2192_2837)">
<path d="M94.2468 5.254V134.301C94.2159 134.415 94.1849 134.526 94.1571 134.64C93.6589 136.691 92.5202 138.271 90.5553 139.249C89.7989 139.597 88.9887 139.822 88.1571 139.915H8.08742C7.8213 139.888 7.55209 139.849 7.28598 139.834C4.61864 139.69 2.74964 138.367 1.54594 136.13C1.2365 135.572 1.14986 134.913 0.958008 134.301V86.2951C0.97348 86.1062 1.00752 85.9173 1.00752 85.7283C1.00752 59.0705 1.01577 32.4146 1.03227 5.7608C1.03227 5.62885 1.03227 5.4969 1.03227 5.36495C1.04175 5.24542 1.06246 5.12697 1.09416 5.01109C1.37888 3.71709 2.08495 2.54594 3.10834 1.67022C4.13173 0.794493 5.41831 0.260507 6.7785 0.146944L8.54538 0H88.0705C88.1757 0.0269897 88.2809 0.0599771 88.3799 0.0779703C90.3975 0.398848 92.0746 1.21754 93.1824 2.94188C93.6503 3.65884 94.0089 4.4376 94.2468 5.254ZM4.53509 69.8944V116.745C4.53509 121.544 4.4763 126.342 4.53509 131.14C4.56913 133.443 5.94921 135.054 7.96055 136.13C9.05286 136.715 10.2999 136.775 11.5345 136.775H36.9083C52.9619 136.775 69.0154 136.775 85.069 136.775C85.4854 136.777 85.9007 136.732 86.3067 136.643C87.6903 136.297 88.9132 135.509 89.7779 134.407C90.6426 133.305 91.0985 131.952 91.072 130.567C91.072 90.0727 91.072 49.5781 91.072 9.08354C91.0378 7.52614 90.3826 6.0421 89.2437 4.94285C88.1048 3.84359 86.5709 3.21457 84.9638 3.18778C81.9591 3.1368 78.9483 3.16979 75.9437 3.16679H38.2544C29.7799 3.16679 21.3024 3.17379 12.8218 3.18778C11.6356 3.17546 10.4501 3.25065 9.27565 3.4127C6.65782 3.79056 4.53509 6.2976 4.53509 8.86462V69.8944Z" fill="white"/>
<path d="M81.3196 8.69678C81.2701 10.3372 81.2175 11.9775 81.1711 13.6179C81.0906 16.5658 81.0164 19.5137 80.9297 22.4615C80.8183 26.402 80.6915 30.3425 80.5801 34.286C80.4934 37.2309 80.4192 40.1788 80.3356 43.1266C80.2387 46.5913 80.1355 50.054 80.0262 53.5147C79.954 56.0797 79.8807 58.6437 79.8065 61.2068C79.7075 64.6674 79.6043 68.1291 79.497 71.5918C79.4269 74.1568 79.3537 76.7208 79.2773 79.2839L78.9679 89.6719L78.7451 97.364C78.6275 101.304 78.5099 105.246 78.3924 109.188C78.3057 112.136 78.2315 115.081 78.1479 118.029C78.1479 118.158 78.1231 118.287 78.0984 118.512L47.6963 78.993C37.5303 92.1759 27.3921 105.33 17.2818 118.455L17.1828 118.431C17.1828 118.245 17.1828 118.059 17.1828 117.873L16.9136 108.277L16.6041 97.9607L16.2947 87.6087C16.2019 84.3719 16.1111 81.1372 16.0224 77.9044C15.9172 74.2358 15.814 70.5702 15.7129 66.9076L15.5149 59.3115L15.1436 46.2275C15.0693 43.6984 14.9951 41.1704 14.9208 38.6434C14.8156 35.0447 14.7124 31.4461 14.6114 27.8475C14.5464 25.6313 14.5 23.4122 14.4381 21.196C14.3514 18.2631 14.2462 15.3272 14.172 12.3914C14.141 11.1588 14.172 9.92331 14.172 8.72377L47.6963 78.987L81.2485 8.69678H81.3196Z" fill="white"/>
<path d="M39.3726 123.88L38.3948 124.143C38.3648 124.092 38.338 124.039 38.3143 123.985C37.8347 122.761 36.8662 122.203 35.5294 122.374C33.9389 122.575 33.0106 123.496 32.8342 125.058C32.7184 125.821 32.8079 126.6 33.0941 127.319C33.3763 127.926 33.8666 128.419 34.4815 128.715C35.0963 129.01 35.798 129.091 36.467 128.942C37.0691 128.778 37.652 128.554 38.206 128.273C38.2631 128.235 38.311 128.185 38.3462 128.127C38.3815 128.069 38.4033 128.004 38.4103 127.937C38.4319 127.508 38.4103 127.076 38.4103 126.588H35.9348V125.652H39.5057V126.42C39.5057 127.091 39.5057 127.763 39.5057 128.435C39.5081 128.57 39.4559 128.702 39.3602 128.801C37.6955 130.078 35.548 130.342 33.7904 129.496C32.4505 128.852 31.844 127.733 31.6769 126.363C31.5497 125.406 31.7053 124.433 32.1256 123.559C32.7878 122.185 33.9637 121.576 35.4582 121.46C36.2988 121.367 37.149 121.513 37.9059 121.879C38.7228 122.281 39.1405 122.986 39.3726 123.88Z" fill="white"/>
<path d="M32.1328 116.934V108.7H33.2561V112.727C33.4201 112.58 33.5191 112.499 33.6119 112.409C34.8032 111.258 35.9977 110.109 37.1766 108.948C37.2596 108.854 37.3646 108.779 37.4829 108.731C37.6012 108.684 37.7295 108.663 37.8574 108.673C38.2009 108.697 38.5443 108.673 38.993 108.673L35.4314 112.013L39.1446 116.922C38.6248 116.922 38.1761 116.922 37.7274 116.922C37.6408 116.922 37.5449 116.779 37.4768 116.686C36.6073 115.486 35.7408 114.286 34.8744 113.087C34.8032 112.988 34.729 112.892 34.63 112.76C34.1844 113.177 33.745 113.573 33.3241 113.99C33.2625 114.09 33.2365 114.207 33.2499 114.322C33.2499 115.09 33.2499 115.858 33.2499 116.626C33.2499 116.862 33.1756 116.946 32.9404 116.925C32.7053 116.904 32.4268 116.934 32.1328 116.934Z" fill="white"/>
<path d="M58.9424 123.853H59.849V124.51C59.9326 124.474 59.9883 124.465 60.0099 124.435C60.833 123.304 63.1352 123.436 63.8872 125.007C64.1689 125.558 64.3155 126.165 64.3155 126.78C64.3155 127.395 64.1689 128.001 63.8872 128.552C63.1507 130.027 61.486 130.351 59.9697 129.275V132.1H58.9424V123.853ZM63.2992 126.852L63.2126 126.831C63.225 126.712 63.225 126.592 63.2126 126.474C63.1544 126.109 63.058 125.752 62.9248 125.406C62.818 125.133 62.6241 124.901 62.3714 124.742C62.1188 124.584 61.8205 124.507 61.52 124.525C61.1946 124.545 60.8834 124.661 60.6283 124.858C60.3732 125.054 60.1865 125.322 60.0935 125.625C59.7651 126.425 59.7596 127.316 60.078 128.12C60.1695 128.41 60.3535 128.665 60.6037 128.848C60.8539 129.03 61.1573 129.132 61.4705 129.137C61.7835 129.159 62.0954 129.082 62.359 128.917C62.6226 128.752 62.8234 128.508 62.931 128.222C63.0874 127.774 63.2104 127.316 63.2992 126.852Z" fill="white"/>
<path d="M52.2676 114.197H47.6972C47.6494 114.615 47.749 115.037 47.9799 115.393C48.2108 115.75 48.5594 116.021 48.969 116.161C49.3651 116.296 49.7999 116.278 50.1826 116.11C50.5654 115.943 50.8667 115.639 51.0237 115.261C51.0377 115.217 51.0608 115.175 51.0916 115.14C51.1224 115.104 51.1603 115.075 51.203 115.053C51.2457 115.032 51.2923 115.019 51.3402 115.016C51.3881 115.012 51.4362 115.018 51.4816 115.033C51.7075 115.078 51.9396 115.102 52.2769 115.153C52.1164 115.499 51.9248 115.83 51.7044 116.143C50.9618 117.042 49.9376 117.171 48.8483 117.003C48.3905 116.948 47.9578 116.769 47.5991 116.488C47.2404 116.206 46.97 115.833 46.8184 115.411C46.4472 114.471 46.4472 113.431 46.8184 112.49C46.9578 112.103 47.1952 111.756 47.5087 111.481C47.8223 111.206 48.202 111.012 48.6132 110.916C50.5193 110.418 52.0881 111.558 52.2398 113.546C52.28 113.75 52.2676 113.957 52.2676 114.197ZM47.7406 113.324H51.1598C51.0825 112.151 50.2315 111.609 49.3837 111.653C48.9388 111.668 48.5176 111.852 48.2105 112.164C47.9033 112.476 47.7346 112.892 47.7406 113.324Z" fill="white"/>
<path d="M40.87 114.193C40.9505 115.327 41.4703 116.014 42.3337 116.188C43.262 116.377 43.8066 116.068 44.3883 115.012L45.3909 115.132C45.3201 115.554 45.1263 115.947 44.8325 116.266C44.5386 116.585 44.1569 116.816 43.7323 116.931C43.0632 117.124 42.3498 117.119 41.6838 116.916C41.2764 116.804 40.9057 116.591 40.6072 116.3C40.3087 116.008 40.0923 115.648 39.9789 115.252C39.6971 114.388 39.7068 113.459 40.0067 112.601C40.1903 112.046 40.5611 111.567 41.0594 111.241C41.5577 110.914 42.1547 110.76 42.7545 110.802C43.3667 110.797 43.9613 110.999 44.4363 111.374C44.9112 111.748 45.2367 112.271 45.3569 112.853C45.4159 113.158 45.4562 113.467 45.4775 113.777C45.4775 113.893 45.4775 114.013 45.4775 114.178L40.87 114.193ZM44.3326 113.357C44.3521 113.142 44.326 112.926 44.2559 112.721C44.1859 112.517 44.0732 112.328 43.9251 112.167C43.7769 112.007 43.5963 111.877 43.3945 111.787C43.1926 111.696 42.9737 111.647 42.7514 111.641C42.5138 111.629 42.2762 111.665 42.0536 111.746C41.831 111.828 41.6282 111.953 41.4581 112.114C41.288 112.275 41.1542 112.469 41.0652 112.683C40.9762 112.897 40.934 113.126 40.9412 113.357H44.345H44.3326Z" fill="white"/>
<path d="M52.3838 104.061V103.587C52.3838 102.483 52.3838 101.38 52.3838 100.288C52.3838 99.3523 52.0094 98.8845 51.2636 98.8275C51.0639 98.7978 50.8601 98.8069 50.6641 98.8542C50.468 98.9014 50.2836 98.986 50.1215 99.1029C49.9594 99.2198 49.8229 99.3667 49.7199 99.5351C49.6169 99.7036 49.5495 99.8901 49.5215 100.084C49.4781 100.332 49.4564 100.583 49.4565 100.834C49.4565 101.898 49.4565 102.963 49.4565 104.052H48.457V95.8047H49.4503V98.7376C49.7359 98.4234 50.1008 98.1866 50.5093 98.0505C50.9178 97.9143 51.3558 97.8834 51.7804 97.9609C52.7087 98.0808 53.3276 98.6416 53.374 99.5353C53.439 100.96 53.4173 102.387 53.4173 103.815C53.4019 103.868 53.3727 103.916 53.3327 103.956C53.2927 103.995 53.243 104.024 53.1883 104.04C52.9208 104.062 52.6521 104.069 52.3838 104.061Z" fill="white"/>
<path d="M50.7593 126.851C50.7098 127.211 50.6912 127.598 50.6015 127.967C50.292 129.26 49.1286 130.03 47.6464 129.964C47.001 129.962 46.379 129.73 45.899 129.312C45.4191 128.894 45.1147 128.319 45.044 127.697C44.9582 127.034 44.9811 126.362 45.1121 125.706C45.3937 124.395 46.5015 123.688 48.0239 123.727C48.6479 123.732 49.2504 123.949 49.7277 124.338C50.2049 124.728 50.5271 125.267 50.6386 125.862C50.7036 126.174 50.7191 126.498 50.7593 126.851ZM45.9723 126.884C46.0407 127.303 46.1442 127.715 46.2818 128.117C46.3988 128.432 46.6186 128.701 46.9078 128.884C47.1971 129.067 47.5401 129.154 47.8846 129.131C48.2292 129.139 48.5673 129.039 48.8492 128.847C49.131 128.655 49.3418 128.38 49.4504 128.063C49.7621 127.293 49.7698 126.439 49.472 125.664C49.35 125.335 49.1248 125.052 48.8281 124.854C48.5313 124.656 48.1779 124.553 47.8176 124.559C47.4573 124.566 47.1081 124.682 46.8193 124.891C46.5305 125.1 46.3165 125.391 46.2075 125.724C46.1049 126.104 46.0264 126.489 45.9723 126.878V126.884Z" fill="white"/>
<path d="M47.0317 101.061C47.0008 101.898 46.8894 102.705 46.2519 103.328C45.3484 104.213 44.2406 104.375 43.0647 104.003C41.827 103.613 41.3381 102.66 41.2607 101.487C41.2223 100.963 41.2651 100.437 41.3876 99.9248C41.697 98.5903 42.8017 97.8796 44.3303 97.9395C44.9608 97.9505 45.5672 98.1767 46.0426 98.5782C46.518 98.9797 46.8321 99.5309 46.9296 100.135C46.9853 100.435 46.9977 100.761 47.0317 101.061ZM46.0013 101.061C45.9403 100.656 45.8493 100.255 45.729 99.8618C45.6195 99.5447 45.4088 99.2695 45.1273 99.076C44.8459 98.8825 44.5083 98.7806 44.1632 98.7852C43.8249 98.7605 43.4873 98.8416 43.1999 99.0164C42.9126 99.1913 42.6906 99.4508 42.5665 99.7569C42.3745 100.174 42.2752 100.627 42.2752 101.084C42.2752 101.541 42.3745 101.993 42.5665 102.411C42.7077 102.702 42.9337 102.947 43.2167 103.115C43.4997 103.284 43.8273 103.368 44.1591 103.358C44.491 103.348 44.8126 103.244 45.0844 103.06C45.3562 102.875 45.5663 102.617 45.6887 102.318C45.8234 101.907 45.9278 101.487 46.0013 101.061Z" fill="white"/>
<path d="M63.8116 112.487L62.8833 112.616C62.7826 112.411 62.6624 112.215 62.5243 112.031C62.0942 111.548 60.8534 111.506 60.3583 111.941C60.2721 112.006 60.2052 112.092 60.1645 112.191C60.1237 112.289 60.1105 112.396 60.1262 112.501C60.1419 112.605 60.186 112.704 60.2539 112.787C60.3219 112.87 60.4113 112.934 60.513 112.973C60.8442 113.103 61.1844 113.21 61.5311 113.294C61.9921 113.429 62.4594 113.555 62.9173 113.695C64.4026 114.157 64.3129 115.78 63.4062 116.508C62.5522 117.195 60.7018 117.267 59.8013 116.628C59.5591 116.454 59.3578 116.232 59.2106 115.976C59.0634 115.721 58.9737 115.438 58.9473 115.147L59.9096 115C60.3861 116.086 61.0205 116.427 62.119 116.167C62.3498 116.115 62.5629 116.006 62.7379 115.852C62.8424 115.774 62.9223 115.669 62.9683 115.55C63.0144 115.43 63.0247 115.3 62.9983 115.175C62.9718 115.05 62.9096 114.934 62.8186 114.842C62.7277 114.75 62.6118 114.684 62.4841 114.652C61.9735 114.475 61.4413 114.352 60.9184 114.211C60.6708 114.139 60.4202 114.07 60.1819 113.977C59.8711 113.885 59.6 113.697 59.4101 113.441C59.2201 113.186 59.1217 112.877 59.1298 112.562C59.119 112.238 59.2132 111.92 59.3992 111.651C59.5852 111.382 59.8535 111.176 60.1664 111.062C60.592 110.895 61.048 110.812 61.5073 110.819C61.9666 110.825 62.4198 110.922 62.84 111.101C63.1207 111.219 63.3611 111.412 63.5331 111.658C63.7051 111.903 63.8017 112.191 63.8116 112.487Z" fill="white"/>
<path d="M60.207 104.036H59.2137C59.2137 103.889 59.1983 103.751 59.1952 103.613C59.1952 102.45 59.1952 101.286 59.1642 100.123C59.1333 99.2649 58.7465 98.8541 58.0471 98.8091C57.1622 98.7491 56.5185 99.172 56.336 99.9607C56.2788 100.23 56.2508 100.504 56.2524 100.779C56.2524 101.715 56.2524 102.651 56.2524 103.586V104.027H55.2344V98.0834H56.1225L56.1658 98.8541C56.4168 98.5188 56.7576 98.2564 57.1514 98.0952C57.5451 97.934 57.9769 97.8801 58.3999 97.9394C59.486 98.0324 60.1513 98.5992 60.1946 99.6458C60.2503 101.094 60.207 102.561 60.207 104.036Z" fill="white"/>
<path d="M57.0869 129.82H56.1895L56.1555 129.068C56.0658 129.143 56.0008 129.188 55.9451 129.242C55.6355 129.574 55.2305 129.808 54.7821 129.915C54.3337 130.022 53.8625 129.996 53.4294 129.841C53.0612 129.762 52.7328 129.562 52.5003 129.274C52.2678 128.986 52.1455 128.629 52.1545 128.264C52.1174 126.888 52.1297 125.508 52.1143 124.129C52.1143 123.904 52.2102 123.85 52.4237 123.844C53.1571 123.823 53.154 123.814 53.1571 124.503C53.1571 125.583 53.1571 126.663 53.1571 127.739C53.1571 128.531 53.5067 128.972 54.1689 129.074C54.5358 129.148 54.918 129.088 55.2423 128.906C55.5666 128.724 55.8102 128.432 55.9265 128.087C56.022 127.704 56.0698 127.312 56.0689 126.918C56.0874 125.913 56.0689 124.908 56.0689 123.877H57.0683L57.0869 129.82Z" fill="white"/>
<path d="M35.0997 101.7L36.0465 101.571C36.0899 101.82 36.1177 102.054 36.1672 102.285C36.2117 102.567 36.3682 102.822 36.6034 102.994C36.8386 103.167 37.1339 103.244 37.4266 103.208C37.5731 103.212 37.7189 103.188 37.8555 103.137C37.9922 103.085 38.1169 103.008 38.2223 102.91C38.3278 102.811 38.4119 102.693 38.4697 102.563C38.5276 102.432 38.558 102.292 38.5592 102.15C38.6087 101.445 38.6179 100.737 38.621 100.03C38.621 98.7611 38.621 97.4896 38.621 96.2181V95.8013H39.6979C39.7153 95.8793 39.7267 95.9585 39.7319 96.0382C39.7319 97.9694 39.7319 99.8977 39.7103 101.826C39.6912 102.268 39.5862 102.702 39.4008 103.106C39.261 103.399 39.0349 103.644 38.751 103.811C38.3531 104.047 37.899 104.18 37.4326 104.196C36.9663 104.211 36.5038 104.11 36.0899 103.901C35.3627 103.553 35.0099 102.714 35.0997 101.7Z" fill="white"/>
<path d="M54.7202 108.706V116.907H53.7393V108.706H54.7202Z" fill="white"/>
<path d="M56.5498 108.693H57.5245V116.91H56.5498V108.693Z" fill="white"/>
<path d="M42.2409 129.809H41.2259C41.2259 129.683 41.2012 129.566 41.2012 129.452C41.2012 127.715 41.2012 125.979 41.2012 124.243C41.2012 123.886 41.3404 123.823 41.653 123.835C41.9655 123.847 42.2161 123.811 42.1511 124.231C42.1441 124.354 42.1504 124.478 42.1697 124.6C43.129 123.598 43.6024 123.487 44.5493 124.045L44.2089 124.944L43.918 124.851C43.2094 124.606 42.6029 124.878 42.4173 125.577C42.3171 125.984 42.2632 126.4 42.2564 126.819C42.2316 127.679 42.2564 128.54 42.2564 129.404L42.2409 129.809Z" fill="white"/>
</g>
<defs>
<clipPath id="clip0_2192_2837">
<rect width="93.2764" height="139.915" fill="white" transform="translate(0.97168)"/>
</clipPath>
</defs>
</svg>
