<svg width="312" height="95" viewBox="0 0 312 95" fill="none" xmlns="http://www.w3.org/2000/svg">
<g clip-path="url(#clip0_2192_3058)">
<path d="M23.7941 70.1015H11.3763L9.38039 75.9645H0.115234L12.8392 42.5215H22.3312L35.0665 75.9645H25.79L23.7941 70.1015ZM21.526 63.5013L17.5909 52.4104L13.7238 63.5467L21.526 63.5013Z" fill="white"/>
<path d="M38.877 42.5214H51.737C53.9474 42.5052 56.1345 42.9736 58.1444 43.8936C60.1016 44.7814 61.8778 46.0232 63.3837 47.5566C64.8831 49.0921 66.0796 50.8965 66.9106 52.8752C67.7487 54.8856 68.1802 57.0421 68.1802 59.2202C68.1802 61.3983 67.7487 63.5548 66.9106 65.5652C65.2648 69.597 62.1354 72.8441 58.1671 74.6376C56.1431 75.5648 53.9405 76.0371 51.7144 76.0211H38.877V42.5214ZM47.5751 68.6045H49.571C50.9457 68.6316 52.3127 68.3929 53.5969 67.9014C54.7215 67.4702 55.7419 66.8054 56.5908 65.9508C57.4143 65.11 58.0519 64.1055 58.4619 63.0023C58.8913 61.7941 59.1025 60.5193 59.0857 59.2372C59.0984 57.9673 58.8754 56.7061 58.4279 55.5176C58.0156 54.3955 57.3667 53.3752 56.5253 52.526C55.6839 51.6768 54.6697 51.0185 53.5515 50.5958C52.2789 50.1042 50.9238 49.8616 49.5597 49.8814H47.5751V68.6045Z" fill="white"/>
<path d="M78.0355 42.5215L86.1099 62.8776L94.2296 42.5215H103.676L89.5687 75.9645H82.651L68.5889 42.5215H78.0355Z" fill="white"/>
<path d="M125.008 70.1014H112.59L110.594 75.9191H101.329L114.053 42.4761H123.545L136.269 75.9191H127.004L125.008 70.1014ZM122.74 63.5013L118.839 52.365L114.926 63.5013H122.74Z" fill="white"/>
<path d="M140.09 75.9645V42.5215H148.777L164.835 62.9683V42.5215H173.488V75.9645H164.835L148.777 55.5177V75.9645H140.09Z" fill="white"/>
<path d="M193.176 49.8814V75.9645H184.478V49.8814H177.345V42.5215H200.32V49.8814H193.176Z" fill="white"/>
<path d="M212.863 42.5215H204.176V75.9645H212.863V42.5215Z" fill="white"/>
<path d="M238.265 51.0836C237.415 50.3682 236.458 49.7903 235.43 49.3712C234.557 49.0186 233.627 48.8302 232.685 48.8156C231.704 48.7785 230.737 49.0611 229.93 49.6207C229.596 49.8536 229.325 50.1644 229.139 50.5261C228.953 50.8878 228.859 51.2894 228.864 51.696C228.842 52.2347 229.034 52.7602 229.397 53.159C229.796 53.5748 230.269 53.9132 230.791 54.1569C231.422 54.4613 232.079 54.708 232.753 54.894C233.468 55.0982 234.194 55.325 234.897 55.5631C237.286 56.224 239.446 57.5353 241.134 59.3508C242.503 61.1239 243.191 63.3287 243.073 65.5654C243.094 67.1579 242.798 68.7387 242.2 70.215C241.646 71.5832 240.785 72.8055 239.682 73.7873C238.487 74.8094 237.099 75.5807 235.6 76.0553C233.833 76.6336 231.981 76.9134 230.122 76.8832C225.903 76.8879 221.79 75.5669 218.362 73.1068L222.093 66.0984C223.237 67.152 224.538 68.0205 225.949 68.6727C227.133 69.2206 228.421 69.5105 229.725 69.5232C230.865 69.6084 231.995 69.2601 232.889 68.548C233.216 68.2668 233.478 67.9187 233.658 67.5274C233.838 67.136 233.932 66.7106 233.933 66.2799C233.942 65.8313 233.853 65.3862 233.672 64.9757C233.462 64.5666 233.154 64.2159 232.776 63.9551C232.28 63.595 231.738 63.3015 231.166 63.0819C230.5 62.8248 229.695 62.5299 228.75 62.1973C227.616 61.8457 226.482 61.4488 225.439 61.0632C224.392 60.6534 223.419 60.0749 222.558 59.3508C221.695 58.6102 220.999 57.6939 220.517 56.6632C219.957 55.3735 219.693 53.9744 219.746 52.5692C219.719 51.0184 219.997 49.4774 220.562 48.0331C221.066 46.7331 221.839 45.5544 222.83 44.5742C223.873 43.5732 225.113 42.8007 226.471 42.3061C228.013 41.7565 229.642 41.4876 231.279 41.5123C233.032 41.5245 234.776 41.753 236.473 42.1927C238.282 42.6833 240.025 43.3876 241.667 44.2907L238.265 51.0836Z" fill="white"/>
<path d="M60.5254 82.701H65.1977C66.1144 82.6343 67.0223 82.918 67.7379 83.4948C68.0367 83.7883 68.2684 84.143 68.4172 84.5345C68.5659 84.926 68.6282 85.345 68.5998 85.7629C68.6169 86.2779 68.5038 86.7889 68.2709 87.2485C68.0322 87.6634 67.6879 88.0078 67.273 88.2464C67.6673 88.3207 68.0491 88.4505 68.407 88.632C68.7039 88.7901 68.9661 89.006 69.1782 89.2671C69.3669 89.5237 69.509 89.8117 69.5978 90.1176C69.6859 90.4467 69.7279 90.7863 69.7225 91.1269C69.7371 91.638 69.6363 92.1458 69.4277 92.6125C69.2444 93.0502 68.9608 93.4386 68.5998 93.7466C68.2142 94.0519 67.7705 94.2757 67.2956 94.4043C66.7301 94.5562 66.1461 94.6287 65.5606 94.6198H60.5254V82.701ZM63.6213 87.3619H64.1997C65.175 87.3619 65.674 86.9877 65.674 86.2278C65.674 85.468 65.175 85.0938 64.1997 85.0938H63.6213V87.3619ZM63.6213 92.1816H64.3131C64.8921 92.2258 65.473 92.1244 66.0028 91.8867C66.1725 91.7923 66.3116 91.6515 66.404 91.4807C66.4964 91.31 66.5382 91.1164 66.5245 90.9228C66.5388 90.7306 66.4972 90.5384 66.4046 90.3693C66.312 90.2003 66.1725 90.0616 66.0028 89.9702C65.4743 89.7277 64.8931 89.6224 64.3131 89.664H63.6213V92.1816Z" fill="white"/>
<path d="M79.612 85.3203H75.8697V87.3049H79.3966V89.9132H75.8697V91.9658H79.612V94.5741H72.6943V82.7007H79.612V85.3203Z" fill="white"/>
<path d="M85.9056 88.8812L81.4941 82.7007H85.2478L87.5159 85.9441L89.784 82.7007H93.5377L89.1149 88.8812V94.5515H85.9056V88.8812Z" fill="white"/>
<path d="M94.2414 88.6435C94.2356 87.7975 94.4055 86.9595 94.7403 86.1826C95.0567 85.4306 95.5237 84.7513 96.1125 84.1867C96.7202 83.6082 97.4373 83.1571 98.2219 82.8598C99.9624 82.2095 101.879 82.2095 103.62 82.8598C104.408 83.1571 105.129 83.6082 105.741 84.1867C106.333 84.7509 106.804 85.4301 107.124 86.1826C107.625 87.3394 107.761 88.6216 107.514 89.8577C107.267 91.0939 106.648 92.2251 105.741 93.1003C105.129 93.6788 104.408 94.1298 103.62 94.4271C101.879 95.0774 99.9624 95.0774 98.2219 94.4271C97.4373 94.1298 96.7202 93.6787 96.1125 93.1003C95.5167 92.5216 95.0438 91.8286 94.7223 91.0628C94.4007 90.2969 94.2372 89.474 94.2414 88.6435ZM97.5301 88.6435C97.5247 89.0928 97.6176 89.5379 97.8023 89.9476C97.9847 90.3399 98.2429 90.6921 98.5621 90.9841C98.8813 91.276 99.2552 91.5019 99.6621 91.6487C100.076 91.8167 100.519 91.9015 100.966 91.8982C101.413 91.9033 101.857 91.8184 102.27 91.6487C102.692 91.5043 103.079 91.2724 103.404 90.9683C103.721 90.6734 103.975 90.3188 104.153 89.9249C104.332 89.5135 104.425 89.0695 104.425 88.6208C104.425 88.172 104.332 87.7281 104.153 87.3166C103.792 86.5224 103.131 85.903 102.316 85.5929C101.902 85.4231 101.459 85.3383 101.012 85.3434C100.565 85.3401 100.122 85.4249 99.7075 85.5929C99.2864 85.7388 98.9003 85.9705 98.5734 86.2733C98.2534 86.5746 97.9987 86.9385 97.8251 87.3423C97.6514 87.7461 97.5626 88.1812 97.5641 88.6208L97.5301 88.6435Z" fill="white"/>
<path d="M110.775 94.5741V82.7007H113.917L119.712 89.9699V82.7007H122.842V94.5741H119.712L113.917 87.3163V94.5741H110.775Z" fill="white"/>
<path d="M126.494 82.7007H131.144C131.925 82.7052 132.697 82.8712 133.412 83.1883C134.117 83.504 134.759 83.9459 135.306 84.4925C135.845 85.0375 136.276 85.6802 136.576 86.3863C136.883 87.1029 137.042 87.8746 137.042 88.6544C137.042 89.4343 136.883 90.2059 136.576 90.9225C135.966 92.352 134.835 93.4955 133.412 94.1205C132.699 94.4422 131.926 94.6084 131.144 94.6082H126.494V82.7007ZM129.635 91.9658H130.361C130.857 91.9767 131.349 91.892 131.813 91.7163C132.236 91.5692 132.622 91.3334 132.947 91.0246C133.242 90.724 133.47 90.3646 133.616 89.9699C133.775 89.5459 133.852 89.0957 133.843 88.6431C133.847 88.1898 133.766 87.7398 133.605 87.3163C133.454 86.9209 133.222 86.5615 132.924 86.2616C132.615 85.9607 132.249 85.7254 131.847 85.5698C131.387 85.3961 130.898 85.3115 130.407 85.3203H129.681L129.635 91.9658Z" fill="white"/>
<path d="M149.9 82.7007V91.9658H153.677V94.5741H146.771V82.7007H149.9Z" fill="white"/>
<path d="M155.617 88.6432C155.607 87.798 155.773 86.96 156.104 86.1823C156.429 85.432 156.899 84.7536 157.488 84.1864C158.095 83.6079 158.813 83.1568 159.597 82.8595C161.334 82.2089 163.247 82.2089 164.984 82.8595C165.773 83.1541 166.494 83.6054 167.104 84.1864C167.7 84.7499 168.175 85.4291 168.499 86.1823C169.004 87.3393 169.141 88.6234 168.891 89.8607C168.642 91.0981 168.018 92.2289 167.104 93.1C166.494 93.6809 165.773 94.1323 164.984 94.4268C163.247 95.0774 161.334 95.0774 159.597 94.4268C158.821 94.1369 158.112 93.6931 157.511 93.1221C156.911 92.5511 156.432 91.8647 156.104 91.104C155.773 90.3263 155.607 89.4883 155.617 88.6432ZM158.894 88.6432C158.889 89.0925 158.982 89.5376 159.166 89.9473C159.344 90.3385 159.594 90.6925 159.903 90.9906C160.231 91.2921 160.617 91.5237 161.037 91.6711C161.451 91.8408 161.894 91.9257 162.341 91.9205C163.227 91.92 164.081 91.5883 164.734 90.9906C165.05 90.6958 165.305 90.3412 165.483 89.9473C165.662 89.5359 165.754 89.0919 165.754 88.6432C165.754 88.1944 165.662 87.7504 165.483 87.339C165.308 86.9434 165.053 86.5882 164.734 86.2957C164.081 85.698 163.227 85.3663 162.341 85.3658C161.894 85.3606 161.451 85.4455 161.037 85.6153C160.634 85.7668 160.264 85.9973 159.951 86.2933C159.637 86.5892 159.386 86.9447 159.212 87.339C159.007 87.7442 158.895 88.1895 158.883 88.6432H158.894Z" fill="white"/>
<path d="M177.978 87.9289H184.215C184.215 88.564 184.215 89.131 184.136 89.6527C184.096 90.1402 183.993 90.6205 183.83 91.0816C183.626 91.6787 183.319 92.2353 182.923 92.7259C182.539 93.1959 182.079 93.5984 181.562 93.9167C181.03 94.2428 180.453 94.4875 179.849 94.6425C179.214 94.8163 178.558 94.9041 177.899 94.9033C177.019 94.9129 176.145 94.7551 175.325 94.4383C174.578 94.1531 173.899 93.7168 173.329 93.1569C172.763 92.5912 172.319 91.9158 172.024 91.1723C171.405 89.5277 171.405 87.7137 172.024 86.0691C172.312 85.328 172.753 84.6557 173.317 84.0958C173.901 83.5365 174.591 83.1007 175.347 82.8144C176.194 82.5058 177.089 82.3522 177.99 82.3607C179.148 82.3374 180.293 82.6148 181.312 83.1659C182.302 83.7453 183.093 84.6113 183.58 85.6495L180.598 86.8629C180.385 86.3014 180.01 85.8159 179.52 85.468C179.067 85.1798 178.539 85.03 178.001 85.0371C177.56 85.0335 177.124 85.1224 176.719 85.2979C176.339 85.4661 176.002 85.7181 175.733 86.0351C175.452 86.3703 175.237 86.7549 175.098 87.1691C174.934 87.6548 174.853 88.1648 174.86 88.6774C174.856 89.1501 174.924 89.6205 175.064 90.0723C175.184 90.4876 175.388 90.8737 175.665 91.2063C175.935 91.5224 176.272 91.7743 176.651 91.9434C177.091 92.1192 177.562 92.2041 178.035 92.1929C178.337 92.1988 178.638 92.1645 178.931 92.0909C179.209 92.0287 179.474 91.9174 179.713 91.762C179.946 91.6124 180.14 91.4105 180.28 91.1723C180.438 90.9038 180.542 90.6072 180.586 90.2991H178.001L177.978 87.9289Z" fill="white"/>
<path d="M190.465 82.7007V94.5741H187.323V82.7007H190.465Z" fill="white"/>
<path d="M200.752 85.7403C200.441 85.4879 200.093 85.2851 199.72 85.1392C199.406 85.0122 199.071 84.9467 198.733 84.9465C198.378 84.9291 198.028 85.0287 197.735 85.23C197.615 85.3118 197.517 85.4218 197.45 85.5504C197.383 85.6789 197.348 85.822 197.349 85.9671C197.345 86.1591 197.414 86.3455 197.542 86.4888C197.69 86.6352 197.863 86.7543 198.052 86.8403C198.279 86.9465 198.514 87.0338 198.756 87.1011C199.013 87.1692 199.273 87.2486 199.538 87.3393C200.403 87.5678 201.188 88.0309 201.806 88.6775C202.303 89.3001 202.557 90.0818 202.521 90.8775C202.53 91.4454 202.422 92.0092 202.203 92.5332C202.001 93.0198 201.691 93.4541 201.296 93.8034C200.865 94.1722 200.363 94.4499 199.822 94.6199C199.18 94.8236 198.51 94.9232 197.837 94.9147C196.32 94.9123 194.84 94.4453 193.596 93.5765L194.945 91.0816C195.359 91.4541 195.825 91.7636 196.329 92.0002C196.762 92.1886 197.229 92.2888 197.701 92.2951C198.11 92.3243 198.514 92.1988 198.835 91.9435C198.95 91.8481 199.044 91.7286 199.108 91.5935C199.173 91.4584 199.207 91.3108 199.209 91.161C199.213 91.0001 199.178 90.8406 199.107 90.6961C199.035 90.5496 198.925 90.4245 198.79 90.3332C198.61 90.2017 198.411 90.0984 198.2 90.027C197.962 89.9363 197.678 89.8229 197.338 89.7095C196.998 89.596 196.533 89.4486 196.136 89.2899C195.758 89.1462 195.406 88.9433 195.093 88.6888C194.785 88.4247 194.534 88.1006 194.356 87.7362C194.16 87.2781 194.067 86.7826 194.083 86.2846C194.072 85.7371 194.172 85.1929 194.378 84.6856C194.562 84.2189 194.845 83.7973 195.206 83.4495C195.586 83.0983 196.034 82.8282 196.522 82.6557C197.08 82.4643 197.666 82.3685 198.257 82.3722C198.892 82.3751 199.525 82.4589 200.139 82.6217C200.79 82.7821 201.418 83.0221 202.01 83.3361L200.752 85.7403Z" fill="white"/>
<path d="M210.231 85.3203V94.5741H207.09V85.3203H204.516V82.7007H212.817V85.3203H210.231Z" fill="white"/>
<path d="M218.476 82.7007V94.5741H215.335V82.7007H218.476Z" fill="white"/>
<path d="M230.825 86.6701C230.506 86.2626 230.098 85.9333 229.632 85.7073C229.167 85.4813 228.655 85.3645 228.138 85.366C227.69 85.3589 227.247 85.4439 226.834 85.6155C226.445 85.7717 226.092 86.005 225.796 86.3012C225.499 86.5974 225.266 86.9505 225.11 87.3392C224.943 87.7498 224.858 88.1889 224.86 88.632C224.86 89.0786 224.945 89.5212 225.11 89.9362C225.271 90.3217 225.506 90.6721 225.802 90.9682C226.095 91.2668 226.446 91.5023 226.834 91.6599C227.238 91.8333 227.675 91.922 228.115 91.9207C228.63 91.9132 229.137 91.7972 229.604 91.5803C230.071 91.3634 230.487 91.0505 230.825 90.662V94.3136L230.508 94.427C230.066 94.5764 229.615 94.6976 229.158 94.7899C228.751 94.8701 228.337 94.9119 227.922 94.9146C226.28 94.9146 224.702 94.2761 223.522 93.1342C222.935 92.5611 222.458 91.8844 222.116 91.1383C221.761 90.343 221.583 89.4801 221.594 88.6093C221.583 87.7458 221.761 86.8903 222.116 86.1031C222.445 85.3564 222.924 84.6849 223.522 84.1299C224.106 83.5734 224.791 83.1344 225.541 82.837C226.313 82.5285 227.136 82.3707 227.968 82.3721C228.444 82.3757 228.918 82.425 229.385 82.5195C229.885 82.6344 230.374 82.7899 230.848 82.9845L230.825 86.6701Z" fill="white"/>
<path d="M240.532 85.7402C240.224 85.4904 239.88 85.2878 239.512 85.1392C239.195 85.0109 238.856 84.9455 238.514 84.9464C238.162 84.9273 237.815 85.0272 237.527 85.2299C237.401 85.3091 237.299 85.4199 237.229 85.5512C237.159 85.6825 237.125 85.8298 237.13 85.9784C237.126 86.0738 237.141 86.1691 237.174 86.2587C237.207 86.3483 237.258 86.4304 237.323 86.5C237.467 86.6463 237.636 86.7654 237.822 86.8516C238.049 86.9578 238.284 87.045 238.525 87.1124L239.308 87.3506C240.173 87.5791 240.957 88.0422 241.576 88.6887C242.072 89.3114 242.326 90.0931 242.29 90.8888C242.298 91.4555 242.194 92.0181 241.984 92.5445C241.773 93.0294 241.46 93.4627 241.065 93.8146C240.634 94.1835 240.133 94.4612 239.591 94.6311C238.954 94.8349 238.287 94.9344 237.618 94.926C236.097 94.9252 234.613 94.4581 233.365 93.5878L234.715 91.0929C235.13 91.4686 235.6 91.7784 236.11 92.0115C236.539 92.201 237.002 92.3013 237.47 92.3064C237.879 92.3379 238.285 92.2121 238.605 91.9548C238.72 91.8593 238.813 91.7399 238.878 91.6048C238.942 91.4697 238.977 91.3221 238.979 91.1723C238.982 91.0127 238.951 90.8542 238.888 90.7073C238.811 90.5604 238.698 90.4355 238.559 90.3445C238.382 90.215 238.187 90.1118 237.981 90.0383L237.108 89.7207C236.699 89.596 236.302 89.4599 235.974 89.3011C235.595 89.1601 235.242 88.957 234.93 88.7001C234.616 88.4424 234.364 88.1167 234.193 87.7475C233.988 87.2919 233.891 86.7951 233.91 86.2959C233.904 85.7489 234.004 85.2058 234.204 84.6969C234.392 84.2295 234.679 83.8079 235.044 83.4608C235.42 83.1099 235.863 82.8397 236.348 82.667C236.91 82.4748 237.5 82.3789 238.094 82.3835C238.726 82.3856 239.355 82.4694 239.965 82.6329C240.617 82.7895 241.246 83.0296 241.837 83.3474L240.532 85.7402Z" fill="white"/>
<path d="M246.781 76.611L271.685 0.924805L281.256 29.9791L271.708 30.0131L246.781 76.611Z" fill="white"/>
<path d="M263.883 52.6034L279.952 52.5807L282.436 50.7435L286.927 47.4321L295.818 75.9761L263.883 52.6034Z" fill="white"/>
<path d="M271.22 30.4098H309.778L279.556 52.2629L263.554 52.5237L271.425 58.262L248.12 75.0685L271.22 30.4098ZM270.869 29.8428L270.71 30.149L247.61 74.8077L246.476 76.917L248.403 75.5335L271.753 58.7609L272.389 58.296L271.765 57.8424L265.255 53.0907L279.567 52.8526H279.748L279.896 52.7505L310.118 30.9541L311.547 29.9222H309.789H271.232L270.869 29.8428Z" fill="white"/>
<path d="M233.331 30.4669H262.555L257.01 47.5343L233.331 30.4669ZM231.573 29.8999L233.002 30.9319L256.681 48.022L257.316 48.4869L257.554 47.7384L263.088 30.7278L263.338 29.9793H262.555H233.331L231.573 29.8999Z" fill="white"/>
</g>
<defs>
<clipPath id="clip0_2192_3058">
<rect width="311.432" height="93.9897" fill="white" transform="translate(0.115234 0.924805)"/>
</clipPath>
</defs>
</svg>
