<svg width="300" height="127" viewBox="0 0 300 127" fill="none" xmlns="http://www.w3.org/2000/svg">
<g style="mix-blend-mode:difference" clip-path="url(#clip0_2192_3099)">
<path d="M26.8439 113.88C26.8439 121.911 22.4453 126.526 14.1826 126.526H0.308594V101.315H14.1826C22.4042 101.315 26.8439 105.93 26.8439 113.88ZM14.1415 121.492C18.6222 121.492 20.616 118.77 20.616 113.88C20.616 108.989 18.5606 106.319 14.1415 106.319H6.35148V121.492H14.1415Z" fill="white"/>
<path d="M30.1123 115.824C30.1123 108.723 34.5931 104.804 42.5475 104.804C49.947 104.804 54.2325 108.181 54.51 114.013C54.5597 115.112 54.5219 116.214 54.3969 117.307H36.0935C36.6074 120.602 38.8992 122.239 42.9894 122.239C46.0725 122.239 47.9429 121.338 48.6418 119.671H54.253C53.1637 124.449 49.2687 126.925 42.8764 126.925C34.6547 126.925 30.1329 122.975 30.1329 115.834M49.0323 113.859C48.8781 111.127 46.5555 109.439 42.64 109.439C39.0225 109.439 36.8026 110.912 36.1757 113.828L49.0323 113.859Z" fill="white"/>
<path d="M58.8262 105.193H63.3892L64.3655 107.945C65.5002 106.875 66.8411 106.045 68.3072 105.505C69.7733 104.965 71.3342 104.727 72.8954 104.804C78.5067 104.804 82.2886 108.181 82.2886 112.99V126.526H76.5232V114.391C76.5232 111.322 74.6528 109.767 70.9531 109.767C69.755 109.776 68.5719 110.032 67.4786 110.52C66.3854 111.008 65.4058 111.716 64.6019 112.601V126.526H58.8262V105.193Z" fill="white"/>
<path d="M99.9956 121.84C101.167 121.84 103.233 121.758 103.932 121.676V126.648C103.305 126.761 100.15 126.914 98.8651 126.914C93.295 126.914 90.366 124.51 90.366 119.855V109.347H85.4639V105.193H90.366V100.425L96.1417 99.2075V105.224H103.778V109.378H96.1417V118.453C96.1417 120.857 97.303 121.87 99.9956 121.87" fill="white"/>
<path d="M108.033 105.193H128.608V109.347L115.248 122.341H128.608V126.526H108.033V122.341L121.486 109.347H108.033V105.193Z" fill="white"/>
<path d="M153.807 101.315H157.424L168.853 126.536H165.543L162.851 120.561H148.391L145.698 126.536H142.379L153.807 101.315ZM161.659 117.839L155.657 104.375L149.614 117.839H161.659Z" fill="white"/>
<path d="M168.811 105.776H172.089L180.578 123.855L189.036 105.776H192.314L182.222 126.526H178.903L168.811 105.776Z" fill="white"/>
<path d="M194.667 116.089C194.667 109.193 198.675 105.387 206.126 105.387C213.32 105.387 217.431 108.805 217.431 114.698C217.431 115.588 217.359 116.407 217.318 116.867H197.791C198.069 121.799 201.028 124.203 206.681 124.203C210.853 124.203 213.31 122.965 214.121 120.438H217.122C216.033 124.704 212.446 126.914 206.681 126.914C198.922 126.914 194.718 123.118 194.718 116.089M214.419 114.555C214.419 110.319 211.542 108.027 206.198 108.027C201.128 108.027 198.336 110.203 197.822 114.555H214.419Z" fill="white"/>
<path d="M223.237 105.776H225.498L226.207 108.764C227.313 107.638 228.643 106.756 230.113 106.175C231.582 105.593 233.157 105.325 234.737 105.387C240.431 105.387 243.935 108.457 243.935 113.419V126.526H240.934V114.002C240.934 110.196 238.406 108.068 233.956 108.068C232.505 108.063 231.069 108.359 229.74 108.939C228.411 109.519 227.218 110.368 226.238 111.434V126.526H223.237V105.776Z" fill="white"/>
<path d="M271.068 126.526H268.848L268.149 123.579C267.086 124.673 265.806 125.535 264.391 126.109C262.975 126.683 261.455 126.958 259.927 126.915C254.398 126.915 251.007 123.845 251.007 118.883V105.776H254.008V118.31C254.008 122.106 256.423 124.244 260.708 124.244C262.111 124.233 263.496 123.927 264.771 123.345C266.047 122.763 267.184 121.919 268.108 120.868V105.776H271.109L271.068 126.526Z" fill="white"/>
<path d="M276.925 116.089C276.925 109.193 280.943 105.387 288.384 105.387C295.578 105.387 299.688 108.805 299.688 114.698C299.688 115.588 299.606 116.407 299.565 116.867H280.039C280.316 121.799 283.276 124.203 288.928 124.203C293.091 124.203 295.547 122.965 296.369 120.438H299.37C298.28 124.704 294.694 126.914 288.928 126.914C281.169 126.914 276.956 123.118 276.956 116.089M296.688 114.555C296.688 110.319 293.8 108.027 288.466 108.027C283.399 108.027 280.594 110.206 280.09 114.555H296.688Z" fill="white"/>
<path d="M108.084 49.9223C108.084 58.4212 111.475 66.572 117.512 72.5816C123.548 78.5912 131.735 81.9674 140.272 81.9674H144.999V49.9325C144.997 49.2994 144.858 48.6742 144.592 48.099C144.327 47.5238 143.94 47.012 143.459 46.598C142.978 46.184 142.413 45.8775 141.803 45.699C141.193 45.5206 140.552 45.4744 139.922 45.5636C137.323 45.9219 134.77 46.5564 132.307 47.4565C128.583 48.807 124.5 48.807 120.776 47.4565C118.274 46.5434 115.679 45.9053 113.038 45.5534C112.846 45.5385 112.654 45.5385 112.462 45.5534C111.295 45.5642 110.18 46.0339 109.36 46.86C108.54 47.6861 108.081 48.8016 108.084 49.9632M187.443 45.5534C187.248 45.5381 187.052 45.5381 186.857 45.5534C184.219 45.906 181.628 46.5441 179.129 47.4565C175.409 48.8072 171.329 48.8072 167.609 47.4565C165.141 46.5578 162.585 45.9232 159.983 45.5636C159.354 45.4743 158.713 45.5204 158.103 45.6989C157.494 45.8774 156.93 46.1841 156.449 46.5983C155.969 47.0125 155.584 47.5244 155.319 48.0997C155.055 48.6749 154.917 49.2999 154.916 49.9325V81.9674H159.603C168.139 81.9674 176.326 78.5912 182.363 72.5816C188.399 66.572 191.79 58.4212 191.79 49.9223C191.796 48.7616 191.339 47.6461 190.521 46.8197C189.702 45.9933 188.588 45.5233 187.423 45.5125L187.443 45.5534ZM108.084 0.984863V33.03C108.081 33.6542 108.211 34.2719 108.467 34.8419C108.722 35.4119 109.097 35.9211 109.565 36.3355C110.034 36.75 110.586 37.0601 111.185 37.2452C111.784 37.4303 112.415 37.4862 113.038 37.4091C115.679 37.0572 118.274 36.4191 120.776 35.506C124.498 34.1449 128.585 34.1449 132.307 35.506C134.771 36.4026 137.324 37.0338 139.922 37.3886C140.551 37.4794 141.192 37.4348 141.803 37.2576C142.413 37.0804 142.978 36.7749 143.459 36.3617C143.94 35.9485 144.327 35.4372 144.592 34.8624C144.858 34.2876 144.997 33.6627 144.999 33.03V27.0241C144.996 20.1189 142.24 13.4973 137.335 8.61457C132.431 3.73186 125.78 0.987575 118.844 0.984863L108.084 0.984863ZM181.051 0.984863C174.114 0.984863 167.462 3.72827 162.556 8.61158C157.651 13.4949 154.896 20.1181 154.896 27.0241V33.03C154.897 33.6623 155.034 34.287 155.299 34.8618C155.563 35.4366 155.949 35.948 156.429 36.3614C156.91 36.7748 157.474 37.0804 158.084 37.2577C158.693 37.4349 159.334 37.4796 159.962 37.3886C162.564 37.0323 165.12 36.4012 167.588 35.506C171.307 34.1456 175.39 34.1456 179.109 35.506C181.611 36.4191 184.206 37.0572 186.847 37.4091C187.469 37.4862 188.101 37.4303 188.7 37.2452C189.298 37.0601 189.85 36.75 190.319 36.3355C190.788 35.9211 191.163 35.4119 191.418 34.8419C191.674 34.2719 191.804 33.6542 191.801 33.03V0.984863H181.051Z" fill="white"/>
</g>
<defs>
<clipPath id="clip0_2192_3099">
<rect width="299.38" height="125.93" fill="white" transform="translate(0.308594 0.984863)"/>
</clipPath>
</defs>
</svg>
