<svg width="164" height="98" viewBox="0 0 164 98" fill="none" xmlns="http://www.w3.org/2000/svg">
<g style="mix-blend-mode:difference" clip-path="url(#clip0_2192_2814)">
<path d="M44.1163 49.0935C52.5966 46.8587 60.1457 41.9832 65.6709 35.1729C49.9899 37.2385 36.8236 42.3577 28.8125 49.0935C33.8374 50.3418 39.0914 50.3418 44.1163 49.0935Z" fill="white"/>
<path d="M119.18 49.0935C124.211 50.3419 129.471 50.3419 134.502 49.0935C126.49 42.3398 113.306 37.2744 97.6611 35.1729C103.18 41.9908 110.731 46.868 119.216 49.0935" fill="white"/>
<path d="M138.057 52.614C131.678 54.7324 124.832 55.0187 118.299 53.4402C107.863 50.9435 98.7918 44.2975 91.6069 34.5261C87.3076 28.5447 83.9459 21.9425 81.6379 14.9473C79.3092 21.9373 75.9426 28.5374 71.6509 34.5261C64.5738 44.2975 55.4849 50.9435 45.0489 53.4402C38.5152 55.0187 31.6696 54.7324 25.2905 52.614C18.9302 50.4495 13.1446 46.8688 8.37012 42.142L24.5361 87.5325H138.901L155.067 42.142C150.267 46.8803 144.449 50.4617 138.057 52.614ZM75.1895 67.1813C74.5919 67.1849 74.0067 67.0109 73.5081 66.6815C73.0095 66.3521 72.6199 65.8821 72.3887 65.331C72.1576 64.7799 72.0953 64.1726 72.2097 63.586C72.3241 62.9995 72.61 62.4601 73.0313 62.0363C73.4526 61.6125 73.9903 61.3233 74.5762 61.2054C75.162 61.0875 75.7697 61.1462 76.3221 61.3741C76.8746 61.6019 77.3469 61.9887 77.6793 62.4853C78.0117 62.9819 78.1891 63.5661 78.1891 64.1637C78.1893 64.9548 77.8788 65.7142 77.3244 66.2786C76.7701 66.843 76.0163 67.1672 75.2254 67.1813H75.1895ZM81.602 73.6118C81.0051 73.6118 80.4217 73.4348 79.9255 73.1032C79.4292 72.7716 79.0424 72.3003 78.814 71.7489C78.5856 71.1975 78.5259 70.5908 78.6423 70.0054C78.7587 69.4201 79.0461 68.8824 79.4682 68.4603C79.8902 68.0383 80.4279 67.7509 81.0133 67.6345C81.5986 67.518 82.2054 67.5778 82.7568 67.8062C83.3082 68.0346 83.7795 68.4214 84.1111 68.9176C84.4426 69.4139 84.6196 69.9973 84.6196 70.5941C84.6197 71.3883 84.3067 72.1504 83.7485 72.7153C83.1903 73.2802 82.432 73.6023 81.6379 73.6118H81.602ZM81.602 60.7509C81.0044 60.7436 80.4225 60.5592 79.9299 60.2209C79.4373 59.8826 79.0563 59.4056 78.8351 58.8505C78.6139 58.2954 78.5625 57.6871 78.6874 57.1027C78.8123 56.5183 79.1078 55.9842 79.5366 55.568C79.9655 55.1518 80.5082 54.8723 81.096 54.7649C81.6839 54.6575 82.2903 54.7271 82.8386 54.9647C83.3869 55.2024 83.8522 55.5975 84.1757 56.1C84.4992 56.6024 84.6662 57.1896 84.6555 57.7871C84.6461 58.5795 84.3234 59.336 83.758 59.8913C83.1926 60.4467 82.4304 60.7557 81.6379 60.7509H81.602ZM88.0145 67.1813C87.4176 67.1813 86.8342 67.0043 86.338 66.6728C85.8417 66.3412 85.4549 65.8699 85.2265 65.3185C84.9981 64.7671 84.9384 64.1603 85.0548 63.575C85.1712 62.9896 85.4586 62.4519 85.8807 62.0299C86.3027 61.6078 86.8404 61.3204 87.4258 61.204C88.0111 61.0876 88.6179 61.1473 89.1693 61.3757C89.7207 61.6041 90.192 61.9909 90.5236 62.4872C90.8551 62.9834 91.0321 63.5668 91.0321 64.1637C91.0321 64.964 90.7142 65.7315 90.1483 66.2975C89.5823 66.8634 88.8148 67.1813 88.0145 67.1813Z" fill="white"/>
<path d="M138.974 92.0591H24.3213V97.9148H138.974V92.0591Z" fill="white"/>
<path d="M81.658 0.307984C81.0299 0.293887 80.4103 0.454325 79.868 0.771446C79.3258 1.08857 78.8821 1.54993 78.5864 2.1042C78.3116 2.63177 78.1772 3.22118 78.1961 3.81573C78.215 4.41029 78.3865 4.98998 78.6942 5.49906C79.0043 6.00432 79.4387 6.42165 79.956 6.71115C80.4733 7.00065 81.0562 7.15267 81.649 7.15267C82.2418 7.15267 82.8247 7.00065 83.342 6.71115C83.8593 6.42165 84.2937 6.00432 84.6038 5.49906C84.9115 4.98998 85.083 4.41029 85.1019 3.81573C85.1208 3.22118 84.9864 2.63177 84.7116 2.1042C84.4173 1.55269 83.9765 1.09314 83.4377 0.776195C82.8989 0.459252 82.283 0.297229 81.658 0.307984Z" fill="white"/>
<path d="M161.227 29.1553C160.413 28.7361 159.465 28.6577 158.593 28.9373C157.72 29.2168 156.994 29.8316 156.575 30.6462C156.156 31.4608 156.078 32.4086 156.357 33.2811C156.637 34.1535 157.251 34.8792 158.066 35.2984C158.552 35.5592 159.095 35.6951 159.647 35.6936C160.282 35.6868 160.903 35.5067 161.443 35.1727C161.951 34.8606 162.369 34.4214 162.656 33.8986C162.942 33.3757 163.088 32.7871 163.078 32.1909C163.087 31.5686 162.924 30.9557 162.607 30.42C162.29 29.8843 161.831 29.4466 161.281 29.1553" fill="white"/>
<path d="M5.38889 29.1911C4.85754 28.8283 4.23526 28.6213 3.59241 28.5935C2.94957 28.5658 2.31178 28.7185 1.75117 29.0343C1.19056 29.3501 0.729481 29.8165 0.420058 30.3806C0.110635 30.9448 -0.0347881 31.5843 0.000228985 32.2268C0.0203203 32.8238 0.196793 33.4052 0.512006 33.9127C0.827218 34.4202 1.27012 34.836 1.79645 35.1187C2.30639 35.4071 2.8811 35.5616 3.46693 35.5677C4.09743 35.5819 4.71941 35.4202 5.26315 35.1007C5.7752 34.8016 6.20194 34.3761 6.50259 33.8649C6.80324 33.3538 6.96773 32.774 6.98035 32.1811C6.99296 31.5882 6.85327 31.002 6.57464 30.4785C6.29601 29.9551 5.88774 29.5118 5.38889 29.1911Z" fill="white"/>
</g>
<defs>
<clipPath id="clip0_2192_2814">
<rect width="163.097" height="97.6065" fill="white" transform="translate(0 0.308105)"/>
</clipPath>
</defs>
</svg>
