<svg width="188" height="67" viewBox="0 0 188 67" fill="none" xmlns="http://www.w3.org/2000/svg">
<g clip-path="url(#clip0_2192_3087)">
<path d="M167.653 55.5344C158.451 54.5614 148.002 56.4228 135.247 58.9612C117.364 62.4587 99.0811 63.4412 80.9269 61.8802C58.4205 59.9976 41.7099 55.3018 16.2633 54.6249V53.4192C40.9696 54.1807 57.4475 58.7708 79.552 60.6322C97.6883 62.1579 115.949 61.1541 133.808 57.6497C148.488 54.7306 158.134 53.4192 167.653 55.5344ZM7.75992 47.3484C7.46748 48.9942 6.61568 50.4886 5.34852 51.5789C5.78843 49.8727 6.00179 48.1161 5.9831 46.3542V9.44285C5.93431 7.20026 5.29203 5.01067 4.12167 3.09707C6.12557 4.83803 7.42029 7.25433 7.75992 9.88706V47.3484ZM133.808 55.746C116.18 59.2733 98.1442 60.3058 80.2288 58.8131C57.9763 56.9093 41.4984 52.2135 16.3479 51.5577V9.44285C16.434 6.39094 17.5272 3.45323 19.4573 1.08757H0.546875C2.5139 3.47943 3.63664 6.45357 3.74092 9.54862V46.4388C3.94958 50.1384 2.81535 53.789 0.546875 56.719L10.0021 62.1552C16.5281 61.3501 23.1184 61.2013 29.6741 61.711C48.0557 63.0436 74.7292 66.8722 93.132 66.9145C112.319 67.0643 131.425 64.4062 149.842 59.0246C150.657 60.2113 151.789 61.1444 153.11 61.7169C154.431 62.2893 155.886 62.4779 157.309 62.261C162.661 61.436 167.462 56.5709 173.872 55.6825C162.047 51.1347 151.704 52.15 133.808 55.746ZM44.2905 9.88706V41.0449C44.1737 41.969 43.8359 42.8514 43.3057 43.6173C42.7755 44.3832 42.0685 45.01 41.2445 45.4446C42.0558 43.7983 42.4894 41.9917 42.5137 40.1565V9.44285C42.4536 7.26016 41.8424 5.12813 40.7369 3.24513C41.7409 4.06048 42.5723 5.06782 43.1825 6.20826C43.7927 7.3487 44.1694 8.59934 44.2905 9.88706ZM37.0775 48.5329H55.9879C54.0187 46.1439 52.9022 43.1666 52.815 40.0719V9.44285C52.9191 6.38341 54.035 3.44489 55.9879 1.08757H37.0775C39.0524 3.47324 40.1697 6.45261 40.2504 9.54862V40.1565C40.1446 43.222 39.0292 46.1667 37.0775 48.5329ZM135.226 41.0449C135.113 41.965 134.782 42.8447 134.259 43.6103C133.737 44.3759 133.038 45.0049 132.222 45.4446C132.999 43.788 133.417 41.9859 133.449 40.1565V9.44285C133.4 7.20026 132.758 5.01067 131.587 3.09707C133.605 4.85379 134.901 7.29509 135.226 9.95052V41.0449ZM184.004 9.44285C184.109 6.37992 185.233 3.43963 187.198 1.08757H169.091C171.055 3.4777 172.165 6.45577 172.243 9.54862V36.2644L142.968 6.88339V5.19118L170.466 32.6896V29.8551L141.698 1.08757H128.013C130 3.46789 131.125 6.44911 131.207 9.54862V40.1565C131.117 43.2544 129.992 46.233 128.013 48.6175H146.119C144.161 46.2241 143.052 43.2481 142.968 40.1565V20.2518L172.179 49.4636H187.198C185.218 47.0791 184.094 44.1005 184.004 41.0026V9.44285ZM94.253 2.44133H94.7184C77.7963 3.22398 64.6817 13.4407 64.6817 25.9842C64.6711 28.7398 65.2465 31.4661 66.3697 33.9824C67.4929 36.4987 69.1383 38.7475 71.1967 40.5795C68.719 38.8227 66.6813 36.5166 65.2428 33.8415C63.8044 31.1665 63.0042 28.1949 62.9048 25.1593C62.9048 12.5946 76.929 2.44133 94.253 2.44133ZM111.175 25.1381C111.175 33.2396 102.714 39.7969 92.1378 39.7969C81.5615 39.7969 73.1004 33.2396 73.1004 25.1381C73.1004 17.0366 81.5615 10.5005 92.1378 10.5005C102.714 10.5005 111.112 17.0578 111.112 25.1381H111.175ZM92.1378 49.7175C109.441 49.7175 123.507 38.7181 123.507 25.1381C123.507 11.5581 109.335 0.537598 92.032 0.537598C74.7292 0.537598 60.6627 11.5581 60.6627 25.1381C60.6627 38.7181 74.6869 49.7175 92.032 49.7175H92.1378Z" fill="white"/>
</g>
<defs>
<clipPath id="clip0_2192_3087">
<rect width="186.651" height="66.377" fill="white" transform="translate(0.546875 0.537598)"/>
</clipPath>
</defs>
</svg>
