<svg width="273" height="95" viewBox="0 0 273 95" fill="none" xmlns="http://www.w3.org/2000/svg">
<g clip-path="url(#clip0_2121_522)">
<path d="M24.5968 70.0926H12.179L10.1831 75.9557H0.917969L13.642 42.5126H23.1339L35.8693 75.9557H26.5928L24.5968 70.0926ZM22.3288 63.4925L18.3936 52.4015L14.5265 63.5379L22.3288 63.4925Z" fill="#9B0000"/>
<path d="M39.6797 42.5126H52.5398C54.7502 42.4964 56.9372 42.9648 58.9471 43.8848C60.9043 44.7726 62.6806 46.0145 64.1864 47.5478C65.6858 49.0834 66.8823 50.8877 67.7133 52.8665C68.5514 54.8769 68.983 57.0334 68.983 59.2115C68.983 61.3896 68.5514 63.5461 67.7133 65.5565C66.0675 69.5883 62.9381 72.8354 58.9698 74.6288C56.9459 75.5561 54.7433 76.0283 52.5171 76.0124H39.6797V42.5126ZM48.3778 68.5957H50.3737C51.7485 68.6229 53.1155 68.3841 54.3996 67.8926C55.5243 67.4614 56.5447 66.7966 57.3935 65.942C58.2171 65.1013 58.8546 64.0967 59.2647 62.9935C59.694 61.7854 59.9052 60.5105 59.8884 59.2285C59.9012 57.9586 59.6781 56.6973 59.2306 55.5088C58.8183 54.3867 58.1694 53.3665 57.3281 52.5173C56.4867 51.6681 55.4725 51.0098 54.3542 50.5871C53.0817 50.0954 51.7265 49.8528 50.3624 49.8726H48.3778V68.5957Z" fill="#9B0000"/>
<path d="M78.8372 42.5126L86.9116 62.8688L95.0314 42.5126H104.478L90.3705 75.9557H83.4528L69.3906 42.5126H78.8372Z" fill="#9B0000"/>
<path d="M125.81 70.0926H113.392L111.396 75.9103H102.131L114.855 42.4673H124.347L137.071 75.9103H127.806L125.81 70.0926ZM123.542 63.4925L119.641 52.3562L115.728 63.4925H123.542Z" fill="#9B0000"/>
<path d="M140.893 75.9557V42.5126H149.579L165.637 62.9595V42.5126H174.29V75.9557H165.637L149.579 55.5088V75.9557H140.893Z" fill="#9B0000"/>
<path d="M193.978 49.8726V75.9557H185.28V49.8726H178.146V42.5126H201.122V49.8726H193.978Z" fill="#9B0000"/>
<path d="M213.665 42.5126H204.979V75.9557H213.665V42.5126Z" fill="#9B0000"/>
<path d="M239.069 51.0747C238.219 50.3592 237.262 49.7814 236.233 49.3623C235.361 49.0097 234.43 48.8213 233.489 48.8066C232.507 48.7696 231.54 49.0521 230.733 49.6118C230.4 49.8446 230.129 50.1555 229.943 50.5172C229.757 50.8789 229.662 51.2805 229.667 51.6871C229.646 52.2258 229.837 52.7513 230.2 53.15C230.6 53.5659 231.073 53.9042 231.595 54.148C232.226 54.4523 232.882 54.699 233.557 54.8851C234.272 55.0892 234.997 55.316 235.7 55.5542C238.09 56.2151 240.249 57.5264 241.938 59.3419C243.306 61.115 243.994 63.3197 243.877 65.5565C243.898 67.149 243.601 68.7298 243.004 70.2061C242.45 71.5742 241.588 72.7965 240.486 73.7783C239.291 74.8004 237.903 75.5718 236.404 76.0464C234.636 76.6247 232.785 76.9044 230.926 76.8743C226.707 76.879 222.593 75.558 219.166 73.0979L222.897 66.0895C224.04 67.143 225.341 68.0116 226.753 68.6638C227.937 69.2116 229.224 69.5016 230.529 69.5143C231.669 69.5995 232.799 69.2511 233.693 68.539C234.019 68.2578 234.281 67.9098 234.461 67.5184C234.641 67.1271 234.735 66.7017 234.736 66.2709C234.746 65.8224 234.657 65.3772 234.476 64.9668C234.266 64.5577 233.958 64.207 233.58 63.9461C233.083 63.5861 232.542 63.2925 231.969 63.0729C231.304 62.8159 230.499 62.521 229.554 62.1884C228.42 61.8368 227.286 61.4399 226.242 61.0543C225.195 60.6444 224.222 60.066 223.362 59.3419C222.498 58.6012 221.802 57.685 221.321 56.6542C220.76 55.3645 220.497 53.9655 220.55 52.5603C220.523 51.0094 220.8 49.4684 221.366 48.0241C221.87 46.7242 222.643 45.5455 223.634 44.5653C224.677 43.5642 225.916 42.7918 227.274 42.2972C228.817 41.7476 230.445 41.4787 232.083 41.5034C233.836 41.5156 235.58 41.7441 237.277 42.1838C239.085 42.6743 240.829 43.3786 242.471 44.2818L239.069 51.0747Z" fill="#9B0000"/>
<path d="M61.3281 82.6919H66.0004C66.9171 82.6253 67.825 82.909 68.5407 83.4857C68.8394 83.7792 69.0711 84.1339 69.2199 84.5254C69.3687 84.9169 69.431 85.336 69.4025 85.7538C69.4197 86.2688 69.3065 86.7798 69.0737 87.2394C68.835 87.6544 68.4906 87.9987 68.0757 88.2374C68.4701 88.3116 68.8519 88.4414 69.2097 88.623C69.5066 88.781 69.7689 88.997 69.9809 89.258C70.1697 89.5147 70.3117 89.8026 70.4005 90.1086C70.4887 90.4376 70.5306 90.7773 70.5252 91.1179C70.5398 91.6289 70.439 92.1367 70.2304 92.6035C70.0471 93.0411 69.7635 93.4296 69.4025 93.7375C69.0169 94.0429 68.5732 94.2667 68.0984 94.3953C67.5328 94.5472 66.9488 94.6197 66.3633 94.6107H61.3281V82.6919ZM64.4241 87.3528H65.0024C65.9777 87.3528 66.4767 86.9786 66.4767 86.2188C66.4767 85.459 65.9777 85.0847 65.0024 85.0847H64.4241V87.3528ZM64.4241 92.1725H65.1158C65.6949 92.2167 66.2757 92.1153 66.8056 91.8777C66.9752 91.7832 67.1144 91.6424 67.2068 91.4717C67.2992 91.3009 67.341 91.1074 67.3272 90.9137C67.3415 90.7215 67.2999 90.5293 67.2073 90.3603C67.1148 90.1912 66.9752 90.0526 66.8056 89.9611C66.277 89.7186 65.6959 89.6133 65.1158 89.6549H64.4241V92.1725Z" fill="#9B0000"/>
<path d="M80.4138 85.3115H76.6714V87.2961H80.1983V89.9044H76.6714V91.9571H80.4138V94.5654H73.4961V82.6919H80.4138V85.3115Z" fill="#9B0000"/>
<path d="M86.7083 88.8724L82.2969 82.6919H86.0506L88.3187 85.9353L90.5867 82.6919H94.3404L89.9177 88.8724V94.5427H86.7083V88.8724Z" fill="#9B0000"/>
<path d="M95.0431 88.6343C95.0373 87.7883 95.2073 86.9504 95.5421 86.1734C95.8585 85.4214 96.3255 84.7422 96.9143 84.1775C97.5219 83.5991 98.2391 83.1479 99.0236 82.8507C100.764 82.2003 102.681 82.2003 104.422 82.8507C105.21 83.148 105.93 83.599 106.542 84.1775C107.135 84.7417 107.605 85.4209 107.926 86.1734C108.427 87.3302 108.563 88.6124 108.316 89.8486C108.068 91.0847 107.45 92.216 106.542 93.0911C105.93 93.6696 105.21 94.1206 104.422 94.4179C102.681 95.0683 100.764 95.0683 99.0236 94.4179C98.2391 94.1207 97.5219 93.6695 96.9143 93.0911C96.3184 92.5125 95.8456 91.8194 95.524 91.0536C95.2025 90.2878 95.0389 89.4649 95.0431 88.6343ZM98.3318 88.6343C98.3265 89.0837 98.4194 89.5288 98.604 89.9385C98.7864 90.3307 99.0447 90.683 99.3639 90.9749C99.6831 91.2669 100.057 91.4928 100.464 91.6395C100.878 91.8075 101.321 91.8923 101.768 91.889C102.215 91.8941 102.659 91.8093 103.072 91.6395C103.494 91.4951 103.88 91.2633 104.206 90.9591C104.522 90.6643 104.777 90.3097 104.955 89.9158C105.134 89.5043 105.226 89.0604 105.226 88.6116C105.226 88.1629 105.134 87.7189 104.955 87.3075C104.593 86.5133 103.933 85.8938 103.118 85.5837C102.704 85.414 102.26 85.3291 101.813 85.3342C101.366 85.3309 100.923 85.4157 100.509 85.5837C100.088 85.7296 99.702 85.9613 99.3752 86.2642C99.0551 86.5655 98.8004 86.9293 98.6268 87.3331C98.4532 87.7369 98.3644 88.1721 98.3659 88.6116L98.3318 88.6343Z" fill="#9B0000"/>
<path d="M111.578 94.5654V82.6919H114.719L120.514 89.9611V82.6919H123.644V94.5654H120.514L114.719 87.3075V94.5654H111.578Z" fill="#9B0000"/>
<path d="M127.297 82.6919H131.946C132.728 82.6964 133.5 82.8624 134.215 83.1795C134.92 83.4952 135.562 83.9372 136.108 84.4837C136.648 85.0287 137.079 85.6714 137.379 86.3775C137.686 87.0941 137.845 87.8658 137.845 88.6456C137.845 89.4255 137.686 90.1971 137.379 90.9137C136.769 92.3432 135.637 93.4867 134.215 94.1117C133.502 94.4334 132.729 94.5996 131.946 94.5994H127.297V82.6919ZM130.438 91.957H131.164C131.659 91.9679 132.152 91.8832 132.616 91.7076C133.039 91.5604 133.425 91.3246 133.75 91.0158C134.044 90.7152 134.272 90.3558 134.419 89.9611C134.577 89.5371 134.654 89.0869 134.645 88.6343C134.65 88.181 134.569 87.731 134.407 87.3075C134.257 86.9121 134.025 86.5528 133.727 86.2528C133.418 85.9519 133.052 85.7166 132.65 85.561C132.19 85.3873 131.701 85.3027 131.209 85.3115H130.484L130.438 91.957Z" fill="#9B0000"/>
<path d="M150.702 82.6919V91.9571H154.479V94.5654H147.572V82.6919H150.702Z" fill="#9B0000"/>
<path d="M156.418 88.6343C156.409 87.7891 156.575 86.9512 156.906 86.1734C157.231 85.4232 157.701 84.7448 158.29 84.1775C158.897 83.5991 159.614 83.1479 160.399 82.8507C162.135 82.2001 164.049 82.2001 165.786 82.8507C166.575 83.1452 167.296 83.5966 167.906 84.1775C168.502 84.7411 168.977 85.4202 169.301 86.1734C169.806 87.3304 169.942 88.6146 169.693 89.8519C169.443 91.0892 168.82 92.22 167.906 93.0911C167.296 93.6721 166.575 94.1234 165.786 94.4179C164.049 95.0685 162.135 95.0685 160.399 94.4179C159.623 94.1281 158.913 93.6843 158.313 93.1133C157.713 92.5423 157.234 91.8558 156.906 91.0952C156.575 90.3174 156.409 89.4795 156.418 88.6343ZM159.696 88.6343C159.69 89.0837 159.783 89.5288 159.968 89.9385C160.146 90.3297 160.396 90.6837 160.705 90.9818C161.033 91.2833 161.419 91.5148 161.839 91.6622C162.253 91.832 162.696 91.9168 163.143 91.9117C164.029 91.9111 164.882 91.5794 165.536 90.9818C165.852 90.687 166.107 90.3323 166.285 89.9385C166.464 89.527 166.556 89.0831 166.556 88.6343C166.556 88.1855 166.464 87.7416 166.285 87.3301C166.11 86.9345 165.855 86.5794 165.536 86.2868C164.882 85.6892 164.029 85.3575 163.143 85.3569C162.696 85.3518 162.253 85.4366 161.839 85.6064C161.435 85.7579 161.066 85.9884 160.753 86.2844C160.439 86.5804 160.188 86.9359 160.013 87.3301C159.809 87.7354 159.697 88.1807 159.684 88.6343H159.696Z" fill="#9B0000"/>
<path d="M178.782 87.9198H185.019C185.019 88.5549 185.019 89.1219 184.94 89.6436C184.9 90.1311 184.797 90.6114 184.634 91.0725C184.43 91.6696 184.123 92.2262 183.726 92.7169C183.342 93.1869 182.882 93.5893 182.365 93.9076C181.834 94.2338 181.257 94.4784 180.653 94.6334C180.017 94.8073 179.361 94.895 178.703 94.8942C177.823 94.9038 176.949 94.746 176.128 94.4293C175.382 94.144 174.702 93.7077 174.132 93.1478C173.567 92.5822 173.123 91.9068 172.828 91.1632C172.208 89.5186 172.208 87.7046 172.828 86.06C173.116 85.3189 173.556 84.6466 174.121 84.0868C174.705 83.5275 175.395 83.0916 176.151 82.8053C176.997 82.4968 177.892 82.3431 178.793 82.3517C179.952 82.3283 181.097 82.6057 182.116 83.1568C183.106 83.7363 183.897 84.6022 184.384 85.6404L181.402 86.8538C181.189 86.2923 180.814 85.8068 180.324 85.459C179.87 85.1707 179.342 85.021 178.805 85.028C178.364 85.0244 177.927 85.1133 177.523 85.2889C177.143 85.457 176.806 85.709 176.536 86.026C176.256 86.3612 176.041 86.7458 175.901 87.16C175.737 87.6457 175.657 88.1557 175.663 88.6683C175.659 89.141 175.728 89.6115 175.867 90.0632C175.988 90.4785 176.192 90.8646 176.468 91.1972C176.738 91.5134 177.075 91.7652 177.455 91.9344C177.895 92.1101 178.365 92.195 178.839 92.1839C179.14 92.1897 179.442 92.1554 179.734 92.0818C180.013 92.0197 180.278 91.9083 180.517 91.7529C180.749 91.6034 180.944 91.4014 181.084 91.1632C181.242 90.8947 181.346 90.5982 181.39 90.29H178.805L178.782 87.9198Z" fill="#9B0000"/>
<path d="M191.268 82.6919V94.5654H188.127V82.6919H191.268Z" fill="#9B0000"/>
<path d="M201.554 85.7311C201.243 85.4787 200.895 85.276 200.522 85.1301C200.209 85.003 199.874 84.9375 199.536 84.9373C199.181 84.92 198.83 85.0196 198.538 85.2208C198.418 85.3026 198.32 85.4127 198.253 85.5412C198.186 85.6698 198.151 85.8129 198.152 85.9579C198.148 86.1499 198.217 86.3363 198.345 86.4796C198.493 86.6261 198.666 86.7451 198.855 86.8312C199.082 86.9374 199.317 87.0246 199.558 87.092C199.815 87.16 200.076 87.2394 200.341 87.3301C201.206 87.5587 201.991 88.0218 202.609 88.6683C203.106 89.2909 203.359 90.0727 203.323 90.8684C203.333 91.4363 203.225 92.0001 203.006 92.5241C202.803 93.0107 202.493 93.4449 202.099 93.7942C201.667 94.163 201.166 94.4408 200.624 94.6107C199.983 94.8145 199.313 94.914 198.64 94.9056C197.123 94.9031 195.642 94.4362 194.398 93.5674L195.748 91.0725C196.162 91.4449 196.628 91.7544 197.131 91.9911C197.565 92.1794 198.031 92.2796 198.504 92.2859C198.912 92.3152 199.317 92.1897 199.638 91.9344C199.753 91.8389 199.846 91.7195 199.911 91.5843C199.976 91.4492 200.01 91.3016 200.012 91.1519C200.016 90.9909 199.981 90.8314 199.91 90.6869C199.837 90.5404 199.728 90.4154 199.592 90.324C199.413 90.1925 199.214 90.0893 199.003 90.0178C198.765 89.9271 198.481 89.8137 198.141 89.7003C197.801 89.5869 197.336 89.4395 196.939 89.2807C196.561 89.1371 196.209 88.9342 195.895 88.6797C195.587 88.4156 195.337 88.0914 195.158 87.7271C194.962 87.269 194.869 86.7734 194.886 86.2755C194.874 85.7279 194.975 85.1838 195.181 84.6765C195.365 84.2098 195.647 83.7882 196.009 83.4404C196.389 83.0892 196.836 82.8191 197.324 82.6465C197.883 82.4552 198.469 82.3593 199.059 82.363C199.695 82.3659 200.328 82.4498 200.942 82.6125C201.593 82.773 202.221 83.0129 202.813 83.327L201.554 85.7311Z" fill="#9B0000"/>
<path d="M211.034 85.3115V94.5654H207.893V85.3115H205.318V82.6919H213.62V85.3115H211.034Z" fill="#9B0000"/>
<path d="M219.278 82.6919V94.5654H216.137V82.6919H219.278Z" fill="#9B0000"/>
<path d="M231.628 86.6611C231.309 86.2535 230.901 85.9242 230.435 85.6982C229.969 85.4722 229.458 85.3555 228.94 85.3569C228.493 85.3499 228.049 85.4348 227.636 85.6064C227.248 85.7627 226.895 85.9959 226.598 86.2922C226.302 86.5884 226.069 86.9415 225.913 87.3301C225.746 87.7407 225.661 88.1799 225.663 88.6229C225.663 89.0696 225.747 89.5122 225.913 89.9271C226.074 90.3126 226.309 90.6631 226.604 90.9591C226.897 91.2578 227.249 91.4932 227.636 91.6509C228.041 91.8242 228.477 91.913 228.918 91.9117C229.433 91.9042 229.94 91.7882 230.407 91.5713C230.874 91.3544 231.29 91.0414 231.628 90.6529V94.3045L231.311 94.4179C230.869 94.5673 230.418 94.6885 229.961 94.7808C229.554 94.861 229.14 94.9028 228.725 94.9056C227.083 94.9055 225.505 94.267 224.325 93.1251C223.737 92.552 223.261 91.8754 222.919 91.1292C222.564 90.334 222.386 89.4711 222.397 88.6003C222.386 87.7368 222.564 86.8813 222.919 86.094C223.248 85.3473 223.727 84.6758 224.325 84.1208C224.909 83.5643 225.594 83.1254 226.343 82.828C227.115 82.5195 227.939 82.3616 228.77 82.363C229.246 82.3666 229.721 82.416 230.188 82.5104C230.687 82.6253 231.177 82.7808 231.651 82.9754L231.628 86.6611Z" fill="#9B0000"/>
<path d="M241.335 85.7311C241.027 85.4813 240.683 85.2787 240.315 85.1301C239.997 85.0019 239.659 84.9364 239.317 84.9373C238.965 84.9182 238.618 85.0181 238.33 85.2208C238.204 85.3 238.101 85.4108 238.032 85.5421C237.962 85.6734 237.928 85.8207 237.933 85.9693C237.929 86.0647 237.943 86.16 237.977 86.2496C238.01 86.3392 238.06 86.4213 238.126 86.4909C238.27 86.6373 238.439 86.7564 238.625 86.8425C238.852 86.9487 239.087 87.0359 239.328 87.1033L240.11 87.3415C240.975 87.57 241.76 88.0331 242.378 88.6797C242.875 89.3023 243.129 90.084 243.093 90.8797C243.101 91.4464 242.997 92.009 242.787 92.5354C242.576 93.0203 242.263 93.4537 241.868 93.8055C241.437 94.1744 240.935 94.4521 240.394 94.6221C239.756 94.8258 239.09 94.9253 238.421 94.9169C236.9 94.9161 235.415 94.449 234.168 93.5787L235.517 91.0838C235.933 91.4595 236.403 91.7693 236.912 92.0024C237.341 92.1919 237.804 92.2922 238.273 92.2973C238.682 92.3288 239.088 92.203 239.407 91.9457C239.523 91.8502 239.616 91.7308 239.681 91.5957C239.745 91.4606 239.78 91.313 239.782 91.1632C239.784 91.0036 239.753 90.8451 239.691 90.6983C239.614 90.5513 239.501 90.4264 239.362 90.3354C239.185 90.2059 238.99 90.1027 238.784 90.0292L237.91 89.7116C237.502 89.5869 237.105 89.4508 236.776 89.292C236.398 89.151 236.045 88.9479 235.733 88.691C235.418 88.4333 235.166 88.1076 234.996 87.7384C234.791 87.2828 234.694 86.7861 234.712 86.2868C234.706 85.7398 234.806 85.1967 235.007 84.6878C235.195 84.2204 235.481 83.7988 235.846 83.4517C236.222 83.1008 236.666 82.8306 237.151 82.6579C237.713 82.4657 238.303 82.3698 238.897 82.3744C239.529 82.3765 240.158 82.4603 240.768 82.6239C241.42 82.7804 242.049 83.0205 242.639 83.3383L241.335 85.7311Z" fill="#9B0000"/>
<path d="M247.584 76.6021L272.488 0.915833L282.059 29.9701L272.51 30.0041L247.584 76.6021Z" fill="#9B0000"/>
<path d="M264.686 52.5943L280.755 52.5716L283.239 50.7345L287.729 47.4231L296.62 75.967L264.686 52.5943Z" fill="#9B0000"/>
<path d="M272.024 30.401H310.582L280.359 52.2541L264.358 52.5149L272.228 58.2532L248.924 75.0598L272.024 30.401ZM271.673 29.834L271.514 30.1402L248.413 74.7989L247.279 76.9083L249.207 75.5247L272.557 58.7522L273.192 58.2872L272.569 57.8336L266.059 53.082L280.371 52.8438H280.552L280.7 52.7417L310.922 30.9454L312.351 29.9134H310.593H272.036L271.673 29.834Z" fill="#9B0000"/>
<path d="M234.135 30.4577H263.359L257.814 47.5251L234.135 30.4577ZM232.377 29.8907L233.806 30.9227L257.485 48.0128L258.12 48.4777L258.358 47.7293L263.892 30.7186L264.142 29.9701H263.359H234.135L232.377 29.8907Z" fill="#9B0000"/>
</g>
<defs>
<clipPath id="clip0_2121_522">
<rect width="311.432" height="93.9897" fill="white" transform="translate(0.917969 0.915833)"/>
</clipPath>
</defs>
</svg>
