<svg width="242" height="66" viewBox="0 0 242 66" fill="none" xmlns="http://www.w3.org/2000/svg">
<g style="mix-blend-mode:difference">
<path d="M6.40526 60.2106L0.433594 60.1622V1.60988C0.894726 1.5776 1.35586 1.51996 1.81699 1.51996C25.7621 1.51996 49.7079 1.51074 73.6545 1.49229C74.7497 1.49229 75.1393 1.72286 75.0379 2.87569C74.9388 4.12997 75.0379 5.39808 75.0379 6.66159C74.9895 7.22878 74.9042 7.79828 74.8972 8.36547C74.7589 22.1994 74.6275 36.0334 74.4915 50.1556C74.3508 49.0904 74.2148 48.3111 74.1502 47.5364C73.7306 42.4316 73.3363 37.3246 72.9121 32.2222C72.2434 24.1523 71.5402 16.0687 70.8992 7.98965C70.8208 7.00974 70.6064 6.64314 69.5158 6.64545C48.9078 6.68234 28.3006 6.68234 7.69412 6.64545C6.64505 6.64545 6.38451 6.90599 6.38681 7.95045C6.42063 23.1402 6.42831 38.3299 6.40987 53.5196C6.40987 56.1665 6.40987 56.1203 9.04755 56.2633C16.0545 56.646 23.0614 57.0657 30.0683 57.483C38.7222 57.9948 47.3746 58.5128 56.0254 59.037C58.474 59.1846 60.9226 59.3506 63.3689 59.4981C63.1339 59.6578 62.8525 59.7348 62.5689 59.7172L21.2514 60.0745C16.3035 60.1161 11.3547 60.1614 6.40526 60.2106Z" fill="#2E2E2E"/>
<path d="M195.723 65.901C189.497 58.6819 182.917 51.8041 176.392 44.8295C176.044 45.1961 176.18 45.5558 176.173 45.8717C176.053 51.9517 176.037 58.034 176.371 64.1095C176.424 65.0525 176.321 65.5897 175.2 65.313C174.893 65.2689 174.581 65.2782 174.278 65.3407C173.86 65.3914 173.658 65.3407 173.704 64.8127C174.451 56.3071 174.575 47.7831 174.382 39.2521C174.382 38.9593 174.151 38.5189 174.642 38.3852C175.057 38.2699 175.246 38.648 175.472 38.8901C179.193 42.9081 182.913 46.9277 186.629 50.9487C188.898 53.3881 191.194 55.8045 193.482 58.2254C193.738 58.4975 194.023 58.7396 194.286 58.9886C194.634 58.758 194.501 58.4629 194.501 58.2208C194.48 52.0647 194.501 45.9063 194.196 39.7547C194.166 39.1207 194.238 38.7818 194.971 39.0123C195.513 39.1829 196.269 38.678 196.564 39.1138C196.829 39.5034 196.65 40.2205 196.61 40.7877C196.069 48.5416 196.163 56.3048 196.228 64.0749C196.228 64.6836 196.195 65.2946 196.179 65.9056L195.723 65.901Z" fill="white"/>
<path d="M142.294 65.901C139.396 62.3387 136.247 58.9955 133.136 55.6223C129.819 52.0232 126.45 48.4748 122.902 44.6681C122.842 45.8901 122.766 46.8516 122.749 47.8153C122.655 53.3628 122.77 58.9102 123.017 64.4507C123.054 65.283 122.832 65.373 122.095 65.3315C120.345 65.2116 120.345 65.2554 120.481 63.4869C121.135 55.5116 121.172 47.5179 121.089 39.5242C121.089 39.1461 120.801 38.6019 121.301 38.4059C121.802 38.21 121.993 38.761 122.274 39.0515C128.182 45.4313 134.033 51.8664 140.053 58.1355C140.339 58.4329 140.602 58.7534 140.888 59.0762C141.28 58.6819 141.119 58.3222 141.13 58.0064C141.16 52.0116 141.158 45.9939 140.876 39.9945C140.837 39.1806 140.927 38.7495 141.875 39.0169C142.138 39.0803 142.413 39.0732 142.673 38.9962C143.309 38.8256 143.364 39.1046 143.318 39.6418C142.746 48.1589 142.763 56.6875 142.931 65.2185C142.931 65.449 142.965 65.6796 142.984 65.8986L142.294 65.901Z" fill="white"/>
<path d="M212.301 65.901C211.653 65.4398 210.857 65.532 210.138 65.3384C204.484 63.8212 200.947 59.4128 200.602 53.4181C200.477 51.26 200.629 49.125 201.353 47.0798C203.126 42.0581 206.887 39.4527 211.994 38.6042C215.549 38.0117 219.015 38.4544 222.39 39.7248C223.114 39.9991 223.455 40.2551 223.093 41.0897C222.814 41.7307 222.734 42.4593 222.57 43.1302C222.167 43.174 222.037 42.8997 221.86 42.7152C216.668 37.5759 206.668 39.1876 204.773 48.0505C204.159 50.8627 204.174 53.7758 204.816 56.5815C206.709 64.7942 214.998 66.15 220.034 63.3025C220.992 62.732 221.916 62.1061 222.801 61.428C223.015 63.5469 222.748 63.9873 221.032 64.7043C219.626 65.2923 218.079 65.3476 216.665 65.8986L212.301 65.901Z" fill="white"/>
<path d="M6.40329 60.2106C11.3512 60.1645 16.3 60.1191 21.2494 60.0746L62.5738 59.7172C62.8574 59.7348 63.1388 59.6578 63.3739 59.4981C60.9276 59.3413 58.479 59.1753 56.0303 59.037C47.378 58.5159 38.7256 57.9979 30.0732 57.483C23.0663 57.0657 16.0594 56.646 9.05249 56.2633C6.42635 56.1111 6.42635 56.1572 6.42635 53.5103C6.42635 38.3206 6.41866 23.1309 6.40329 7.94123C6.40329 6.89677 6.66152 6.63392 7.7106 6.63623C28.3171 6.66851 48.9243 6.66851 69.5323 6.63623C70.6229 6.63623 70.8373 7.00052 70.9157 7.98043C71.5567 16.0502 72.2599 24.1339 72.9285 32.2129C73.3528 37.3154 73.747 42.4224 74.1667 47.5271C74.2312 48.3065 74.3673 49.0812 74.5079 50.1464C74.644 36.0127 74.7754 22.1856 74.9137 8.35625C74.9137 7.78906 75.0059 7.21956 75.0544 6.65237C76.7029 6.65237 78.3538 6.69848 80 6.65237C80.7286 6.62931 80.9822 6.8668 80.8762 7.55619C80.8669 7.67052 80.8669 7.7854 80.8762 7.89973C80.8762 26.6386 80.8831 45.3767 80.8969 64.1141C80.8969 65.0778 80.7263 65.4052 79.6588 65.4052C55.6507 65.3714 31.6418 65.3714 7.63221 65.4052C6.56238 65.4052 6.34565 65.0825 6.40559 64.121C6.47015 62.816 6.40559 61.511 6.40329 60.2106Z" fill="white"/>
<path d="M138.169 13.5302C138.213 22.4277 131.497 28.4685 121.924 27.6754C117.015 27.2696 112.964 25.2106 110.808 20.6777C107.244 13.1843 109.867 2.65204 120.847 0.466272C123.877 -0.134937 127.016 0.141838 129.894 1.26403C135.218 3.29532 138.181 7.74063 138.169 13.5302ZM113.137 13.9682C113.077 15.4211 113.204 16.8756 113.515 18.296C114.437 22.4738 117.741 25.7525 121.656 26.3796C126.18 27.1036 130.231 25.2706 132.493 21.344C134.674 17.5651 134.817 13.4702 133.925 9.32924C133.002 5.02456 129.226 1.89578 124.868 1.6191C119.982 1.30553 115.982 3.6942 114.308 7.92048C113.572 9.8554 113.176 11.903 113.137 13.9728V13.9682Z" fill="white"/>
<path d="M145.986 65.2462C148.304 60.1114 150.584 55.0782 152.841 50.0288C154.455 46.4066 156.046 42.766 157.658 39.1391C157.798 38.8187 157.805 38.3621 158.349 38.3483C158.893 38.3345 158.916 38.8094 159.041 39.123C162.589 47.654 166.099 56.1849 169.97 64.5752C170.265 65.2139 170.064 65.2669 169.509 65.2485C168.476 65.2185 167.279 65.5643 166.454 65.1493C165.628 64.7343 165.64 63.3601 165.248 62.4217C164.351 60.2751 163.466 58.1217 162.633 55.9497C162.403 55.3272 162.117 55.0644 161.414 55.0759C158.732 55.1197 156.046 55.1128 153.364 55.0759C152.73 55.0759 152.426 55.258 152.195 55.8598C151.149 58.6058 149.996 61.3127 149.18 64.1371C148.931 64.9994 148.615 65.4721 147.623 65.2554C147.141 65.1631 146.627 65.2462 145.986 65.2462ZM157.448 43.5729C155.988 46.9761 154.656 50.0933 153.275 53.3144C156.182 53.4435 158.882 53.5611 161.699 53.2798C160.295 50.0634 158.928 46.9461 157.448 43.5637V43.5729Z" fill="white"/>
<path d="M227.685 52.0785C227.803 48.0229 227.586 43.9718 227.424 39.9231C227.394 39.1553 227.48 38.8509 228.37 38.9017C232.277 39.1095 236.193 39.1134 240.101 38.9132C240.777 38.8809 241.254 38.9132 241.069 39.7755C240.945 40.3519 241.531 41.2719 240.147 41.1451C237.438 40.9007 234.715 40.8315 231.999 40.6493C231.215 40.5963 230.957 40.8223 230.938 41.6408C230.878 44.3568 230.883 47.0706 230.908 49.7867C230.908 50.5798 231.197 50.7412 231.909 50.7089C234.397 50.566 236.889 50.4968 239.377 50.3308C240.106 50.2824 240.269 50.4346 240.214 51.1701C240.106 52.6434 240.159 52.6641 238.665 52.5166C236.329 52.286 233.989 52.3944 231.651 52.3321C231.229 52.3206 230.927 52.3321 230.908 52.9062C230.793 56.3094 230.867 59.7126 230.908 63.1134C230.908 63.6207 231.192 63.646 231.575 63.646C234.572 63.646 237.569 63.6875 240.532 63.2794C241.196 63.1872 241.21 63.3347 241.281 63.9273C241.434 65.1954 240.947 65.3407 239.792 65.3107C235.997 65.2208 232.199 65.2623 228.402 65.3222C227.604 65.3361 227.369 65.2116 227.406 64.3539C227.593 60.2613 227.807 56.1849 227.685 52.0785Z" fill="white"/>
<path d="M182.716 23.2739C182.947 25.1 182.188 26.0407 180.641 26.5986C176.521 28.0651 172.368 28.2841 168.269 26.7416C163.27 24.8602 161.008 20.8967 160.51 15.792C160.286 13.7331 160.5 11.6502 161.137 9.6797C162.906 4.35132 166.754 1.57069 172.142 0.710681C175.621 0.155017 179.011 0.6369 182.308 1.86351C182.958 2.09408 183.23 2.37537 182.951 3.10626C182.725 3.77448 182.539 4.45592 182.395 5.14677C182.036 5.19289 181.893 4.98768 181.734 4.84012C178.607 1.89118 174.934 1.21793 170.98 2.61516C167.026 4.01239 165.216 7.20804 164.434 11.0954C163.898 13.8521 164.082 16.7006 164.967 19.3658C166.758 25.0077 172.806 27.7192 178.55 25.5749C180.025 25.0239 181.323 24.1616 182.716 23.2739Z" fill="white"/>
<path d="M92.1177 52.0347C92.1615 47.979 92.1039 43.9257 91.8456 39.8793C91.7949 39.0607 92.0232 38.8578 92.8509 38.9016C96.9135 39.1322 100.978 39.0792 105.043 38.927C105.504 38.9109 106.249 38.5881 106.055 39.5887C105.929 40.2435 106.579 41.3249 104.981 41.1243C102.129 40.7646 99.2445 40.7623 96.3693 40.6516C95.59 40.6217 95.2995 40.8015 95.311 41.6362C95.3502 44.313 95.3272 46.9899 95.2787 49.6668C95.2672 50.3585 95.4263 50.5891 96.1618 50.566C98.8087 50.5222 101.465 50.5314 104.093 50.2732C104.852 50.1994 105.156 50.2225 105.182 51.2208C105.212 52.4313 104.88 52.4912 103.826 52.4174C101.303 52.2353 98.7672 52.2607 96.2379 52.15C95.4793 52.1177 95.2787 52.3552 95.2764 53.1091C95.2626 56.8581 95.3641 60.6048 95.56 64.3469C95.5992 65.0594 95.4863 65.4652 94.6608 65.2692C94.5463 65.2526 94.4303 65.2488 94.315 65.2577C93.5218 65.2392 92.3713 65.5344 92.0209 65.1332C91.5113 64.5521 91.871 63.4616 91.9332 62.5969C92.1984 59.0716 92.0762 55.5508 92.1177 52.0347Z" fill="white"/>
<path d="M92.0824 14.6023C91.9832 11.0124 92.2668 6.68926 91.9002 2.38228C91.8403 1.69058 92.0755 1.56146 92.7141 1.54532C95.617 1.47846 95.6354 1.46001 95.4486 4.27984C94.9875 11.1968 95.2019 18.1138 95.2434 25.0308C95.2434 25.7847 95.474 25.983 96.2141 25.9669C99.1262 25.9046 102.038 25.8424 104.941 25.5588C105.301 25.5242 106.078 25.2222 105.796 26.066C105.605 26.6355 106.645 27.8368 105.013 27.763C100.913 27.5809 96.8113 27.484 92.7118 27.71C91.9648 27.7515 91.7896 27.4794 91.8541 26.8015C92.1746 22.9834 92.0708 19.1514 92.0824 14.6023Z" fill="white"/>
<path d="M143.385 13.4218C143.359 10.6066 143.495 6.5878 143.219 2.58517C143.166 1.80586 143.329 1.53148 144.18 1.54071C146.825 1.56607 146.852 1.54071 146.716 4.11613C146.363 10.9985 146.46 17.8855 146.486 24.7726C146.486 25.6948 146.716 26.0061 147.696 25.9738C150.534 25.8793 153.373 25.8378 156.202 25.568C156.501 25.538 157.283 25.1876 157.055 25.9116C156.861 26.5202 158.039 27.8483 156.225 27.7561C152.163 27.5301 148.092 27.5117 144.028 27.7007C143.288 27.7422 143.119 27.4886 143.168 26.7785C143.449 22.7367 143.385 18.6787 143.385 13.4218Z" fill="white"/>
<path d="M111.417 51.6266C111.53 47.9975 111.32 43.9464 111.164 39.8954C111.136 39.1899 111.21 38.7841 112.063 39.0008C112.404 39.0559 112.75 39.0683 113.094 39.0377C114.915 39.0377 114.908 39.0377 114.827 40.8223C114.486 48.5462 114.47 56.2702 114.867 63.9942C114.915 64.9533 114.827 65.5597 113.656 65.2531C113.619 65.2508 113.581 65.2508 113.543 65.2531C112.764 65.1332 111.687 65.6589 111.279 65.0755C110.903 64.5406 111.178 63.5261 111.226 62.7261C111.431 59.1823 111.447 55.6131 111.417 51.6266Z" fill="white"/>
</g>
</svg>
