<svg width="280" height="123" viewBox="0 0 280 123" fill="none" xmlns="http://www.w3.org/2000/svg">
<g clip-path="url(#clip0_2192_3113)">
<path d="M28.5663 33.6398C28.5663 36.106 27.975 37.2598 26.403 37.9665C24.8309 38.6732 22.3647 38.7454 18.8456 38.7454C18.4722 37.2342 17.8999 35.7792 17.1437 34.4186C19.5379 34.5484 22.4079 34.5196 23.1579 34.5196C23.9079 34.5196 24.254 34.2455 24.254 33.5244V28.6064H9.61522C8.86226 32.5541 6.83577 36.146 3.84624 38.8319C2.92771 37.7381 1.87082 36.7685 0.702148 35.9474C5.86539 31.5485 6.34133 25.0152 6.34133 19.8087V8.50146H28.5663V33.6398ZM24.2396 24.6835V20.5009H10.5383C10.5383 21.799 10.4373 23.2412 10.2931 24.6835H24.2396ZM10.5383 12.4676V16.6069H24.254V12.4676H10.5383Z" fill="white"/>
<path d="M68.0836 34.736C68.9057 34.736 69.0355 34.2168 69.1797 31.3467C70.3172 32.0068 71.5472 32.4929 72.8286 32.7889C72.4248 37.058 71.3575 38.2406 68.473 38.2406H65.0405C61.2762 38.2406 60.4253 37.1013 60.4253 33.6831V30.8996H53.69C52.8968 34.9667 50.8055 37.433 44.0414 38.8031C43.5111 37.5316 42.7591 36.3644 41.8203 35.3561C48.8873 34.2312 49.5796 32.1832 49.8248 27.6257H64.7664V33.6831C64.7664 34.635 64.9395 34.7792 65.7904 34.7792L68.0836 34.736ZM72.6699 12.8427H41.878V9.52552H55.2188C54.987 8.78556 54.6927 8.06665 54.339 7.37658L58.4638 6.51123C59.0438 7.45028 59.527 8.44571 59.9061 9.48226H72.6988L72.6699 12.8427ZM68.2567 29.5006V26.0104H46.1182V29.5872H42.2963V22.9528H72.2805V29.515L68.2567 29.5006ZM68.0115 14.2849V21.4962H46.7384V14.2849H68.0115ZM63.6848 16.9531H50.8055V18.8713H63.6992L63.6848 16.9531Z" fill="white"/>
<path d="M87.6977 23.3857C86.2555 22.3905 83.371 20.7752 81.3086 19.6791L83.5296 16.6792C85.4046 17.6022 88.4477 19.0733 89.9621 19.9964L87.6977 23.3857ZM82.2316 35.688C84.6193 32.2479 86.7685 28.6483 88.664 24.9144L91.6783 27.6547C89.8611 31.217 87.6977 35.1111 85.6498 38.4283L82.2316 35.688ZM113.615 12.8428H111.12V33.6689C111.12 36.1639 110.543 37.361 108.942 37.9956C107.341 38.6302 104.731 38.7167 100.938 38.7167C100.609 37.2109 100.08 35.7558 99.3655 34.39C102.063 34.5631 105.134 34.5342 105.928 34.5342C106.721 34.5342 107.053 34.2602 107.053 33.5102V12.8428H91.3899V11.04L89.0679 14.1409C87.6256 13.1601 84.8277 11.4439 82.8374 10.2468L85.1738 7.3623C87.3053 8.41118 89.3802 9.57139 91.3899 10.8381V8.87666H113.615V12.8428ZM96.481 29.0969V31.3468H92.8321V16.4773H104.11V29.0969H96.481ZM96.481 20.0973V25.4625H100.389V20.0973H96.481Z" fill="white"/>
<path d="M97.981 86.7719C96.9858 87.6517 99.7838 90.8391 100.346 90.8391C100.909 90.8391 105.336 87.8103 108.221 86.2383C108.654 86.0075 109.057 85.8056 109.389 85.6614C110.168 85.3008 110.831 84.9691 111.682 84.6807C114.629 83.7712 117.734 83.4863 120.797 83.8442C127.72 84.2191 133.46 86.7287 136.835 86.7287C140.21 86.7287 138.825 84.9114 142.128 84.9114C145.431 84.9114 144.868 85.6037 148.315 86.469C151.762 87.3344 151.618 86.7287 155.786 86.844C159.954 86.9594 163.271 85.4018 167.324 85.4018C171.377 85.4018 170.555 87.4498 174.377 87.7671C178.199 88.0844 179.915 85.7191 182.843 85.2143C185.77 84.7095 186.535 85.647 191.265 85.647H197.741L194.857 88.5315L190.198 88.1565C187.703 87.9546 185.078 87.7238 183.16 87.5075C178.17 86.945 179.107 88.4449 176.857 89.2237C175.866 89.5988 174.804 89.7506 173.747 89.6683C172.69 89.5861 171.664 89.2718 170.742 88.7478C168.435 87.695 167.757 86.2527 162.637 87.6373C158.409 88.7714 154.022 89.1906 149.657 88.8776C145.171 88.7478 145.431 85.7912 140.21 87.4354C134.989 89.0795 132.595 88.719 127.951 87.2767C123.884 86.0075 119.413 86.1085 113.932 87.0027L111.495 87.4354C110.923 87.5518 110.359 87.706 109.807 87.8969C104.154 89.8728 100.505 95.6273 101.154 96.3196C101.803 97.0119 104.038 97.0696 107.485 94.387C109.225 93.0688 111.143 92.0052 113.182 91.2285C114.624 90.666 115.894 90.2477 116.932 89.9449L118.028 89.6276C120.148 89.0218 126.35 90.0026 127.576 90.9112C128.802 91.8198 138.71 91.041 141.407 90.3775C144.224 89.9372 147.103 90.1143 149.844 90.8967C153.259 91.3356 156.711 91.4129 160.142 91.1275C162.94 90.9689 162.853 90.3343 166.214 90.3775C168.101 90.3561 169.982 90.5841 171.81 91.0554C174.535 91.5313 174.607 90.6516 178.372 91.2861C182.136 91.9207 180.924 91.3727 184.516 90.8102C185.529 90.6774 186.552 90.6291 187.573 90.666C189.14 90.6955 190.705 90.8062 192.261 90.9977L190.631 92.613H185.612L184.025 92.339C181.588 91.9352 175.718 94.6177 173.367 93.1466C171.016 91.6756 165.06 91.1275 161.166 92.0217C156.32 92.81 151.388 92.9168 146.513 92.339C143.628 91.8486 142.518 91.1275 139.114 91.5313C135.71 91.9352 133.345 94.3004 128.773 92.9736C124.201 91.6467 126.451 91.6034 120.393 91.2861C119.707 91.2266 119.017 91.2266 118.331 91.2861C117.003 91.4279 115.719 91.8507 114.567 92.5265C112.663 93.6226 111.365 95.0648 109.605 95.6273C106.505 96.5936 106.346 102.045 101.788 101.8C97.231 101.555 97.0147 103.473 97.0147 103.473C97.7214 103.473 97.2021 105.305 97.2021 105.305C95.5868 104.858 94.5773 106.92 94.5773 106.92C95.3993 106.92 95.0532 108.362 95.0532 108.362C95.0532 109.978 87.9718 114.059 87.9718 114.059C87.741 115.343 85.0873 115.646 85.0873 115.646C83.2124 117.766 82.5922 116.857 81.3807 116.857C80.1692 116.857 80.7173 115.891 80.7173 115.891C80.7173 115.891 79.1885 115.891 78.1501 115.891C77.1117 115.891 77.2415 113.814 77.2415 113.814L76.2752 114.117C75.2944 114.434 75.2944 112.675 75.2944 112.675C74.9145 112.592 74.5607 112.417 74.264 112.165C73.9674 111.914 73.7368 111.594 73.5926 111.232C73.1167 110.05 75.0348 109.314 75.0348 109.314C74.7897 108.29 75.5829 108.045 76.304 108.045C77.0251 108.045 76.5492 107.007 76.304 106.819C75.3399 106.84 74.4065 107.162 73.6359 107.742C72.5974 108.406 71.5013 107.252 71.5013 107.252C71.5013 107.252 70.7658 106.891 69.5543 108.103C68.3428 109.314 66.0929 107.555 66.0929 107.555C65.4151 109.386 62.5594 108.362 62.5594 108.362C59.8913 109.401 59.4009 106.459 59.4009 106.459C56.8481 107.742 56.5164 105.608 56.5164 105.608C52.7377 105.968 53.2858 102.723 53.2858 102.723C52.3772 101.454 54.1367 99.507 54.1367 99.507C53.967 99.3886 53.827 99.2326 53.7277 99.0512C53.6283 98.8698 53.5722 98.6679 53.5638 98.4612C53.5555 98.2545 53.595 98.0486 53.6794 97.8598C53.7637 97.6709 53.8906 97.5041 54.0502 97.3724L54.2232 96.334C54.4251 95.2956 56.9058 96.0311 56.9058 96.0311C58.4346 95.2379 59.3432 97.2426 60.7422 97.4734C62.1412 97.7041 62.0691 96.983 62.0691 96.983C63.295 94.7331 65.7324 96.4927 65.7324 96.4927C66.2371 96.2984 66.7803 96.2246 67.3186 96.2772C67.8569 96.3298 68.3755 96.5073 68.8332 96.7955C70.6504 97.7763 68.8332 99.68 68.8332 99.68C65.3141 98.6416 65.0112 102.348 65.0112 102.348C66.7708 101.742 68.3572 104.353 68.3572 104.353C69.7995 103.199 71.2417 104.108 72.4244 104.18C73.607 104.252 74.1406 105.204 75.2223 105.117C76.304 105.031 76.3761 104.483 77.1694 104.353C77.9626 104.223 78.6981 105.636 78.6116 104.887C78.5251 104.137 78.9866 103.747 79.9529 103.444C80.9192 103.141 79.4048 102.406 79.4048 102.406C79.4048 102.406 79.102 103.199 77.9626 102.839C76.8232 102.478 77.2847 101.555 77.2847 101.555C77.2847 101.555 76.1886 101.742 75.5829 99.9685C74.9771 98.1945 78.3808 97.2426 78.3808 97.2426C77.2847 95.3533 79.5346 95.8004 82.5778 95.6562C85.6209 95.5119 83.6162 98.6993 83.6162 98.6993C80.8759 98.8868 81.424 100.646 81.972 101.584C82.5201 102.521 86.5295 101.584 86.5295 101.584C86.9045 100.603 89.9909 99.8675 89.9909 99.8675C89.0246 99.0166 90.3082 97.5022 90.3082 97.5022C89.9994 97.22 89.7604 96.8698 89.6102 96.4793C89.46 96.0889 89.4027 95.6688 89.4429 95.2523C87.1353 95.4975 88.116 92.5121 88.116 92.5121C87.7554 91.5458 85.8084 93.363 85.8084 93.363C85.1882 94.0985 83.0681 93.911 83.0681 93.911C82.8006 94.1547 82.464 94.3092 82.1049 94.3531C81.7457 94.397 81.3818 94.3282 81.0634 94.1562C80.7834 94.3843 80.428 94.4989 80.0674 94.4776C79.7069 94.4562 79.3676 94.3004 79.1164 94.0408C77.9626 95.0071 77.3424 93.9687 77.3424 93.9687C76.0733 94.7043 75.5829 94.0408 75.5829 94.0408C75.0348 93.3053 74.0685 94.2716 74.0685 94.2716C73.507 94.5093 72.8899 94.5839 72.2879 94.487C71.6859 94.39 71.1234 94.1255 70.6648 93.7235C70.1731 93.9159 69.6348 93.9555 69.1202 93.8372C68.6056 93.7188 68.1386 93.448 67.7803 93.0601C66.2083 93.8534 65.7179 92.4544 65.7179 92.4544C64.5064 92.9447 63.2805 91.4736 63.2805 91.4736C62.8315 91.5601 62.3679 91.5328 61.9321 91.3943C61.4963 91.2557 61.1021 91.0103 60.7854 90.6804C60.6124 91.0554 59.7615 92.0217 59.0259 91.4736C58.2904 90.9256 57.8721 91.3006 57.8721 91.3006C56.0405 92.7428 55.204 91.6034 55.204 91.6034C54.8179 91.7201 54.411 91.7506 54.0119 91.6927C53.6128 91.6349 53.2313 91.4901 52.8943 91.2686C52.5573 91.0472 52.273 90.7544 52.0615 90.411C51.8501 90.0677 51.7166 89.6821 51.6705 89.2814C50.3869 89.6853 49.3629 89.2814 49.3629 87.4642C49.3629 85.647 48.8725 86.671 48.3966 85.5893C47.9206 84.5076 49.4783 84.0605 49.4783 84.0605C48.6273 83.5124 48.5119 82.6183 49.2908 82.2288C50.0696 81.8394 49.2908 80.902 49.2908 80.902C49.1265 80.8458 48.977 80.7532 48.8534 80.6312C48.7299 80.5091 48.6355 80.3608 48.5773 80.1972C48.519 80.0336 48.4985 79.859 48.5171 79.6864C48.5358 79.5137 48.5932 79.3475 48.685 79.2001C46.4495 79.3732 47.4735 77.2964 47.4735 77.2964C47.4735 77.2964 48.2668 77.181 47.286 76.6474C46.3053 76.1137 47.5889 75.3638 47.5889 75.3638C47.5889 75.3638 47.113 75.3638 46.8678 74.6282C46.6226 73.8927 47.7187 74.0802 47.7187 74.0802C47.6803 73.8703 47.6889 73.6544 47.7439 73.4483C47.799 73.2421 47.8991 73.0507 48.0371 72.8879C48.175 72.7251 48.3474 72.595 48.5418 72.5068C48.7361 72.4187 48.9476 72.3748 49.161 72.3783C48.8581 71.2245 50.6753 70.8063 50.6753 70.8063C50.1994 69.465 52.0166 68.9746 52.0166 68.9746C51.8113 68.831 51.6437 68.64 51.5279 68.4178C51.4122 68.1956 51.3517 67.9488 51.3517 67.6982C51.3517 67.4477 51.4122 67.2008 51.5279 66.9786C51.6437 66.7564 51.8113 66.5654 52.0166 66.4218C52.0166 63.8114 55.3049 64.6046 55.3049 64.6046C56.1154 64.0654 57.072 63.7884 58.0452 63.8114C59.747 63.8114 62.3719 66.9122 62.3719 66.9122C62.5656 66.6948 62.8004 66.5179 63.0628 66.3916C63.3252 66.2654 63.61 66.1923 63.9007 66.1767C64.8093 66.1767 65.0545 67.7487 65.0545 67.7487C66.2083 66.2199 67.0015 67.7487 67.0015 67.7487C68.5736 68.1093 70.16 70.8063 70.16 73.7196C70.16 76.6329 66.1506 76.157 66.1506 76.157C66.1506 76.157 65.6602 73.7196 64.319 74.9455C63.3952 75.6917 62.2315 76.0762 61.0451 76.0272C60.9719 76.3474 60.9869 76.6815 61.0885 76.9938C61.1901 77.3062 61.3744 77.5852 61.622 77.8012C61.6844 77.8592 61.7342 77.9295 61.7683 78.0077C61.8024 78.0858 61.82 78.1702 61.82 78.2555C61.82 78.3407 61.8024 78.4251 61.7683 78.5033C61.7342 78.5814 61.6844 78.6517 61.622 78.7098C61.2785 79.014 60.9777 79.3633 60.7278 79.7482C60.6765 79.8248 60.6438 79.9123 60.6323 80.0038C60.6209 80.0952 60.631 80.1881 60.6618 80.275C60.6926 80.3619 60.7433 80.4403 60.8099 80.5041C60.8764 80.5679 60.957 80.6153 61.0451 80.6424C61.3959 80.7817 61.7042 81.0104 61.9393 81.3058C62.2313 81.6458 62.5833 81.9294 62.9777 82.1423C63.0253 82.1721 63.0647 82.2136 63.0919 82.2628C63.1192 82.312 63.1335 82.3673 63.1335 82.4236C63.1335 82.4798 63.1192 82.5351 63.0919 82.5843C63.0647 82.6335 63.0253 82.675 62.9777 82.7048C62.069 83.3682 62.5738 84.9547 62.5738 84.9547C64.0161 85.1999 64.1026 87.3777 64.1026 87.3777C64.4371 87.2296 64.7986 87.1522 65.1644 87.1505C65.5302 87.1488 65.8924 87.2227 66.2283 87.3676C66.5641 87.5125 66.8664 87.7253 67.1161 87.9926C67.3659 88.2599 67.5576 88.5759 67.6794 88.9209C69.2947 88.1132 70.3043 89.9737 70.3043 89.9737C70.8327 89.6985 71.4448 89.6303 72.0209 89.7823C72.597 89.9343 73.0957 90.2957 73.4195 90.7958C73.9891 90.3935 74.6693 90.1775 75.3666 90.1775C76.0639 90.1775 76.744 90.3935 77.3136 90.7958C78.3664 89.2526 80.9769 90.7958 80.9769 90.7958C81.1211 89.8151 84.6979 89.3535 84.6979 89.3535C83.7316 87.9113 82.996 88.5892 76.7511 87.0459C70.5062 85.5027 71.559 80.8155 71.559 80.8155C71.559 80.8155 70.6793 81.1327 70.3475 79.3732C70.2496 78.9135 70.3175 78.434 70.5392 78.0195C70.761 77.6051 71.1222 77.2825 71.559 77.1089C71.7321 74.9311 74.1695 75.0753 74.1695 75.0753C74.1695 75.0753 72.857 73.8638 74.6454 70.2149C76.4338 66.5661 81.4528 69.4506 81.4528 69.4506C81.4528 69.4506 83.8902 67.1718 85.5055 67.7487C86.0145 68.0018 86.4517 68.3788 86.7768 68.845C87.1019 69.3113 87.3045 69.8518 87.366 70.4169C88.0478 70.5772 88.6872 70.8821 89.241 71.3111C90.2073 72.0466 90.9428 74.5561 88.5919 76.8204C86.2411 79.0848 82.5057 78.2627 82.5057 78.2627C82.0107 78.7318 81.4004 79.0617 80.7368 79.2187C80.0731 79.3758 79.3797 79.3544 78.727 79.1569C78.727 79.1569 78.727 86.3681 87.2362 86.3681C93.7408 86.3681 97.6204 82.3587 102.538 80.5991C103.924 80.0901 105.389 79.8312 106.865 79.8347H107.413C115.014 80.1809 120.033 79.5319 123.509 80.5414C126.985 81.551 129.061 82.3154 132.58 81.825C136.1 81.3347 137.253 80.2386 141.768 80.2386C146.282 80.2386 146.325 80.3828 147.94 80.9597C149.705 81.9999 151.76 82.4402 153.796 82.2144C157.445 81.9981 160.142 79.7482 162.969 79.777C165.388 79.605 167.814 80.0052 170.05 80.9453C173.425 82.2 175.819 82.5317 177.535 82.099C179.251 81.6664 181.862 79.2146 186.708 80.3684C191.035 81.45 190.501 82.849 195.52 82.7769H197.236L201.678 81.7241L198.203 85.1855C196.598 85.2558 194.991 85.1834 193.4 84.9691C192.98 84.9177 192.565 84.8308 192.16 84.7095C188.785 83.7721 187.285 81.9692 185.049 81.9692C182.814 81.9692 181.112 83.974 177.377 84.349C173.641 84.7239 170.872 82.7192 166.545 82.0414C162.219 81.3635 159.68 82.9067 157.185 83.9163C154.69 84.9258 151.762 84.2913 146.772 82.474C141.782 80.6568 138.119 82.9067 135.609 83.5413C131.784 84.0163 127.9 83.6521 124.23 82.474C120.783 81.3491 116.341 81.8539 110.73 82.0414C110.248 82.0586 109.766 82.102 109.288 82.1712C107.91 82.3717 106.553 82.7 105.235 83.1519C102.65 83.989 100.204 85.2092 97.981 86.7719Z" fill="white"/>
<path d="M174.925 0.742188H130.345L114.48 16.6069V21.6259L131.787 4.31896H173.425L202.89 33.7408V75.364L195.462 82.7771L193.342 84.9116L190.14 88.1134L187.617 90.6518L185.655 92.6132H190.674L198.159 85.128L201.621 81.6666L206.452 76.8351V32.2552L174.925 0.742188ZM131.816 104.8L111.625 84.6088L109.13 82.0993L106.793 79.7628L102.322 75.2918V56.9898H98.7598V76.8351L102.51 80.5849L105.077 83.1521L108.163 86.2385L109.75 87.825L113.182 91.2287L114.538 92.5844L130.345 108.363H139.143V104.8H131.816Z" fill="white"/>
<path d="M183.853 42.5675C183.855 47.0701 182.848 51.5159 180.905 55.5781C178.963 59.6402 176.135 63.2153 172.629 66.0405C169.123 68.8658 165.028 70.8693 160.646 71.9037C156.264 72.9382 151.706 72.9773 147.306 72.0181C150.604 71.049 153.626 69.3114 156.122 66.948C158.618 64.5846 160.518 61.6628 161.666 58.4226C162.814 55.1824 163.177 51.7161 162.725 48.3084C162.273 44.9007 161.019 41.6488 159.067 38.8197C157.114 35.9905 154.518 33.6648 151.493 32.0336C148.467 30.4023 145.097 29.5121 141.661 29.4359C138.224 29.3596 134.818 30.0997 131.723 31.5952C128.628 33.0907 125.932 35.299 123.855 38.0388C124.909 30.4432 128.818 23.5347 134.787 18.72C140.755 13.9054 148.335 11.5465 155.981 12.1236C163.628 12.7008 170.767 16.1707 175.945 21.8267C181.123 27.4827 183.951 34.8997 183.853 42.5675Z" fill="white"/>
<path d="M140.758 67.5328L143.844 67.2299L142.215 69.8692L143.455 72.7104L140.441 71.9749L138.119 74.0373L137.902 70.9365L135.22 69.3788L138.09 68.1962L138.753 65.1675L140.758 67.5328Z" fill="white"/>
<path d="M135.941 61.6773L137.239 61.5475L136.561 62.658L137.081 63.8551L135.811 63.5522L134.831 64.4175L134.744 63.1195L133.619 62.4561L134.816 61.9657L135.105 60.6821L135.941 61.6773Z" fill="white"/>
<path d="M129.653 61.7489L130.85 61.6336L130.216 62.6576L130.691 63.7537L129.538 63.4652L128.644 64.2585L128.543 63.0614L127.519 62.4557L128.629 62.0086L128.874 60.8403L129.653 61.7489Z" fill="white"/>
<path d="M127.202 55.6918L129.134 55.5043L128.125 57.1629L128.903 58.9368L127.014 58.4753L125.557 59.7589L125.413 57.8263L123.74 56.8456L125.543 56.11L125.961 54.2207L127.202 55.6918Z" fill="white"/>
<path d="M124.101 42.8556L126.033 42.6681L125.009 44.3123L125.788 46.1007L123.899 45.6392L122.442 46.9228L122.312 44.9902L120.625 44.0094L122.428 43.2739L122.846 41.3701L124.101 42.8556Z" fill="white"/>
<path d="M157.777 100.574V108.045H156.565V107.137H151.979V112.314H150.753V107.137H146.181V108.132H145.013V100.574H150.782V97.6899H152.008V100.574H157.777ZM150.753 106.026V101.699H146.181V106.026H150.753ZM156.522 106.026V101.699H151.979V106.026H156.522Z" fill="white"/>
<path d="M177.94 101.844C178.329 107.238 179.584 111.117 181.171 111.117C181.603 111.117 181.791 110.238 181.892 108.117C182.199 108.397 182.556 108.617 182.944 108.766C182.743 111.536 182.295 112.343 181.07 112.343C178.474 112.343 177.147 107.757 176.743 101.844H168.493V100.704H176.642C176.642 99.7524 176.642 98.7861 176.642 97.8198H177.882C177.882 98.815 177.882 99.7669 177.882 100.704H182.613V101.844H177.94ZM173.051 109.762C174.176 109.516 175.315 109.3 176.469 109.04L176.57 110.079C173.873 110.728 170.945 111.406 168.911 111.853L168.551 110.685L171.882 110.021V105.377H168.998V104.238H175.993V105.377H173.007L173.051 109.762ZM181.127 100.502C180.441 99.7593 179.677 99.0921 178.848 98.5121L179.656 97.8631C180.486 98.4093 181.254 99.0427 181.949 99.7524L181.127 100.502Z" fill="white"/>
<path d="M194.986 105.046C194.183 104.398 193.307 103.847 192.376 103.401L193.039 102.579C193.97 102.983 194.847 103.502 195.65 104.123L194.986 105.046ZM192.837 111.406C193.677 109.726 194.414 107.997 195.044 106.228L195.953 106.906C195.376 108.565 194.511 110.569 193.89 112.055L192.837 111.406ZM193.948 97.9497C194.924 98.3768 195.848 98.9139 196.703 99.5506L195.996 100.459C195.144 99.7992 194.214 99.247 193.227 98.8151L193.948 97.9497ZM198.837 100.618C198.365 101.572 197.789 102.472 197.121 103.3C196.793 103.056 196.446 102.839 196.083 102.651C197.317 101.222 198.232 99.5453 198.765 97.7334L199.933 98.0218C199.76 98.5266 199.544 99.0314 199.342 99.4641H206.64V100.546L198.837 100.618ZM205.731 106.502C205.731 107.483 205.587 108.305 205.529 108.954H206.597V110.021H205.385C205.333 110.587 205.145 111.131 204.837 111.608C204.712 111.781 204.547 111.923 204.356 112.021C204.166 112.119 203.955 112.17 203.741 112.17C203.068 112.212 202.394 112.212 201.722 112.17C201.684 111.818 201.581 111.476 201.419 111.161C202.241 111.161 202.991 111.247 203.279 111.247C203.389 111.263 203.502 111.249 203.605 111.209C203.709 111.169 203.8 111.102 203.871 111.016C204.065 110.727 204.189 110.396 204.231 110.05H197.164C197.366 109.098 197.568 107.844 197.741 106.531H196.299V105.449H197.929C198.073 104.31 198.217 103.171 198.318 102.176H205.948C205.948 102.176 205.948 102.594 205.948 102.738C205.948 103.748 205.861 104.642 205.818 105.449H207.087V106.531L205.731 106.502ZM204.39 108.954C204.476 108.319 204.549 107.512 204.621 106.502H198.852C198.736 107.382 198.606 108.219 198.491 108.954H204.39ZM199.299 103.185C199.198 103.892 199.097 104.627 199.01 105.406H202.356C201.866 104.718 201.272 104.11 200.597 103.603L201.159 103.142C201.838 103.637 202.445 104.225 202.962 104.887L202.299 105.363H204.563C204.563 104.685 204.563 103.921 204.678 103.142L199.299 103.185ZM200.871 106.531C201.599 107.08 202.249 107.726 202.803 108.449L202.068 108.94C201.522 108.21 200.893 107.547 200.193 106.964L200.871 106.531Z" fill="white"/>
<path d="M217.255 103.373C217.023 103.091 216.739 102.856 216.419 102.68C217.564 101.225 218.376 99.5363 218.799 97.7334L219.909 97.8777C219.794 98.2815 219.664 98.7142 219.505 99.1612H221.51H221.712L222.419 99.6228C222.083 100.374 221.697 101.101 221.265 101.801H223.342V107.945H217.457V103.142L217.255 103.373ZM216.419 111.795C217.143 110.859 217.557 109.719 217.602 108.536L218.467 108.752C218.43 110.028 217.991 111.26 217.212 112.271L216.419 111.795ZM219.159 100.055C218.914 100.589 218.654 101.152 218.352 101.685H220.154C220.482 101.168 220.762 100.623 220.991 100.055H219.159ZM219.909 104.267V102.724H218.467V104.324L219.909 104.267ZM218.467 105.19V106.848H219.909V105.248L218.467 105.19ZM219.909 108.55C220.091 109.5 220.169 110.468 220.14 111.435L219.275 111.55C219.31 110.585 219.247 109.618 219.087 108.666L219.909 108.55ZM221.351 108.55C221.72 109.437 221.973 110.368 222.101 111.319L221.279 111.521C221.167 110.562 220.929 109.621 220.573 108.723L221.351 108.55ZM222.332 102.709H220.89V104.31H222.332V102.709ZM222.332 105.233H220.89V106.892H222.332V105.233ZM222.895 108.276C223.432 109.187 223.867 110.155 224.193 111.161L223.385 111.492C223.074 110.49 222.659 109.523 222.145 108.608L222.895 108.276ZM231.13 108.276H227.798V112.329H226.644V108.247H223.616V107.209H226.644V105.002H224.092V103.95H226.616V101.887H223.731V100.834H225.26C225.001 99.884 224.638 98.9651 224.178 98.094L225.13 97.7623C225.643 98.6401 226.041 99.5806 226.313 100.56L225.62 100.834H228.62L227.87 100.589C228.359 99.6674 228.76 98.7016 229.067 97.7046L230.264 98.0219C229.817 98.9593 229.298 100.084 228.822 100.805H230.683V101.858H227.712V103.921H230.394V104.973H227.712V107.18H231.043L231.13 108.276Z" fill="white"/>
<path d="M247.471 100.387C246.083 102.542 243.928 104.089 241.442 104.714C241.289 104.419 241.089 104.151 240.851 103.92C241.783 103.67 242.684 103.312 243.533 102.853C243.081 102.478 242.598 102.141 242.091 101.844C241.833 102.051 241.563 102.243 241.283 102.421C241.102 102.17 240.871 101.959 240.605 101.8C241.608 101.244 242.456 100.445 243.072 99.4784L244.038 99.637C244.038 99.7524 243.894 99.8678 243.836 99.9687H244.139V97.6611H245.163V98.4255H247.932V99.2188H245.149V99.9687H246.591H246.778L247.471 100.387ZM248.826 102.32C248.709 102.456 248.584 102.586 248.451 102.709C250.528 104.093 252.847 105.072 255.288 105.593C255.029 105.865 254.802 106.165 254.61 106.488C253.806 106.266 253.016 105.996 252.244 105.68V109.199H244.831V110.973L248.321 110.468C248.301 110.776 248.301 111.084 248.321 111.391C246.73 111.529 245.156 111.819 243.62 112.257C243.536 111.943 243.399 111.645 243.216 111.377C243.382 111.273 243.516 111.125 243.603 110.949C243.689 110.773 243.725 110.577 243.706 110.382V105.882C242.931 106.212 242.136 106.496 241.327 106.733C241.139 106.403 240.911 106.098 240.649 105.824C243.385 105.217 245.888 103.835 247.86 101.844L248.826 102.32ZM243.245 100.791C243.081 101 242.898 101.194 242.697 101.368C243.257 101.67 243.793 102.017 244.298 102.406C244.966 101.975 245.552 101.428 246.028 100.791H243.245ZM251.812 105.579C251.163 105.305 250.499 104.959 249.879 104.642V105.031H246.072V104.584C245.503 104.933 244.915 105.251 244.312 105.536L251.812 105.579ZM251.105 106.315H244.831V107.093H251.105V106.315ZM251.105 108.478V107.67H244.831V108.478H251.105ZM249.345 104.339C248.843 104.028 248.362 103.686 247.903 103.315C247.489 103.691 247.045 104.033 246.576 104.339H249.345ZM253.889 109.199C253.32 109.713 252.723 110.195 252.1 110.641C252.966 110.987 253.744 111.319 254.321 111.608L253.73 112.372C251.794 111.408 249.782 110.602 247.716 109.963L248.278 109.3C249.187 109.574 250.211 109.92 251.163 110.295C251.835 109.786 252.475 109.237 253.081 108.651L253.889 109.199ZM249.201 99.7957C249.955 100.128 250.692 100.499 251.408 100.906C251.984 100.461 252.473 99.9133 252.85 99.2909H248.523V98.4111H253.398H253.571L254.249 98.714C253.829 99.7861 253.151 100.738 252.273 101.483C253.016 101.901 253.721 102.383 254.379 102.925L253.629 103.69C252.961 103.077 252.231 102.536 251.451 102.074C250.816 102.491 250.133 102.83 249.418 103.084C249.248 102.778 249.045 102.493 248.812 102.233C249.407 102.065 249.975 101.812 250.499 101.483C249.85 101.094 249.144 100.733 248.509 100.43L249.201 99.7957Z" fill="white"/>
<path d="M266.853 99.8823V103.906C266.986 106.781 266.53 109.652 265.512 112.343C265.242 112.088 264.936 111.875 264.604 111.709C265.513 109.223 265.91 106.578 265.772 103.935V98.916H271.829C271.669 98.5983 271.476 98.2985 271.252 98.0218L272.262 97.6035C272.595 98.0101 272.885 98.4499 273.127 98.916H279.141V99.8823H266.853ZM270.488 108.031L269.19 108.247V109.214H270.257V109.949H269.19V110.901L270.372 110.771V111.521C269.161 111.68 267.978 111.838 266.969 111.925L266.853 111.117L268.296 110.959V109.949H267.171V109.214H268.296V108.334C267.906 108.334 267.474 108.406 267.099 108.406C267.048 108.161 266.965 107.923 266.853 107.699C267.88 107.623 268.901 107.483 269.911 107.281L270.488 108.031ZM271.714 101.613V112.358H270.791V106.589H267.142V105.767H268.079V101.613H267.358V100.791H272.493V101.613H271.714ZM270.791 101.613H268.945V102.493H270.747L270.791 101.613ZM268.945 104.122H270.747V103.142H268.945V104.122ZM270.747 105.81V104.8H268.945V105.81H270.747ZM271.988 111.406C272.401 110.674 272.652 109.863 272.723 109.026L273.517 109.242C273.45 110.143 273.19 111.019 272.752 111.81L271.988 111.406ZM279.199 107.728H272.291V106.863H279.199V107.728ZM276.156 100.329V101.296H279.04V102.175H276.156V103.055H278.795V106.098H272.695V103.055H275.132V102.175H272.565V101.296H275.132V100.329H276.156ZM274.468 103.805H273.488V105.348H274.468V103.805ZM276.343 111.42C276.646 111.42 276.704 111.319 276.733 110.353C276.979 110.512 277.253 110.625 277.54 110.685C277.44 111.925 277.18 112.257 276.459 112.257H275.089C274.137 112.257 273.892 112.012 273.892 111.103V108.911H274.786V111.103C274.786 111.391 274.786 111.42 275.204 111.42H276.343ZM275.94 110.065C275.572 109.357 275.111 108.703 274.569 108.117L275.276 107.728C275.854 108.277 276.341 108.915 276.718 109.617L275.94 110.065ZM276.228 103.805H275.19V105.348H276.228V103.805ZM276.949 105.348H277.988V103.805H276.949V105.348ZM277.988 108.81C278.59 109.574 279.031 110.452 279.286 111.391L278.449 111.723C278.188 110.783 277.758 109.898 277.18 109.113L277.988 108.81Z" fill="white"/>
<path d="M10.7833 53.86L9.34106 50.6149C8.8507 49.5477 8.37476 48.4515 7.89882 47.3554C7.74017 47.0093 7.59594 46.6632 7.45172 46.3026C7.3075 45.942 7.16327 45.5959 7.03347 45.2498L6.61522 44.1681C6.62274 44.2881 6.62274 44.4086 6.61522 44.5286V44.8892C6.61522 45.2786 6.61522 45.7401 6.61522 46.3314C6.61522 46.9228 6.61522 47.4708 6.61522 48.091C6.61522 48.7112 6.61522 49.3313 6.61522 49.9515C6.61522 50.5716 6.61522 51.163 6.61522 51.711C6.61522 51.9418 6.61522 52.187 6.61522 52.4177C6.61522 52.6485 6.61522 52.8792 6.61522 53.0812H7.22096H7.8267V53.7879H4.49512V53.2542C4.75863 53.2757 5.02074 53.1986 5.23066 53.0379C5.39458 52.8998 5.49808 52.7031 5.51911 52.4898C5.56471 52.2518 5.59362 52.0108 5.60565 51.7687L5.90852 44.37C5.90852 44.1537 5.90852 43.9373 5.90852 43.721C5.90852 43.5046 5.90852 43.3027 5.90852 43.0864H5.3172H4.7403V42.3797H7.27865L10.0622 48.7833C10.2064 49.1006 10.3506 49.4323 10.4804 49.7496C10.6102 50.0669 10.7545 50.3986 10.8987 50.7303L11.3314 51.711L11.7496 50.6726C11.9227 50.2688 12.0525 49.9082 12.1679 49.6198C12.6294 48.4371 13.1342 47.2401 13.6101 46.043C14.086 44.8459 14.6341 43.62 15.1389 42.3364H17.533V42.8701C17.301 42.8558 17.07 42.911 16.8696 43.0287C16.68 43.164 16.5466 43.3641 16.4946 43.5912C16.4144 43.936 16.3853 44.2907 16.4081 44.644L16.8407 52.0283C16.8407 52.2014 16.8407 52.3889 16.8407 52.5619V53.0235H17.4321H18.0234V53.7302H14.4755V53.1965C14.6039 53.2104 14.7339 53.198 14.8575 53.1601C14.981 53.1221 15.0955 53.0594 15.194 52.9757C15.2925 52.892 15.373 52.7892 15.4305 52.6734C15.4879 52.5576 15.5212 52.4314 15.5283 52.3023C15.5586 51.9617 15.5586 51.619 15.5283 51.2783L15.211 45.9276C15.211 45.7401 15.211 45.5815 15.211 45.4084V44.8892V44.37C15.211 44.4421 15.211 44.5142 15.11 44.6008C15.0091 44.6873 15.11 44.7882 14.9947 44.8892L11.2592 53.86H10.7833Z" fill="white"/>
<path d="M25.0903 53.9468C24.183 53.9703 23.2817 53.793 22.451 53.4276C21.7496 53.0943 21.1369 52.6001 20.6626 51.9853C20.2079 51.4155 19.8653 50.7646 19.653 50.0671C19.4375 49.3859 19.3256 48.676 19.3213 47.9615C19.3249 47.2598 19.4418 46.5634 19.6674 45.899C19.902 45.2141 20.2533 44.5749 20.7058 44.0097C21.1854 43.4058 21.7907 42.9136 22.4798 42.5675C23.2511 42.1894 24.1017 42.0014 24.9605 42.0194C25.8518 42.0002 26.7355 42.1878 27.5421 42.5675C28.2429 42.9017 28.8554 43.3957 29.3305 44.0097C30.2266 45.143 30.714 46.5455 30.714 47.9903C30.714 49.4351 30.2266 50.8376 29.3305 51.9709C28.8561 52.5742 28.2556 53.0664 27.5709 53.4131C26.7975 53.7837 25.9476 53.9665 25.0903 53.9468ZM25.0903 53.2833C25.7002 53.2981 26.303 53.1487 26.8354 52.8507C27.333 52.5741 27.758 52.1837 28.0757 51.7113C28.4078 51.2149 28.6608 50.67 28.8257 50.096C29.0002 49.525 29.0972 48.9332 29.1141 48.3364C29.1161 47.6635 29.0239 46.9935 28.8401 46.3461C28.6856 45.7053 28.4326 45.0922 28.0901 44.5289C27.747 44.0054 27.2943 43.5625 26.7633 43.2309C26.2291 42.8919 25.6075 42.7164 24.9749 42.7261C24.3585 42.7109 23.7497 42.8656 23.2154 43.1732C22.7174 43.4556 22.2926 43.8508 21.975 44.327C21.6366 44.8145 21.383 45.3558 21.2251 45.9279C21.0239 46.5091 20.9073 47.1163 20.8789 47.7307C20.884 48.3595 20.9712 48.985 21.1385 49.5912C21.2966 50.2332 21.5546 50.8464 21.9029 51.4084C22.2353 51.9514 22.6835 52.4143 23.2154 52.7641C23.8094 53.1383 24.5045 53.3197 25.2056 53.2833H25.0903Z" fill="white"/>
<path d="M37.9697 53.9468C37.0527 53.9746 36.1412 53.7972 35.3015 53.4276C34.5978 53.0981 33.9842 52.6033 33.5132 51.9853C33.0533 51.4166 32.7058 50.7657 32.4892 50.0671C32.2783 49.3852 32.1713 48.6753 32.1719 47.9615C32.1775 47.2612 32.2893 46.5658 32.5036 45.899C32.7462 45.2087 33.1128 44.5684 33.5853 44.0097C34.0448 43.4091 34.6307 42.9167 35.3015 42.5675C36.0728 42.1894 36.9234 42.0014 37.7822 42.0194C38.6735 42.0002 39.5572 42.1878 40.3638 42.5675C41.0621 42.9057 41.6738 43.399 42.1522 44.0097C42.6159 44.5804 42.9726 45.2303 43.2051 45.9279C43.6567 47.2608 43.6567 48.7054 43.2051 50.0383C42.9727 50.7404 42.6161 51.395 42.1522 51.9709C41.6846 52.5807 41.0824 53.0743 40.3927 53.4132C39.638 53.7784 38.808 53.9612 37.9697 53.9468ZM37.9697 53.2833C38.5842 53.2979 39.1916 53.1486 39.7292 52.8507C40.224 52.5703 40.6483 52.1806 40.9696 51.7113C41.3037 51.218 41.5523 50.6719 41.7051 50.096C41.8863 49.5266 41.9835 48.9339 41.9936 48.3364C41.9955 47.6635 41.9033 46.9935 41.7195 46.3461C41.5394 45.7091 41.2673 45.1018 40.9119 44.5433C40.5636 44.024 40.1119 43.5821 39.585 43.2453C39.0502 42.9079 38.429 42.7325 37.7966 42.7405C37.18 42.7238 36.5709 42.8786 36.0371 43.1876C35.5379 43.4737 35.1091 43.8679 34.7823 44.3414C34.4495 44.8322 34.1964 45.3725 34.0324 45.9423C33.8977 46.5285 33.8396 47.1296 33.8593 47.7307C33.8664 48.3584 33.9488 48.983 34.1045 49.5912C34.2739 50.2317 34.5363 50.844 34.8833 51.4084C35.2126 51.9538 35.6614 52.4173 36.1957 52.7641C36.7352 53.1048 37.3605 53.2849 37.9985 53.2833H37.9697Z" fill="white"/>
<path d="M53.9348 53.9468L47.4735 45.2934L47.1851 44.904L46.9111 44.529V51.4662V52.2738C46.9111 52.5479 46.9111 52.8075 46.9111 53.0671H47.488H48.0793V53.7738H45.1082V53.2401C45.3675 53.2637 45.6259 53.1862 45.8294 53.0238C45.9692 52.8789 46.0686 52.6999 46.1178 52.5046C46.1369 52.3272 46.1369 52.1483 46.1178 51.971V42.9858H45.5842H45.0361V42.2646H46.9687L53.0406 50.4133L53.4588 50.9614L53.8627 51.5094V44.154C53.8627 43.9377 53.8627 43.7357 53.8627 43.5338C53.8627 43.3319 53.8627 43.1588 53.8627 42.9858H53.2858H52.6945V42.2646H55.6799V42.7983C55.5304 42.7876 55.3804 42.8077 55.239 42.8573C55.0976 42.9069 54.9679 42.985 54.8578 43.0867C54.6957 43.2806 54.6086 43.5263 54.6126 43.779C54.6126 44.0675 54.6126 44.4136 54.6126 44.803V53.8747L53.9348 53.9468Z" fill="white"/>
<path d="M61.6942 53.687V53.1534C61.9977 53.1716 62.2968 53.0736 62.5307 52.8794C62.6991 52.6825 62.7912 52.4317 62.7903 52.1726C62.7903 51.8842 62.7903 51.5381 62.7903 51.1631V44.1538C62.7903 43.9374 62.7903 43.7355 62.7903 43.5336C62.7903 43.3317 62.7903 43.1586 62.7903 42.9855H62.199H61.6221V42.2644H63.4681C64.0883 42.2644 64.7085 42.2644 65.3286 42.2644C66.19 42.2435 67.0485 42.3704 67.867 42.6394C68.4374 42.8097 68.9412 43.1522 69.3092 43.6201C69.6179 44.0796 69.7743 44.6245 69.7563 45.1778C69.7629 45.6165 69.6845 46.0524 69.5256 46.4614C69.3295 46.9232 69.0163 47.3258 68.617 47.6296C68.0535 48.0275 67.4078 48.2937 66.7276 48.4084C66.9502 48.5688 67.141 48.7693 67.2901 48.9997L67.8382 49.8218L68.9487 51.5525C69.1362 51.8554 69.3092 52.115 69.4823 52.3457C69.6438 52.5686 69.8502 52.7553 70.088 52.8938C70.3398 53.0446 70.6317 53.1151 70.9246 53.0957V53.6293H68.9343C68.6482 53.3763 68.3874 53.0962 68.1554 52.7928C67.9391 52.5044 67.7228 52.1871 67.492 51.8409L66.4103 50.0958C66.2661 49.8795 66.1075 49.6055 65.9344 49.317C65.7715 49.0379 65.5672 48.785 65.3286 48.567H64.2181V52.4611C64.2181 52.6822 64.2181 52.8553 64.2181 52.9803H64.6075H64.9969H65.3863V53.687H61.6942ZM65.2277 48.019C65.7589 48.0064 66.2848 47.909 66.7853 47.7305C67.2225 47.5751 67.5972 47.2815 67.8526 46.894C68.1233 46.4629 68.2589 45.9606 68.242 45.4518C68.2502 45.0837 68.1916 44.7172 68.0689 44.3701C67.9612 44.0765 67.7829 43.814 67.5497 43.6057C67.2825 43.3899 66.9729 43.2327 66.6411 43.1442C66.2172 43.0346 65.7808 42.9813 65.3431 42.9855C65.0429 42.9547 64.7426 43.0428 64.5066 43.2307C64.3378 43.4159 64.2451 43.658 64.247 43.9086C64.247 44.1826 64.247 44.5287 64.247 44.9182V48.0334H64.7517L65.2277 48.019Z" fill="white"/>
<path d="M75.5257 42.8704C75.3741 42.8611 75.2222 42.8817 75.0787 42.9312C74.9351 42.9807 74.8028 43.0581 74.6892 43.1588C74.5229 43.3513 74.4309 43.5968 74.4296 43.8511C74.4296 44.1396 74.4296 44.4857 74.4296 44.8751V52.519C74.4296 52.7402 74.4296 52.9132 74.4296 53.0382H75.0065H75.5978V53.7449H71.8768V53.2113C72.1803 53.2295 72.4794 53.1315 72.7133 52.9373C72.8817 52.7404 72.9738 52.4896 72.9729 52.2306C72.9729 51.9421 72.9729 51.596 72.9729 51.221V44.154C72.9729 43.9377 72.9729 43.7357 72.9729 43.5338C72.9729 43.3319 72.9729 43.1588 72.9729 42.9858H72.3816H71.8047V42.2646H75.4536L75.5257 42.8704Z" fill="white"/>
<path d="M81.6407 53.8603L77.963 45.2068C77.7628 44.7724 77.5941 44.3241 77.4582 43.8655C77.3693 43.5826 77.3018 43.2933 77.2563 43.0002H76.3477V42.2791H80.1119V42.8415C79.5639 42.8415 79.2466 43.029 79.1312 43.3319C79.044 43.7577 79.105 44.2004 79.3043 44.5867C79.5639 45.2212 79.809 45.8414 80.0398 46.4327L80.833 48.3653L81.5974 50.1105C81.8426 50.6585 82.0301 51.1345 82.1599 51.5527C82.2753 51.1777 82.4051 50.8172 82.5205 50.471L82.9676 49.2307C83.2993 48.3221 83.5589 47.5577 83.7896 46.9375C84.0204 46.3174 84.1935 45.7693 84.3665 45.3222C84.5396 44.8751 84.655 44.5001 84.7704 44.1973L85.03 43.4761L85.2319 42.9858H84.6261H83.9916V42.2646H87.2799V42.7983C86.8837 42.8024 86.4994 42.9339 86.1838 43.1733C85.8653 43.5258 85.6289 43.9444 85.4915 44.3992L85.4194 44.6155L85.2607 45.0626C85.1742 45.2645 85.0732 45.5674 84.929 45.9568C84.7848 46.3462 84.5973 46.8943 84.3521 47.5577C84.1069 48.2211 83.8041 49.072 83.4291 50.0816L82.0734 53.7882L81.6407 53.8603Z" fill="white"/>
<path d="M93.5389 49.4903C93.5625 49.1372 93.4929 48.784 93.337 48.4663C93.2691 48.365 93.1795 48.2802 93.0747 48.2178C92.97 48.1554 92.8526 48.1172 92.7312 48.1057C92.357 48.0733 91.9806 48.0733 91.6063 48.1057H90.4236V51.8123C90.4236 52.1008 90.4236 52.3604 90.4236 52.5623C90.4325 52.7352 90.4325 52.9085 90.4236 53.0815H93.51C93.9346 53.0868 94.3561 53.0084 94.7504 52.8507C95.1023 52.7006 95.3888 52.4295 95.558 52.0863C95.7581 51.6324 95.8566 51.1401 95.8465 50.6441H96.3945L96.308 53.8026H87.943V53.269C88.2465 53.2872 88.5456 53.1892 88.7795 52.995C88.9438 52.7967 89.0309 52.5457 89.0247 52.2883C89.0247 51.9998 89.0247 51.6537 89.0247 51.2787V44.154C89.0247 43.9377 89.0247 43.7357 89.0247 43.5338C89.0247 43.3319 89.0247 43.1588 89.0247 42.9858H88.4333H87.8564V42.2646H95.6446L95.7311 45.1491H95.1975C95.2276 44.6515 95.1282 44.1546 94.909 43.7069C94.7385 43.3899 94.4555 43.1481 94.1158 43.029C93.7563 42.9189 93.3809 42.8702 93.0053 42.8848H91.563C91.2622 42.871 90.9647 42.9517 90.7121 43.1156C90.5294 43.2729 90.4155 43.4955 90.3948 43.7357C90.3683 44.0958 90.3683 44.4573 90.3948 44.8174V47.4135H93.4379L93.3226 45.9712H94.0437V49.4903H93.5389Z" fill="white"/>
<path d="M97.9813 53.687V53.1534C98.2848 53.1716 98.5839 53.0736 98.8178 52.8794C98.9862 52.6825 99.0783 52.4317 99.0774 52.1726C99.0774 51.8842 99.0774 51.5381 99.0774 51.1631V44.1538C99.0774 43.9374 99.0774 43.7355 99.0774 43.5336C99.0774 43.3317 99.0774 43.1586 99.0774 42.9855H98.4861H97.9092V42.2644H99.7408C100.375 42.2644 100.996 42.2644 101.616 42.2644C102.477 42.2435 103.336 42.3704 104.154 42.6394C104.725 42.8097 105.228 43.1522 105.596 43.6201C105.905 44.0796 106.061 44.6245 106.043 45.1778C106.05 45.6165 105.972 46.0524 105.813 46.4614C105.617 46.9232 105.303 47.3258 104.904 47.6296C104.341 48.0275 103.695 48.2937 103.015 48.4084C103.237 48.5688 103.428 48.7693 103.577 48.9997C103.736 49.2305 103.923 49.5045 104.125 49.8218L105.236 51.5525C105.423 51.8554 105.596 52.115 105.769 52.3457C105.931 52.5686 106.137 52.7553 106.375 52.8938C106.627 53.0446 106.919 53.1151 107.212 53.0957V53.6293H105.221C104.935 53.3763 104.674 53.0962 104.443 52.7928C104.226 52.5044 104.01 52.1871 103.779 51.8409L102.697 50.0958C102.553 49.8795 102.395 49.6055 102.221 49.317C102.059 49.0631 101.865 48.8306 101.645 48.6247H100.534V52.5188C100.534 52.7399 100.534 52.913 100.534 53.038H100.923H101.313H101.645V53.7447L97.9813 53.687ZM101.515 48.019C102.046 48.0064 102.572 47.909 103.072 47.7305C103.508 47.5715 103.881 47.2787 104.14 46.894C104.41 46.4629 104.546 45.9606 104.529 45.4518C104.537 45.0837 104.479 44.7172 104.356 44.3701C104.248 44.0765 104.07 43.814 103.837 43.6057C103.57 43.3899 103.26 43.2327 102.928 43.1442C102.504 43.0346 102.068 42.9813 101.63 42.9855C101.33 42.9547 101.03 43.0428 100.794 43.2307C100.625 43.4159 100.532 43.658 100.534 43.9086C100.534 44.1826 100.534 44.5287 100.534 44.9182V48.0334H101.024L101.515 48.019Z" fill="white"/>
<path d="M148.287 118.833C148.25 118.419 148.078 118.029 147.797 117.723C147.517 117.469 147.15 117.334 146.773 117.348C146.5 117.347 146.231 117.416 145.994 117.55C145.762 117.68 145.565 117.863 145.417 118.083C145.246 118.316 145.123 118.581 145.056 118.862C144.854 119.604 144.889 120.391 145.157 121.112C145.296 121.463 145.525 121.772 145.821 122.006C146.111 122.227 146.466 122.343 146.83 122.338C147.199 122.338 147.561 122.244 147.883 122.064C148.227 121.893 148.524 121.64 148.748 121.329L149.08 121.631C148.863 121.953 148.584 122.228 148.258 122.439C147.99 122.611 147.699 122.742 147.393 122.828C147.141 122.883 146.885 122.912 146.628 122.915C146.233 122.923 145.84 122.849 145.475 122.699C145.136 122.543 144.828 122.328 144.566 122.064C144.317 121.79 144.122 121.472 143.989 121.127C143.854 120.752 143.786 120.357 143.787 119.958C143.788 119.577 143.846 119.198 143.96 118.833C144.082 118.467 144.267 118.125 144.508 117.824C144.754 117.519 145.065 117.273 145.417 117.103C145.815 116.921 146.249 116.832 146.686 116.843C146.944 116.842 147.201 116.876 147.45 116.944C147.714 117.022 147.966 117.134 148.2 117.276V116.901H148.777V118.833H148.287Z" fill="white"/>
<path d="M149.642 122.785V122.338C149.767 122.332 149.889 122.302 150.003 122.251C150.048 122.225 150.086 122.19 150.116 122.148C150.146 122.105 150.166 122.057 150.176 122.006C150.195 121.843 150.195 121.679 150.176 121.516V118.184C150.169 118.055 150.169 117.925 150.176 117.795C150.176 117.665 150.176 117.564 150.176 117.492H149.556V116.944H151.777V117.391C151.652 117.397 151.53 117.427 151.416 117.478C151.371 117.504 151.333 117.539 151.303 117.581C151.273 117.624 151.253 117.672 151.243 117.723C151.216 117.885 151.216 118.051 151.243 118.213V119.54H153.753V118.098C153.753 117.968 153.753 117.838 153.753 117.708C153.743 117.608 153.743 117.506 153.753 117.405H153.132V116.857H155.339V117.305C155.211 117.367 155.098 117.455 155.007 117.564C154.963 117.59 154.924 117.626 154.894 117.668C154.864 117.71 154.844 117.758 154.834 117.809C154.808 117.972 154.808 118.137 154.834 118.3V122.021C154.834 122.15 154.834 122.251 154.834 122.324H155.44V122.872H153.233V122.424C153.358 122.418 153.48 122.389 153.594 122.338C153.639 122.312 153.677 122.277 153.707 122.234C153.737 122.192 153.757 122.144 153.767 122.093C153.785 121.93 153.785 121.765 153.767 121.602V120.16H151.258V121.992C151.258 122.122 151.258 122.223 151.258 122.295H151.878V122.843L149.642 122.785Z" fill="white"/>
<path d="M158.498 117.42C158.374 117.426 158.252 117.455 158.138 117.506C158.093 117.532 158.054 117.568 158.025 117.61C157.995 117.652 157.974 117.701 157.965 117.752C157.945 117.914 157.945 118.079 157.965 118.242V121.963C157.965 122.093 157.965 122.194 157.965 122.266H158.585V122.814H156.364V122.367C156.488 122.36 156.611 122.331 156.724 122.28C156.769 122.254 156.808 122.219 156.838 122.176C156.868 122.134 156.888 122.086 156.898 122.035C156.924 121.873 156.924 121.707 156.898 121.545V118.184C156.89 118.054 156.89 117.924 156.898 117.795C156.898 117.665 156.898 117.564 156.898 117.492H156.277V116.944H158.498V117.42Z" fill="white"/>
<path d="M163.82 122.886L160.936 119.136C160.936 119.05 160.806 118.963 160.748 118.862L160.532 118.588V121.891C160.542 122.006 160.542 122.122 160.532 122.237H161.152V122.785H159.335V122.338C159.45 122.357 159.567 122.357 159.681 122.338C159.76 122.286 159.821 122.21 159.854 122.122C159.88 121.984 159.88 121.842 159.854 121.703V118.242C159.854 118.112 159.854 117.982 159.854 117.867C159.854 117.752 159.854 117.636 159.854 117.564H159.335V117.016H160.532L163.272 120.55L163.575 120.939L163.806 121.256V118.228C163.799 118.098 163.799 117.968 163.806 117.838C163.806 117.708 163.806 117.607 163.806 117.535H163.186V116.987H164.974V117.434C164.85 117.441 164.727 117.47 164.614 117.521C164.569 117.547 164.53 117.582 164.5 117.625C164.47 117.667 164.45 117.715 164.441 117.766C164.414 117.928 164.414 118.094 164.441 118.256V122.901L163.82 122.886Z" fill="white"/>
<path d="M168.593 120.737C168.61 120.558 168.575 120.378 168.492 120.218C168.458 120.167 168.413 120.124 168.361 120.091C168.309 120.059 168.25 120.038 168.19 120.03C168.036 120.015 167.881 120.015 167.728 120.03H167.382V121.573C167.39 121.708 167.39 121.843 167.382 121.977C167.382 122.107 167.382 122.208 167.382 122.28H168.651C168.834 122.285 169.016 122.25 169.185 122.179C169.351 122.092 169.487 121.956 169.574 121.79C169.686 121.562 169.736 121.308 169.718 121.054H170.18V122.814H165.853V122.367C165.978 122.36 166.1 122.331 166.214 122.28C166.258 122.254 166.297 122.219 166.327 122.176C166.357 122.134 166.377 122.086 166.387 122.035C166.405 121.872 166.405 121.708 166.387 121.545V118.184C166.387 118.054 166.387 117.925 166.387 117.795C166.387 117.665 166.387 117.564 166.387 117.492H165.767V116.944H169.863V118.501H169.43C169.444 118.256 169.389 118.011 169.271 117.795C169.186 117.644 169.047 117.531 168.882 117.477C168.72 117.419 168.549 117.389 168.377 117.391H167.988C167.874 117.365 167.755 117.365 167.642 117.391C167.597 117.417 167.558 117.452 167.528 117.495C167.498 117.537 167.478 117.585 167.468 117.636C167.44 117.798 167.44 117.964 167.468 118.126V119.41H168.637V118.689H169.185V120.737H168.593Z" fill="white"/>
<path d="M174.262 118.804C174.233 118.531 174.149 118.266 174.016 118.025C173.904 117.814 173.734 117.639 173.526 117.521C173.305 117.401 173.056 117.341 172.805 117.348C172.558 117.335 172.315 117.418 172.127 117.578C172.04 117.647 171.97 117.735 171.923 117.835C171.875 117.935 171.851 118.045 171.853 118.155C171.853 118.331 171.909 118.503 172.012 118.646C172.149 118.795 172.31 118.922 172.488 119.021C172.725 119.153 172.97 119.268 173.223 119.367L173.858 119.67C174.076 119.772 174.28 119.903 174.463 120.059C174.642 120.201 174.789 120.378 174.896 120.578C175.016 120.789 175.076 121.028 175.069 121.271C175.072 121.576 174.987 121.877 174.824 122.136C174.642 122.391 174.392 122.591 174.103 122.713C173.756 122.858 173.382 122.927 173.007 122.915C172.753 122.914 172.501 122.88 172.257 122.814C172.009 122.745 171.771 122.643 171.55 122.511V122.857H170.973V120.982H171.449C171.479 121.391 171.665 121.773 171.968 122.049C172.266 122.289 172.639 122.417 173.021 122.41C173.21 122.408 173.396 122.368 173.569 122.295C173.718 122.227 173.847 122.123 173.944 121.992C174.031 121.859 174.076 121.703 174.074 121.545C174.079 121.446 174.064 121.348 174.029 121.256C173.995 121.165 173.941 121.081 173.872 121.011C173.728 120.86 173.557 120.738 173.367 120.65L172.733 120.362L172.026 120.03C171.815 119.911 171.617 119.771 171.435 119.612C171.262 119.458 171.123 119.269 171.029 119.058C170.934 118.847 170.886 118.618 170.887 118.386C170.895 118.209 170.929 118.034 170.988 117.867C171.053 117.68 171.156 117.508 171.291 117.362C171.453 117.203 171.644 117.076 171.853 116.987C172.139 116.881 172.443 116.832 172.747 116.843C172.99 116.846 173.232 116.875 173.468 116.929C173.721 116.991 173.961 117.098 174.175 117.247V116.901H174.752V118.804H174.262Z" fill="white"/>
<path d="M178.661 120.737C178.678 120.558 178.643 120.378 178.56 120.218C178.526 120.167 178.481 120.124 178.429 120.091C178.376 120.059 178.318 120.038 178.257 120.03C178.104 120.014 177.949 120.014 177.795 120.03H177.449V121.977C177.449 122.107 177.449 122.208 177.449 122.28H178.718C178.902 122.286 179.084 122.251 179.252 122.179C179.419 122.092 179.554 121.956 179.642 121.79C179.759 121.563 179.813 121.309 179.8 121.054H180.247V122.814H175.921V122.367C176.045 122.36 176.167 122.331 176.281 122.28C176.326 122.254 176.364 122.219 176.394 122.176C176.424 122.134 176.445 122.086 176.454 122.035C176.474 121.872 176.474 121.707 176.454 121.545V117.795C176.454 117.665 176.454 117.564 176.454 117.492H175.834V116.944H179.944V118.501H179.526C179.544 118.257 179.494 118.013 179.382 117.795C179.288 117.646 179.145 117.534 178.978 117.477C178.821 117.42 178.655 117.391 178.488 117.391H178.084C177.965 117.363 177.842 117.363 177.723 117.391C177.636 117.447 177.574 117.535 177.55 117.636C177.53 117.799 177.53 117.964 177.55 118.126V119.41H178.718V118.689H179.267V120.737H178.661Z" fill="white"/>
<path d="M186.521 118.805C186.485 118.533 186.402 118.269 186.275 118.026C186.163 117.815 185.993 117.64 185.785 117.521C185.564 117.401 185.315 117.342 185.064 117.348C184.817 117.335 184.574 117.418 184.386 117.579C184.299 117.647 184.229 117.735 184.182 117.835C184.134 117.935 184.11 118.045 184.112 118.156C184.112 118.332 184.168 118.503 184.271 118.646C184.408 118.796 184.569 118.922 184.747 119.021C184.984 119.153 185.229 119.269 185.482 119.367L186.117 119.67C186.335 119.772 186.539 119.903 186.723 120.059C186.897 120.205 187.043 120.381 187.155 120.578C187.275 120.789 187.335 121.029 187.328 121.271C187.331 121.577 187.246 121.877 187.083 122.136C186.901 122.392 186.651 122.592 186.362 122.713C186.015 122.858 185.642 122.927 185.266 122.915C184.758 122.91 184.26 122.77 183.824 122.511V122.857H183.247V120.982H183.723C183.722 121.182 183.763 121.379 183.842 121.562C183.922 121.745 184.039 121.91 184.185 122.045C184.331 122.181 184.504 122.284 184.693 122.35C184.881 122.415 185.081 122.441 185.28 122.425C185.469 122.427 185.656 122.388 185.828 122.309C185.983 122.245 186.118 122.141 186.218 122.006C186.304 121.873 186.349 121.718 186.348 121.559C186.353 121.461 186.338 121.363 186.303 121.271C186.268 121.179 186.215 121.096 186.146 121.026C186.001 120.875 185.83 120.753 185.641 120.665L185.006 120.377C184.764 120.28 184.528 120.17 184.3 120.045C184.087 119.929 183.888 119.789 183.708 119.627C183.539 119.484 183.401 119.307 183.304 119.107C183.208 118.884 183.159 118.644 183.16 118.401C183.171 118.023 183.314 117.66 183.564 117.377C183.726 117.218 183.917 117.09 184.126 117.002C184.412 116.895 184.716 116.846 185.021 116.857C185.263 116.86 185.505 116.889 185.742 116.944C185.991 117.002 186.227 117.11 186.434 117.261V116.915H187.011V118.819L186.521 118.805Z" fill="white"/>
<path d="M190.92 120.737C190.936 120.558 190.901 120.378 190.819 120.218C190.784 120.167 190.74 120.124 190.687 120.091C190.635 120.059 190.577 120.038 190.516 120.03C190.362 120.015 190.208 120.015 190.054 120.03H189.708V121.977C189.708 122.107 189.708 122.208 189.708 122.28H190.977C191.16 122.286 191.343 122.251 191.511 122.179C191.677 122.092 191.813 121.956 191.9 121.79C192.017 121.563 192.072 121.309 192.059 121.054H192.506V122.814H188.179V122.367C188.304 122.36 188.426 122.331 188.54 122.28C188.585 122.254 188.623 122.219 188.653 122.176C188.683 122.134 188.703 122.086 188.713 122.035C188.731 121.872 188.731 121.708 188.713 121.545V118.184C188.713 118.054 188.713 117.925 188.713 117.795C188.713 117.665 188.713 117.564 188.713 117.492H188.093V116.944H192.189V118.501H191.727C191.749 118.255 191.693 118.008 191.569 117.795C191.483 117.644 191.344 117.531 191.179 117.477C191.017 117.419 190.846 117.389 190.674 117.391H190.242C190.128 117.365 190.009 117.365 189.896 117.391C189.809 117.447 189.747 117.535 189.723 117.636C189.695 117.798 189.695 117.964 189.723 118.126V119.41H190.891V118.689H191.439V120.737H190.92Z" fill="white"/>
<path d="M192.838 122.785V122.309C192.975 122.315 193.109 122.269 193.213 122.179C193.312 122.08 193.391 121.963 193.444 121.833C193.444 121.689 193.573 121.516 193.631 121.328L195.29 116.814H195.737L197.54 121.415C197.593 121.546 197.637 121.681 197.669 121.819C197.719 121.964 197.753 122.113 197.77 122.266H198.275V122.814H196.155V122.367C196.218 122.374 196.281 122.367 196.341 122.347C196.401 122.327 196.455 122.295 196.501 122.251C196.562 122.173 196.592 122.076 196.588 121.977C196.575 121.854 196.545 121.733 196.501 121.617L196.285 121.04H194.352L194.179 121.588C194.179 121.689 194.179 121.79 194.064 121.92C194.025 122.029 193.976 122.135 193.92 122.237H194.54V122.799L192.838 122.785ZM194.54 120.521H196.112L195.65 119.295C195.65 119.107 195.52 118.92 195.463 118.732L195.319 118.199L195.203 118.631C195.147 118.837 195.079 119.039 195.001 119.237L194.54 120.521Z" fill="white"/>
<path d="M198.693 122.785V122.338C198.817 122.332 198.94 122.302 199.054 122.251C199.098 122.225 199.137 122.19 199.167 122.148C199.197 122.105 199.217 122.057 199.227 122.006C199.253 121.844 199.253 121.678 199.227 121.516V118.184C199.219 118.054 199.219 117.924 199.227 117.795C199.227 117.665 199.227 117.564 199.227 117.492H198.606V116.944H202.674V118.501H202.212C202.227 118.256 202.172 118.011 202.053 117.795C201.962 117.643 201.819 117.53 201.65 117.477C201.492 117.42 201.326 117.391 201.159 117.391H200.755C200.638 117.383 200.522 117.413 200.424 117.477C200.379 117.504 200.34 117.539 200.31 117.581C200.281 117.624 200.26 117.672 200.251 117.723C200.232 117.886 200.232 118.05 200.251 118.213V119.655H201.303V118.949H201.851V120.881H201.404C201.421 120.702 201.386 120.522 201.303 120.362C201.232 120.258 201.124 120.186 201.001 120.16C200.847 120.145 200.693 120.145 200.539 120.16H200.294V121.934C200.294 122.064 200.294 122.165 200.294 122.237H201.073V122.785H198.693Z" fill="white"/>
<path d="M206.164 122.915C205.704 122.928 205.246 122.84 204.823 122.655C204.469 122.494 204.158 122.252 203.914 121.949C203.69 121.649 203.519 121.312 203.41 120.953C203.308 120.607 203.254 120.248 203.251 119.886C203.252 119.524 203.311 119.163 203.424 118.819C203.546 118.462 203.731 118.129 203.972 117.838C204.211 117.527 204.523 117.279 204.881 117.117C205.28 116.924 205.721 116.83 206.164 116.843C206.617 116.83 207.067 116.924 207.477 117.117C207.83 117.287 208.14 117.533 208.385 117.838C208.611 118.134 208.787 118.466 208.905 118.819C209.018 119.163 209.076 119.524 209.078 119.886C209.075 120.239 209.017 120.59 208.905 120.925C208.786 121.276 208.605 121.603 208.371 121.891C208.109 122.222 207.773 122.486 207.389 122.661C207.005 122.837 206.586 122.919 206.164 122.9V122.915ZM206.236 122.41C206.511 122.414 206.782 122.339 207.015 122.194C207.231 122.051 207.409 121.858 207.534 121.631C207.667 121.385 207.769 121.124 207.837 120.852C207.972 120.24 207.972 119.605 207.837 118.992C207.775 118.685 207.658 118.392 207.491 118.127C207.345 117.893 207.148 117.696 206.914 117.55C206.667 117.414 206.389 117.344 206.107 117.348C205.835 117.351 205.57 117.431 205.342 117.579C205.125 117.731 204.943 117.927 204.809 118.156C204.672 118.398 204.575 118.661 204.52 118.934C204.452 119.203 204.418 119.479 204.419 119.756C204.425 120.052 204.459 120.347 204.52 120.636C204.589 120.937 204.696 121.228 204.837 121.502C204.97 121.764 205.169 121.988 205.414 122.151C205.655 122.319 205.942 122.409 206.236 122.41Z" fill="white"/>
<path d="M212.698 122.915C212.237 122.928 211.779 122.84 211.356 122.655C211.002 122.494 210.691 122.252 210.448 121.949C210.223 121.649 210.052 121.312 209.943 120.953C209.841 120.607 209.787 120.248 209.784 119.886C209.785 119.524 209.844 119.163 209.957 118.819C210.074 118.459 210.26 118.126 210.505 117.838C210.744 117.527 211.056 117.279 211.414 117.117C211.813 116.924 212.254 116.83 212.698 116.843C213.15 116.83 213.6 116.924 214.01 117.117C214.363 117.287 214.673 117.533 214.919 117.838C215.145 118.134 215.32 118.466 215.438 118.819C215.551 119.163 215.61 119.524 215.611 119.886C215.609 120.239 215.55 120.59 215.438 120.925C215.321 121.281 215.14 121.614 214.904 121.905C214.639 122.233 214.302 122.494 213.919 122.669C213.537 122.844 213.118 122.928 212.698 122.915ZM212.77 122.41C213.045 122.414 213.315 122.339 213.548 122.194C213.764 122.051 213.942 121.858 214.068 121.631C214.201 121.385 214.302 121.124 214.371 120.852C214.505 120.24 214.505 119.605 214.371 118.992C214.308 118.685 214.191 118.392 214.024 118.127C213.878 117.893 213.681 117.696 213.447 117.55C213.2 117.414 212.922 117.344 212.64 117.348C212.363 117.349 212.093 117.429 211.861 117.579C211.648 117.731 211.471 117.928 211.342 118.156C211.205 118.398 211.108 118.661 211.053 118.934C210.985 119.203 210.951 119.479 210.952 119.756C210.958 120.052 210.992 120.347 211.053 120.636C211.122 120.937 211.229 121.228 211.371 121.502C211.503 121.764 211.702 121.988 211.948 122.151C212.168 122.305 212.428 122.395 212.698 122.41H212.77Z" fill="white"/>
<path d="M216.188 122.338C216.313 122.331 216.435 122.302 216.549 122.251C216.593 122.225 216.632 122.19 216.662 122.147C216.692 122.105 216.712 122.057 216.722 122.006C216.748 121.844 216.748 121.678 216.722 121.516V118.184C216.715 118.054 216.715 117.924 216.722 117.795C216.722 117.665 216.722 117.564 216.722 117.492H216.102V116.944H218.467C218.956 116.932 219.445 117.005 219.909 117.16C220.287 117.299 220.635 117.509 220.933 117.78C221.194 118.047 221.405 118.36 221.553 118.703C221.685 119.064 221.754 119.444 221.755 119.828C221.756 120.187 221.693 120.544 221.568 120.881C221.443 121.235 221.246 121.559 220.991 121.833C220.722 122.14 220.38 122.373 219.996 122.511C219.537 122.694 219.047 122.783 218.553 122.77H216.231L216.188 122.338ZM217.818 121.544V121.963C217.818 122.092 217.818 122.193 217.818 122.266H218.64C218.935 122.274 219.227 122.209 219.491 122.078C219.73 121.954 219.937 121.776 220.097 121.559C220.266 121.339 220.394 121.09 220.472 120.823C220.559 120.533 220.603 120.232 220.601 119.929C220.628 119.435 220.539 118.941 220.342 118.487C220.192 118.138 219.941 117.841 219.621 117.636C219.26 117.434 218.851 117.335 218.438 117.347C218.32 117.315 218.195 117.315 218.077 117.347C218.033 117.374 217.994 117.409 217.964 117.451C217.934 117.494 217.914 117.542 217.904 117.593C217.876 117.755 217.876 117.921 217.904 118.083L217.818 121.544Z" fill="white"/>
<path d="M224.654 122.785V122.338C224.779 122.331 224.901 122.302 225.015 122.251C225.098 122.191 225.159 122.105 225.188 122.006C225.206 121.843 225.206 121.679 225.188 121.516V118.184C225.181 118.054 225.181 117.924 225.188 117.795C225.194 117.694 225.194 117.593 225.188 117.492H224.582V116.944H226.789C227.223 116.935 227.656 116.993 228.072 117.117C228.387 117.205 228.665 117.392 228.866 117.651C229.097 117.999 229.188 118.423 229.118 118.835C229.048 119.248 228.824 119.619 228.491 119.872C228.227 120.052 227.934 120.184 227.625 120.261C227.744 120.312 227.848 120.391 227.928 120.492C228.027 120.606 228.119 120.726 228.202 120.852L228.649 121.53C228.746 121.681 228.852 121.825 228.966 121.963C229.044 122.068 229.142 122.156 229.255 122.222C229.366 122.282 229.489 122.316 229.615 122.323V122.771H228.346C228.218 122.673 228.106 122.556 228.015 122.424C227.914 122.295 227.813 122.121 227.697 121.948L227.106 120.982L226.89 120.665C226.834 120.565 226.766 120.473 226.688 120.391H226.212V121.53C226.219 121.669 226.219 121.809 226.212 121.948C226.212 122.078 226.212 122.179 226.212 122.251H226.875V122.799L224.654 122.785ZM226.717 119.9C226.978 119.897 227.236 119.848 227.481 119.756C227.678 119.673 227.841 119.526 227.942 119.338C228.049 119.113 228.098 118.865 228.087 118.617C228.097 118.41 228.062 118.203 227.986 118.011C227.917 117.867 227.813 117.743 227.683 117.651C227.561 117.567 227.424 117.508 227.279 117.477H226.832C226.723 117.451 226.609 117.451 226.5 117.477C226.456 117.5 226.417 117.533 226.387 117.573C226.357 117.613 226.337 117.659 226.327 117.708C226.309 117.862 226.309 118.016 226.327 118.17V119.843H226.76L226.717 119.9Z" fill="white"/>
<path d="M233.047 120.737C233.061 120.556 233.02 120.376 232.932 120.218C232.902 120.166 232.861 120.122 232.81 120.089C232.76 120.056 232.703 120.036 232.643 120.03C232.485 120.014 232.326 120.014 232.168 120.03H231.821V121.977C231.821 122.107 231.821 122.208 231.821 122.28H233.091C233.274 122.286 233.456 122.251 233.624 122.179C233.791 122.092 233.926 121.956 234.014 121.79C234.131 121.563 234.185 121.309 234.172 121.054H234.619V122.814H230.293V122.367C230.417 122.36 230.539 122.331 230.653 122.28C230.698 122.254 230.737 122.219 230.766 122.176C230.796 122.134 230.817 122.086 230.826 122.035C230.853 121.873 230.853 121.707 230.826 121.545V118.184C230.819 118.054 230.819 117.924 230.826 117.795C230.826 117.665 230.826 117.564 230.826 117.492H230.206V116.944H234.331V118.501H233.869C233.887 118.257 233.838 118.013 233.725 117.795C233.634 117.643 233.49 117.53 233.321 117.477C233.164 117.42 232.998 117.391 232.831 117.391H232.398C232.285 117.362 232.166 117.362 232.052 117.391C231.961 117.446 231.894 117.533 231.865 117.636C231.844 117.799 231.844 117.964 231.865 118.126V119.41H233.033V118.689H233.581V120.737H233.047Z" fill="white"/>
<path d="M238.658 118.804C238.629 118.531 238.546 118.266 238.413 118.025C238.306 117.815 238.141 117.64 237.937 117.521C237.712 117.399 237.458 117.339 237.202 117.348C236.955 117.338 236.713 117.42 236.524 117.578C236.376 117.711 236.284 117.895 236.266 118.092C236.247 118.29 236.303 118.487 236.423 118.646C236.551 118.799 236.708 118.926 236.884 119.021L237.62 119.367C237.838 119.453 238.05 119.554 238.254 119.67C238.475 119.769 238.679 119.9 238.86 120.059C239.043 120.2 239.195 120.377 239.307 120.578C239.427 120.789 239.487 121.028 239.48 121.271C239.489 121.579 239.398 121.883 239.221 122.136C239.042 122.394 238.791 122.595 238.5 122.713C238.153 122.86 237.779 122.928 237.403 122.915C237.155 122.915 236.907 122.881 236.668 122.814C236.415 122.746 236.172 122.644 235.947 122.511V122.857H235.384V120.982H235.846C235.888 121.391 236.078 121.77 236.379 122.049C236.673 122.287 237.04 122.415 237.418 122.41C237.607 122.411 237.794 122.372 237.966 122.295C238.117 122.23 238.247 122.126 238.341 121.992C238.431 121.86 238.482 121.704 238.485 121.545C238.489 121.347 238.417 121.156 238.283 121.011C238.139 120.86 237.968 120.738 237.778 120.65L237.129 120.362L236.423 120.03C236.214 119.914 236.021 119.774 235.846 119.612C235.676 119.469 235.539 119.292 235.442 119.093C235.339 118.872 235.289 118.63 235.298 118.386C235.301 118.21 235.33 118.035 235.384 117.867C235.45 117.68 235.553 117.508 235.687 117.362C235.853 117.2 236.049 117.073 236.264 116.987C236.545 116.881 236.844 116.832 237.144 116.843C237.391 116.845 237.638 116.874 237.879 116.929C238.127 116.994 238.361 117.101 238.572 117.247V116.901H239.134V118.804H238.658Z" fill="white"/>
<path d="M244.586 118.804C244.591 118.545 244.552 118.286 244.471 118.04C244.4 117.857 244.281 117.697 244.124 117.578C243.952 117.473 243.749 117.427 243.548 117.449H242.985V121.545C242.985 121.703 242.985 121.833 242.985 121.963C242.995 122.064 242.995 122.165 242.985 122.266H243.663V122.814H241.399V122.367C241.519 122.361 241.636 122.331 241.745 122.28C241.833 122.221 241.899 122.135 241.932 122.035C241.95 121.872 241.95 121.708 241.932 121.545V117.449H241.384C241.242 117.445 241.101 117.472 240.972 117.53C240.842 117.587 240.727 117.673 240.634 117.78C240.437 118.084 240.346 118.444 240.375 118.804H239.913V116.973H244.889V118.804H244.586Z" fill="white"/>
<path d="M244.859 122.785V122.309C244.997 122.317 245.131 122.27 245.234 122.179C245.338 122.081 245.422 121.964 245.48 121.833L245.667 121.328L247.311 116.814H247.758L249.561 121.415L249.691 121.819C249.743 121.962 249.772 122.113 249.777 122.266H250.297V122.814H248.177V122.367C248.239 122.371 248.302 122.363 248.361 122.343C248.42 122.324 248.475 122.292 248.523 122.251C248.553 122.213 248.576 122.169 248.588 122.122C248.6 122.075 248.603 122.025 248.595 121.977C248.595 121.852 248.566 121.728 248.508 121.617L248.306 121.04H246.374L246.186 121.588C246.186 121.689 246.186 121.79 246.071 121.92L245.941 122.237H246.561V122.799L244.859 122.785ZM246.576 120.521H248.133L247.686 119.295C247.686 119.107 247.556 118.92 247.499 118.732L247.354 118.199C247.354 118.314 247.282 118.458 247.225 118.631C247.174 118.837 247.111 119.039 247.037 119.237L246.576 120.521Z" fill="white"/>
<path d="M252.475 117.42C252.355 117.428 252.238 117.457 252.129 117.506C252.045 117.551 251.979 117.622 251.941 117.708C251.923 117.847 251.923 117.988 251.941 118.126V120.348C251.937 120.643 251.966 120.938 252.028 121.227C252.085 121.45 252.183 121.66 252.316 121.847C252.433 122.006 252.586 122.135 252.763 122.222C252.965 122.301 253.181 122.34 253.398 122.338C253.688 122.367 253.98 122.297 254.226 122.14C254.472 121.983 254.658 121.748 254.753 121.472C254.876 121.135 254.935 120.778 254.926 120.42V117.795C254.926 117.665 254.926 117.564 254.926 117.492H254.321V116.944H256.109V117.391C255.99 117.399 255.872 117.428 255.763 117.477C255.716 117.503 255.675 117.538 255.643 117.58C255.611 117.622 255.588 117.671 255.575 117.723C255.557 117.886 255.557 118.05 255.575 118.213V120.247C255.588 120.637 255.534 121.027 255.417 121.4C255.333 121.705 255.18 121.987 254.97 122.222C254.771 122.444 254.525 122.617 254.249 122.727C253.94 122.842 253.612 122.896 253.282 122.886C252.889 122.9 252.497 122.837 252.129 122.698C251.839 122.584 251.585 122.395 251.393 122.15C251.214 121.894 251.086 121.605 251.018 121.299C250.94 120.934 250.901 120.562 250.903 120.189V118.314C250.903 118.17 250.903 118.011 250.903 117.852C250.903 117.694 250.903 117.578 250.903 117.492H250.297V116.944H252.504L252.475 117.42Z" fill="white"/>
<path d="M256.758 122.785V122.338C256.883 122.331 257.005 122.302 257.119 122.251C257.164 122.225 257.202 122.19 257.232 122.148C257.262 122.105 257.282 122.057 257.292 122.006C257.31 121.843 257.31 121.679 257.292 121.516V118.184C257.292 118.054 257.292 117.925 257.292 117.795C257.292 117.665 257.292 117.564 257.292 117.492H256.672V116.944H258.879C259.313 116.935 259.746 116.993 260.162 117.117C260.474 117.204 260.748 117.394 260.939 117.655C261.13 117.917 261.227 118.235 261.215 118.559C261.21 118.789 261.156 119.015 261.056 119.223C260.95 119.449 260.792 119.647 260.595 119.799C260.332 119.98 260.039 120.112 259.729 120.189C259.844 120.247 259.946 120.325 260.032 120.42C260.127 120.534 260.214 120.654 260.292 120.78L260.753 121.458C260.841 121.612 260.942 121.756 261.056 121.891C261.134 121.996 261.232 122.084 261.345 122.15C261.456 122.209 261.579 122.244 261.705 122.251V122.698H260.436C260.308 122.601 260.196 122.484 260.104 122.352C260.003 122.222 259.902 122.049 259.787 121.876L259.196 120.91L258.994 120.593C258.948 120.542 258.9 120.494 258.85 120.448H258.374V121.588C258.381 121.727 258.381 121.867 258.374 122.006C258.374 122.136 258.374 122.237 258.374 122.309H259.037V122.857L256.758 122.785ZM258.821 119.9C259.082 119.899 259.341 119.85 259.585 119.756C259.782 119.673 259.945 119.526 260.047 119.338C260.158 119.114 260.212 118.867 260.205 118.617C260.211 118.409 260.172 118.202 260.09 118.011C260.026 117.864 259.921 117.739 259.787 117.651C259.665 117.567 259.528 117.508 259.383 117.477C259.239 117.463 259.095 117.463 258.951 117.477C258.837 117.452 258.718 117.452 258.604 117.477C258.56 117.5 258.522 117.533 258.492 117.573C258.462 117.613 258.441 117.659 258.431 117.708C258.414 117.862 258.414 118.016 258.431 118.17V119.843H258.864L258.821 119.9Z" fill="white"/>
<path d="M262.008 122.785V122.309C262.145 122.317 262.28 122.27 262.383 122.179C262.487 122.084 262.566 121.965 262.614 121.833C262.614 121.689 262.743 121.516 262.815 121.328L264.46 116.814H264.921L266.724 121.415L266.854 121.819C266.906 121.962 266.935 122.113 266.94 122.266H267.503V122.814H265.383V122.367C265.447 122.372 265.513 122.365 265.575 122.345C265.636 122.325 265.694 122.293 265.743 122.251C265.762 122.208 265.772 122.161 265.772 122.114C265.772 122.067 265.762 122.02 265.743 121.977C265.737 121.853 265.707 121.731 265.657 121.617L265.455 121.04H263.522L263.335 121.588C263.335 121.689 263.263 121.79 263.219 121.92L263.089 122.237H263.71V122.799L262.008 122.785ZM263.724 120.521H265.282L264.835 119.295C264.762 119.107 264.705 118.92 264.647 118.732C264.589 118.545 264.532 118.357 264.503 118.199C264.452 118.34 264.408 118.485 264.373 118.631C264.373 118.804 264.258 119.006 264.186 119.237L263.724 120.521Z" fill="white"/>
<path d="M272.334 122.886L269.45 119.136L269.262 118.862C269.187 118.777 269.119 118.685 269.06 118.588V121.891C269.06 122.035 269.06 122.15 269.06 122.237H269.666V122.785H267.892V122.338C268.007 122.357 268.124 122.357 268.238 122.338C268.317 122.286 268.378 122.21 268.411 122.122C268.438 121.983 268.438 121.842 268.411 121.703V117.795C268.417 117.694 268.417 117.593 268.411 117.492H267.806V116.944H269.003L271.83 120.449L272.132 120.838L272.363 121.155V118.127C272.363 117.997 272.363 117.867 272.363 117.737C272.363 117.607 272.363 117.506 272.363 117.434H271.743V116.886H273.531V117.333C273.407 117.34 273.285 117.369 273.171 117.42C273.126 117.446 273.087 117.481 273.058 117.524C273.028 117.566 273.007 117.614 272.998 117.665C272.978 117.828 272.978 117.993 272.998 118.155V122.799L272.334 122.886Z" fill="white"/>
<path d="M278.579 118.804C278.591 118.544 278.552 118.285 278.464 118.04C278.403 117.852 278.282 117.689 278.118 117.578C277.945 117.472 277.742 117.426 277.541 117.449H277.036V121.963C277.036 122.093 277.036 122.194 277.036 122.266H277.714V122.814H275.435V122.367C275.559 122.36 275.682 122.331 275.796 122.28C275.839 122.253 275.877 122.217 275.907 122.175C275.936 122.133 275.957 122.085 275.969 122.035C275.986 121.872 275.986 121.708 275.969 121.545V117.449H275.435C275.293 117.445 275.152 117.472 275.022 117.53C274.893 117.587 274.777 117.673 274.685 117.78C274.488 118.084 274.397 118.444 274.425 118.804H273.964V116.973H279.041V118.804H278.579Z" fill="white"/>
</g>
<defs>
<clipPath id="clip0_2192_3113">
<rect width="278.656" height="122.173" fill="white" transform="translate(0.6875 0.742188)"/>
</clipPath>
</defs>
</svg>
