<svg width="241" height="66" viewBox="0 0 241 66" fill="none" xmlns="http://www.w3.org/2000/svg">
<g style="mix-blend-mode:difference">
<path d="M6.06834 60.2193L0.0966797 60.1708V1.61857C0.557812 1.58629 1.01894 1.52864 1.48008 1.52864C25.4251 1.52864 49.371 1.51942 73.3176 1.50098C74.4128 1.50098 74.8024 1.73154 74.701 2.88437C74.6018 4.13865 74.701 5.40677 74.701 6.67027C74.6526 7.23746 74.5673 7.80696 74.5603 8.37415C74.422 22.2081 74.2906 36.0421 74.1545 50.1643C74.0139 49.0991 73.8779 48.3197 73.8133 47.545C73.3937 42.4403 72.9994 37.3333 72.5752 32.2308C71.9065 24.161 71.2033 16.0774 70.5623 7.99833C70.4839 7.01842 70.2695 6.65182 69.1789 6.65413C48.5709 6.69102 27.9637 6.69102 7.35721 6.65413C6.30813 6.65413 6.04759 6.91467 6.0499 7.95913C6.08371 23.1488 6.0914 38.3385 6.07296 53.5282C6.07296 56.1751 6.07296 56.129 8.71063 56.272C15.7175 56.6547 22.7244 57.0743 29.7314 57.4917C38.3853 58.0035 47.0377 58.5215 55.6885 59.0457C58.1371 59.1932 60.5857 59.3593 63.032 59.5068C62.797 59.6665 62.5156 59.7435 62.232 59.7259L20.9145 60.0832C15.9666 60.1247 11.0178 60.1701 6.06834 60.2193Z" fill="#2E2E2E"/>
<path d="M195.387 65.9097C189.162 58.6906 182.581 51.8128 176.056 44.8382C175.708 45.2048 175.844 45.5645 175.837 45.8804C175.717 51.9604 175.701 58.0427 176.035 64.1182C176.088 65.0612 175.985 65.5984 174.864 65.3217C174.557 65.2776 174.245 65.2869 173.942 65.3494C173.525 65.4001 173.322 65.3494 173.368 64.8214C174.115 56.3158 174.239 47.7918 174.046 39.2608C174.046 38.968 173.815 38.5276 174.306 38.3939C174.721 38.2786 174.91 38.6567 175.136 38.8988C178.858 42.9168 182.577 46.9364 186.293 50.9574C188.562 53.3968 190.859 55.8132 193.146 58.2341C193.402 58.5062 193.688 58.7483 193.95 58.9973C194.299 58.7667 194.165 58.4716 194.165 58.2295C194.144 52.0734 194.165 45.915 193.86 39.7635C193.831 39.1294 193.902 38.7905 194.635 39.021C195.177 39.1917 195.933 38.6867 196.228 39.1225C196.494 39.5121 196.314 40.2292 196.275 40.7964C195.733 48.5503 195.827 56.3135 195.892 64.0836C195.892 64.6923 195.859 65.3033 195.843 65.9143L195.387 65.9097Z" fill="white"/>
<path d="M141.958 65.9098C139.059 62.3475 135.91 59.0043 132.799 55.6311C129.482 52.032 126.113 48.4836 122.565 44.6769C122.505 45.8989 122.429 46.8604 122.412 47.8241C122.318 53.3716 122.433 58.919 122.68 64.4595C122.717 65.2918 122.495 65.3818 121.758 65.3403C120.008 65.2204 120.008 65.2642 120.144 63.4957C120.798 55.5204 120.835 47.5267 120.752 39.533C120.752 39.1549 120.464 38.6107 120.964 38.4147C121.465 38.2188 121.656 38.7698 121.937 39.0603C127.845 45.4401 133.696 51.8752 139.716 58.1443C140.002 58.4417 140.265 58.7622 140.551 59.085C140.943 58.6907 140.782 58.331 140.793 58.0152C140.823 52.0204 140.821 46.0027 140.54 40.0033C140.5 39.1894 140.59 38.7583 141.538 39.0257C141.801 39.0891 142.076 39.082 142.336 39.005C142.972 38.8344 143.027 39.1134 142.981 39.6506C142.409 48.1677 142.426 56.6963 142.594 65.2273C142.594 65.4578 142.628 65.6884 142.647 65.9075L141.958 65.9098Z" fill="white"/>
<path d="M211.963 65.9097C211.315 65.4486 210.519 65.5408 209.8 65.3471C204.147 63.83 200.61 59.4216 200.264 53.4269C200.139 51.2688 200.291 49.1337 201.015 47.0886C202.788 42.0669 206.549 39.4615 211.656 38.613C215.211 38.0204 218.677 38.4631 222.052 39.7335C222.776 40.0079 223.117 40.2638 222.756 41.0985C222.477 41.7395 222.396 42.468 222.232 43.139C221.829 43.1828 221.699 42.9084 221.522 42.724C216.33 37.5847 206.33 39.1963 204.435 48.0593C203.821 50.8714 203.836 53.7845 204.479 56.5902C206.371 64.803 214.66 66.1587 219.696 63.3112C220.654 62.7408 221.578 62.1149 222.463 61.4367C222.677 63.5556 222.41 63.996 220.694 64.7131C219.288 65.301 217.741 65.3564 216.327 65.9074L211.963 65.9097Z" fill="white"/>
<path d="M6.06735 60.2194C11.0153 60.1733 15.964 60.1279 20.9135 60.0834L62.2379 59.726C62.5215 59.7437 62.8029 59.6666 63.0379 59.5069C60.5916 59.3502 58.143 59.1841 55.6944 59.0458C47.042 58.5247 38.3897 58.0067 29.7373 57.4918C22.7304 57.0745 15.7235 56.6548 8.71656 56.2721C6.09041 56.1199 6.09041 56.166 6.09041 53.5191C6.09041 38.3294 6.08272 23.1397 6.06735 7.95004C6.06735 6.90557 6.32559 6.64273 7.37466 6.64503C27.9811 6.67731 48.5884 6.67731 69.1964 6.64503C70.2869 6.64503 70.5014 7.00933 70.5798 7.98924C71.2207 16.0591 71.924 24.1427 72.5926 32.2217C73.0168 37.3242 73.4111 42.4312 73.8307 47.5359C73.8953 48.3153 74.0313 49.09 74.172 50.1552C74.308 36.0215 74.4394 22.1944 74.5778 8.36506C74.5778 7.79787 74.67 7.22837 74.7184 6.66117C76.367 6.66117 78.0178 6.70729 79.6641 6.66117C80.3927 6.63812 80.6463 6.8756 80.5402 7.56499C80.531 7.67932 80.531 7.79421 80.5402 7.90854C80.5402 26.6474 80.5471 45.3855 80.561 64.1229C80.561 65.0866 80.3904 65.414 79.3228 65.414C55.3147 65.3802 31.3059 65.3802 7.29627 65.414C6.22644 65.414 6.00971 65.0913 6.06966 64.1298C6.13422 62.8248 6.06966 61.5198 6.06735 60.2194Z" fill="white"/>
<path d="M137.832 13.539C137.876 22.4366 131.16 28.4774 121.587 27.6842C116.678 27.2784 112.627 25.2195 110.471 20.6866C106.907 13.1932 109.53 2.66089 120.51 0.475122C123.54 -0.126087 126.679 0.150688 129.557 1.27288C134.881 3.30417 137.844 7.74948 137.832 13.539ZM112.8 13.9771C112.74 15.4299 112.867 16.8844 113.178 18.3048C114.1 22.4827 117.404 25.7613 121.319 26.3885C125.843 27.1124 129.894 25.2794 132.156 21.3529C134.337 17.5739 134.48 13.4791 133.588 9.33809C132.665 5.03341 128.889 1.90463 124.531 1.62795C119.645 1.31438 115.645 3.70305 113.971 7.92933C113.235 9.86425 112.839 11.9118 112.8 13.9817V13.9771Z" fill="white"/>
<path d="M145.649 65.2551C147.967 60.1204 150.247 55.0871 152.504 50.0377C154.118 46.4155 155.709 42.7749 157.321 39.1481C157.461 38.8276 157.468 38.3711 158.012 38.3572C158.557 38.3434 158.58 38.8184 158.704 39.1319C162.252 47.6629 165.762 56.1938 169.633 64.5841C169.928 65.2228 169.727 65.2758 169.172 65.2574C168.139 65.2274 166.942 65.5733 166.117 65.1582C165.291 64.7432 165.303 63.369 164.911 62.4306C164.014 60.2841 163.129 58.1306 162.296 55.9587C162.066 55.3361 161.78 55.0733 161.077 55.0848C158.395 55.1286 155.709 55.1217 153.028 55.0848C152.393 55.0848 152.089 55.267 151.859 55.8687C150.812 58.6148 149.659 61.3216 148.843 64.1461C148.594 65.0084 148.278 65.481 147.286 65.2643C146.805 65.1721 146.29 65.2551 145.649 65.2551ZM157.111 43.5819C155.651 46.985 154.319 50.1023 152.938 53.3233C155.845 53.4524 158.545 53.57 161.363 53.2887C159.958 50.0723 158.591 46.955 157.111 43.5726V43.5819Z" fill="white"/>
<path d="M227.348 52.0875C227.466 48.0319 227.249 43.9808 227.088 39.9321C227.058 39.1643 227.143 38.8599 228.033 38.9107C231.94 39.1186 235.856 39.1224 239.764 38.9222C240.44 38.8899 240.917 38.9222 240.732 39.7845C240.608 40.3609 241.194 41.2809 239.81 41.1541C237.101 40.9097 234.378 40.8405 231.662 40.6584C230.878 40.6053 230.62 40.8313 230.601 41.6498C230.541 44.3659 230.546 47.0796 230.571 49.7957C230.571 50.5888 230.86 50.7502 231.572 50.718C234.06 50.575 236.552 50.5058 239.04 50.3398C239.769 50.2914 239.932 50.4436 239.877 51.1791C239.769 52.6524 239.822 52.6732 238.328 52.5256C235.992 52.295 233.652 52.4034 231.314 52.3412C230.892 52.3296 230.59 52.3412 230.571 52.9153C230.456 56.3184 230.53 59.7216 230.571 63.1224C230.571 63.6297 230.855 63.655 231.238 63.655C234.235 63.655 237.232 63.6965 240.195 63.2884C240.859 63.1962 240.873 63.3438 240.945 63.9363C241.097 65.2044 240.61 65.3497 239.455 65.3197C235.66 65.2298 231.863 65.2713 228.065 65.3313C227.267 65.3451 227.032 65.2206 227.069 64.3629C227.256 60.2703 227.47 56.1939 227.348 52.0875Z" fill="white"/>
<path d="M182.38 23.2826C182.611 25.1087 181.852 26.0494 180.305 26.6074C176.185 28.0738 172.032 28.2928 167.933 26.7503C162.934 24.8689 160.672 20.9055 160.174 15.8007C159.95 13.7419 160.164 11.6589 160.801 9.68842C162.57 4.36003 166.418 1.57941 171.806 0.719394C175.285 0.163729 178.675 0.645613 181.972 1.87222C182.622 2.10279 182.894 2.38408 182.615 3.11498C182.389 3.78319 182.203 4.46463 182.06 5.15549C181.7 5.2016 181.557 4.9964 181.398 4.84883C178.271 1.89989 174.598 1.22664 170.644 2.62387C166.69 4.0211 164.88 7.21675 164.098 11.1041C163.562 13.8609 163.746 16.7093 164.631 19.3745C166.423 25.0165 172.47 27.7279 178.214 25.5836C179.689 25.0326 180.987 24.1703 182.38 23.2826Z" fill="white"/>
<path d="M91.7808 52.0435C91.8246 47.9878 91.7669 43.9344 91.5087 39.888C91.458 39.0695 91.6862 38.8666 92.514 38.9104C96.5765 39.141 100.641 39.0879 104.706 38.9358C105.167 38.9196 105.912 38.5968 105.718 39.5975C105.592 40.2523 106.242 41.3337 104.644 41.1331C101.792 40.7734 98.9076 40.7711 96.0324 40.6604C95.2531 40.6304 94.9626 40.8103 94.9741 41.6449C95.0133 44.3218 94.9902 46.9987 94.9418 49.6755C94.9303 50.3672 95.0894 50.5978 95.8249 50.5748C98.4718 50.5309 101.128 50.5402 103.756 50.2819C104.515 50.2082 104.819 50.2312 104.845 51.2296C104.875 52.44 104.543 52.5 103.489 52.4262C100.967 52.2441 98.4303 52.2694 95.901 52.1587C95.1424 52.1265 94.9418 52.3639 94.9395 53.1179C94.9257 56.8669 95.0271 60.6136 95.2231 64.3557C95.2623 65.0681 95.1493 65.4739 94.3239 65.278C94.2094 65.2614 94.0934 65.2575 93.9781 65.2664C93.1849 65.248 92.0344 65.5431 91.6839 65.1419C91.1744 64.5609 91.5341 63.4703 91.5963 62.6057C91.8615 59.0803 91.7393 55.5596 91.7808 52.0435Z" fill="white"/>
<path d="M91.7455 14.6112C91.6463 11.0213 91.9299 6.69814 91.5633 2.39116C91.5034 1.69946 91.7386 1.57034 92.3772 1.5542C95.28 1.48734 95.2985 1.4689 95.1117 4.28872C94.6506 11.2057 94.865 18.1227 94.9065 25.0397C94.9065 25.7936 95.1371 25.9919 95.8772 25.9758C98.7893 25.9135 101.701 25.8513 104.604 25.5677C104.964 25.5331 105.741 25.231 105.46 26.0749C105.268 26.6444 106.308 27.8457 104.676 27.7719C100.576 27.5897 96.4744 27.4929 92.3749 27.7189C91.6279 27.7604 91.4526 27.4883 91.5172 26.8104C91.8377 22.9922 91.7339 19.1602 91.7455 14.6112Z" fill="white"/>
<path d="M143.048 13.4306C143.022 10.6154 143.158 6.59663 142.882 2.59401C142.829 1.81469 142.992 1.54032 143.843 1.54954C146.488 1.5749 146.515 1.54954 146.379 4.12496C146.027 11.0074 146.123 17.8944 146.149 24.7814C146.149 25.7037 146.379 26.0149 147.359 25.9826C150.198 25.8881 153.036 25.8466 155.865 25.5768C156.165 25.5469 156.946 25.1964 156.718 25.9204C156.524 26.5291 157.702 27.8571 155.888 27.7649C151.826 27.539 147.755 27.5205 143.691 27.7096C142.951 27.7511 142.782 27.4975 142.831 26.7873C143.112 22.7455 143.048 18.6875 143.048 13.4306Z" fill="white"/>
<path d="M111.079 51.6354C111.192 48.0063 110.983 43.9552 110.826 39.9042C110.798 39.1987 110.872 38.7929 111.725 39.0096C112.066 39.0647 112.412 39.0771 112.756 39.0465C114.577 39.0465 114.57 39.0465 114.49 40.8311C114.148 48.555 114.132 56.279 114.529 64.003C114.577 64.9621 114.49 65.5685 113.318 65.2619C113.281 65.2595 113.243 65.2595 113.205 65.2619C112.426 65.142 111.349 65.6677 110.941 65.0843C110.565 64.5494 110.84 63.5349 110.888 62.7348C111.093 59.191 111.109 55.6219 111.079 51.6354Z" fill="white"/>
</g>
</svg>
