<svg width="224" height="92" viewBox="0 0 224 92" fill="none" xmlns="http://www.w3.org/2000/svg">
<g style="mix-blend-mode:difference">
<g clip-path="url(#clip0_2192_2862)">
<path d="M197.513 65.5836C197.291 65.7957 197.204 66.0335 197.079 66.2474C194.267 71.0709 190.404 74.8126 185.493 77.4724C180.897 79.9596 175.961 81.4206 170.836 82.3036C166.959 82.9709 163.047 83.1185 159.128 82.9841C155.804 82.857 152.491 82.5267 149.207 81.9951C142.489 80.9345 135.826 79.5645 129.15 78.2723C124.843 77.4388 120.523 76.6902 116.17 76.1378C113.258 75.7683 110.336 75.5341 107.404 75.6958C101.983 75.9875 96.595 76.547 91.4288 78.3474C87.1713 79.8341 83.1665 81.8572 79.3606 84.2693C76.0334 86.3712 72.9671 88.8601 70.2259 91.6839C69.9802 91.9367 69.784 91.9854 69.4667 91.8148C64.655 89.2575 59.84 86.7084 55.0218 84.1676C52.6 82.8878 50.1768 81.6115 47.7521 80.3387C47.0936 79.9923 47.0927 79.9923 47.684 79.5556C52.3049 76.1412 57.175 73.0778 62.2535 70.3909C66.4775 68.1556 70.8058 66.1625 75.3488 64.6573C79.9518 63.1395 84.6939 62.0816 89.5056 61.4993C91.8719 61.2011 94.2561 61.0676 96.6409 61.0998C99.981 61.1555 103.317 61.3208 106.644 61.6664C114.142 62.445 121.438 64.1659 128.633 66.3588C135.506 68.4535 142.356 70.6243 149.299 72.4821C152.613 73.366 155.952 74.1562 159.337 74.7218C161.704 75.1141 164.092 75.3703 166.488 75.489C171.996 75.7718 177.402 75.1655 182.679 73.5887C186.517 72.4397 189.947 70.5412 192.755 67.6262C194.207 66.1236 195.217 64.3674 195.698 62.3231C195.786 61.9377 195.93 61.7459 196.359 61.7406C197.108 61.7318 197.861 61.6646 198.606 61.6169C198.889 61.5983 198.989 61.7265 199.011 62.0031C199.409 66.928 204.595 69.241 208.479 67.6448C210.621 66.7653 211.804 65.0816 211.865 62.7526C211.929 60.3264 211.878 57.8967 211.865 55.4687C211.865 54.6989 211.387 54.3798 210.656 54.6317C210.269 54.7643 209.978 55.0454 209.667 55.2875C206.703 57.5979 203.423 57.9612 199.896 56.9121C196.505 55.9018 194.437 53.564 193.411 50.2955C192.06 45.9947 192.228 41.7415 194.349 37.7005C195.839 34.8625 198.094 32.7332 201.173 31.753C204.133 30.8108 207.106 31.0186 209.923 32.4601C210.463 32.7362 210.942 33.1172 211.332 33.5809C211.509 33.7868 211.703 33.9247 211.982 33.8549C212.242 33.7895 212.359 33.5897 212.411 33.3458C212.418 33.3159 212.426 33.2864 212.436 33.2574C212.845 31.8697 212.845 31.8644 214.279 31.8618C217.048 31.8565 219.818 31.8565 222.587 31.8618C223.377 31.8618 223.571 32.0642 223.573 32.8623C223.573 33.8345 223.447 33.9972 222.508 34.2287C222.094 34.3304 221.675 34.4179 221.262 34.5257C220.675 34.6804 220.366 35.056 220.318 35.6553C220.302 35.8462 220.31 36.038 220.309 36.2298C220.302 44.6477 220.295 53.0661 220.286 61.4852C220.286 62.8834 220.21 64.2843 219.809 65.6393C218.855 68.8583 216.76 71.0308 213.612 72.1613C210.45 73.2953 207.257 73.2864 204.09 72.1719C201.48 71.2536 199.641 69.4169 198.263 67.0782C197.997 66.6089 197.778 66.1086 197.513 65.5836ZM211.876 43.8663V41.266C211.868 40.8685 211.808 40.4736 211.699 40.0914C211.071 37.6855 208.265 36.0433 205.463 36.6443C203.165 37.1357 201.84 38.7709 201.146 40.9461C200.637 42.5485 200.527 44.2013 200.581 45.8753C200.699 49.5239 203.633 51.9527 207.221 51.3553C209.562 50.9655 211.47 49.0148 211.802 46.6911C211.95 45.6782 211.831 44.6627 211.876 43.8663Z" fill="white"/>
<path d="M37.5843 1.04893C43.8889 1.04893 50.1926 1.02683 56.4989 1.06219C58.3683 1.07279 60.2385 1.0834 62.1088 1.10461C62.2449 1.10461 62.4331 1.03037 62.5056 1.193C62.5639 1.32381 62.4172 1.42987 62.3447 1.53328C58.8682 6.37506 55.39 11.216 51.9099 16.056C50.5841 17.8997 49.2625 19.7428 47.9449 21.5854C47.6117 22.0494 47.617 22.0476 47.1972 21.6623C44.4926 19.1763 41.3181 17.6914 37.6736 17.2076C33.7042 16.6773 29.9186 17.2775 26.3549 19.0955C22.1601 21.2351 18.9252 24.3745 16.6502 28.5139C15.0318 31.4607 14.1223 34.6126 13.8218 37.9536C13.3454 43.2452 14.1435 48.3203 16.5229 53.0861C19.6933 59.434 24.7198 63.7613 31.3169 66.2909C34.9767 67.6923 38.8965 68.2848 42.8071 68.0277C46.6651 67.7926 50.25 66.618 53.5618 64.6134C55.3266 63.5471 57.0139 62.3577 58.6113 61.0541C58.8641 60.8481 59.1257 60.6457 59.481 60.6899C59.661 60.7092 59.8319 60.7788 59.9741 60.8908C60.1164 61.0027 60.2242 61.1524 60.2852 61.3228C60.3463 61.4932 60.3582 61.6773 60.3194 61.8541C60.2807 62.0309 60.1929 62.1932 60.0662 62.3224C59.5102 62.9111 58.9481 63.4962 58.3559 64.0468C54.7886 67.3604 50.7052 69.8149 46.0747 71.3466C38.4748 73.8433 30.2354 73.5614 22.8239 70.5511C19.1904 69.0777 15.9245 66.9901 12.9247 64.479C6.00185 58.7333 1.56223 50.5385 0.530337 41.6012C0.253987 39.2775 0.180349 36.9341 0.310257 34.5975C0.580625 29.4424 1.79108 24.3802 3.88193 19.6603C6.29751 14.1972 9.6058 9.32715 13.6928 4.97414C14.8736 3.71641 16.1402 2.55237 17.405 1.38479C17.6984 1.11433 18.0157 1.03125 18.4055 1.03125C24.7976 1.0395 31.1908 1.04127 37.5852 1.03655L37.5843 1.04893Z" fill="white"/>
<path d="M180.057 57.6671H175.063C174.328 57.6671 174.327 57.6671 174.327 56.9486C174.327 50.811 174.263 44.6735 174.352 38.5387C174.382 36.4386 172.319 35.8173 171.045 36.5137C169.808 37.1917 168.601 37.9332 167.421 38.7181C167.351 38.7577 167.292 38.8144 167.249 38.8827C167.207 38.9511 167.182 39.0291 167.177 39.1096C167.027 41.5093 165.612 43.1798 163.913 44.6585C161.565 46.702 158.727 47.6839 155.735 48.3026C155.406 48.3811 155.071 48.4375 154.735 48.4715C154.374 48.4962 154.271 48.6306 154.381 48.977C154.979 50.8959 156.134 52.3507 158.01 53.117C160.781 54.2475 163.402 53.7516 165.9 52.2447C166.739 51.7373 167.443 51.0718 168.125 50.3735C168.655 49.8291 169.505 50.0377 169.707 50.735C169.802 51.0621 169.667 51.344 169.522 51.6189C169.094 52.4437 168.569 53.215 167.96 53.9169C165.626 56.5605 162.689 57.9243 159.172 58.1259C156.926 58.254 154.747 58.0101 152.71 57.044C149.218 55.3894 147.107 52.554 146.036 48.9125C145.864 48.3283 145.651 48.0101 145.02 47.8634C143.429 47.4904 141.893 46.9141 140.394 46.2583C140.011 46.0912 139.947 46.2035 139.941 46.5659C139.924 48.0074 139.983 49.4481 139.887 50.8897C139.657 54.3094 136.864 57.2243 133.443 57.4921C131.167 57.6689 128.882 57.5805 126.601 57.5151C125.999 57.4983 125.395 57.539 124.794 57.4373C121.384 56.8575 118.995 54.0787 118.991 50.6192C118.978 39.7442 118.973 28.869 118.976 17.9934C118.976 17.715 119 17.4339 118.901 17.1625C118.724 16.6941 118.412 16.3998 117.903 16.3467C117.537 16.3079 117.17 16.284 116.804 16.2486C116.298 16.1991 115.995 15.9251 115.995 15.4284C115.995 13.7491 115.756 14.0408 117.278 14.0328C119.812 14.0204 122.346 14.0328 124.88 14.0399C125.498 14.0399 126.117 14.0832 126.736 14.0876C127.024 14.0876 127.136 14.2166 127.132 14.4871C127.132 14.6489 127.132 14.8106 127.132 14.9732C127.135 26.6732 127.137 38.3725 127.137 50.0713C127.137 51.1513 127.491 52.0263 128.38 52.661C129.694 53.6031 132.5 53.5059 133.732 52.4639C133.981 52.264 134.182 52.0113 134.321 51.724C134.46 51.4368 134.533 51.1222 134.536 50.8031C134.55 48.3018 134.536 45.7996 134.546 43.2982C134.546 43.0242 134.413 42.8669 134.22 42.714C133.447 42.1015 132.688 41.4722 131.904 40.872C131.547 40.6082 131.257 40.2631 131.058 39.8653C130.86 39.4675 130.759 39.0283 130.763 38.5837C130.737 36.4943 130.763 34.4049 130.758 32.3154C130.758 31.9804 130.877 31.8461 131.225 31.8479C133.951 31.8585 136.676 31.8585 139.401 31.8479C139.823 31.8479 139.877 32.0538 139.876 32.3967C139.876 35.4902 139.886 38.5784 139.869 41.6684C139.869 42.105 139.996 42.3658 140.372 42.592C141.824 43.4641 143.389 44.1321 145.024 44.5772C145.377 44.6735 145.493 44.5913 145.525 44.2236C145.707 42.1687 146.176 40.1818 147.13 38.3424C149.209 34.335 152.614 32.1908 156.993 31.4961C158.698 31.2247 160.397 31.3697 162.066 31.8496C163.967 32.3923 165.439 33.4936 166.453 35.1853C166.665 35.5388 166.831 35.576 167.172 35.3515C168.832 34.2581 170.484 33.1498 172.184 32.1201C173.529 31.3034 175.012 30.9012 176.612 31.0347C177.824 31.1363 178.712 31.7418 179.39 32.6981C179.75 33.2072 179.978 33.7817 180.163 34.3775C180.212 34.5628 180.285 34.7411 180.38 34.9078C180.486 35.0791 180.649 35.2077 180.84 35.2712C181.031 35.3347 181.239 35.329 181.426 35.2551C181.616 35.1887 181.776 35.056 181.876 34.8813C181.976 34.7066 182.01 34.5017 181.972 34.3041C181.827 33.5224 181.804 32.7232 181.903 31.9345C182.117 30.3258 183.722 28.9859 185.331 29.115C185.89 29.16 186.369 29.4252 186.84 29.7054C187.588 30.1473 188.205 30.7802 188.961 31.2141C189.389 31.459 189.82 31.6649 190.334 31.6136C191.333 31.5129 192.022 30.6997 192.068 29.5498C192.11 28.4768 191.722 27.5647 191.007 26.7833C190.589 26.3277 190.131 25.9098 189.64 25.5345C189.077 25.104 188.958 24.556 189.293 24.0319C189.628 23.5078 190.194 23.3814 190.808 23.7004C192.709 24.6886 193.99 26.2141 194.588 28.2629C195.485 31.3423 195.108 34.2413 193.14 36.8364C192.154 38.1365 190.895 38.9992 189.169 38.9391C188.174 38.9046 187.329 38.4547 186.499 37.9668C186.13 37.7511 185.792 37.4904 185.417 37.2809C184.548 36.7904 183.602 36.9592 182.934 37.7008C182.695 37.9457 182.558 38.2731 182.553 38.6156C182.553 38.7181 182.546 38.8215 182.546 38.924C182.527 43.7069 182.507 48.4891 182.489 53.2708C182.48 53.5358 182.502 53.8008 182.553 54.061C182.687 54.6585 183.083 55.0483 183.685 55.1472C184.106 55.2171 184.531 55.2568 184.953 55.324C185.492 55.4124 185.781 55.7279 185.818 56.2777C185.839 56.5853 185.818 56.8964 185.83 57.2049C185.847 57.5478 185.7 57.6707 185.359 57.6662C184.343 57.6521 183.326 57.6609 182.309 57.6609L180.057 57.6671ZM153.597 44.1406C153.597 44.4199 153.589 44.6992 153.597 44.9785C153.605 45.2578 153.746 45.3718 154.028 45.3417C155.928 45.1411 157.754 44.6735 159.323 43.5563C161.079 42.3048 162.284 40.7041 162.132 38.3849C162.069 37.4241 161.546 36.6746 160.643 36.3432C158.988 35.7351 156.89 36.2548 155.776 37.6239C154.233 39.5136 153.663 41.7506 153.597 44.1406Z" fill="white"/>
<path d="M60.3013 47.9312C59.8055 48.3625 59.3247 48.785 58.8385 49.2013C56.59 51.1228 54.4007 53.1167 52.0081 54.8641C50.7876 55.7402 49.4852 56.4962 48.1191 57.1215C47.1816 57.566 46.1416 57.7492 45.1087 57.6518C44.0357 57.5555 43.2588 57.0278 42.8548 56.0034C42.7196 55.6614 42.6021 55.3105 42.443 54.9799C42.0629 54.1933 41.1525 54.0492 40.5462 54.675C40.2811 54.9499 40.0318 55.2415 39.7799 55.5288C38.6053 56.8678 37.0779 57.4096 35.3456 57.4848C30.4207 57.6987 26.8376 55.4749 24.3583 51.349C23.4913 49.9057 23.1625 48.2555 22.9486 46.5974C22.595 43.8574 22.7515 41.1546 23.9058 38.5976C25.7814 34.4435 28.9818 31.9784 33.5222 31.4383C36.461 31.0848 39.201 31.7415 41.5733 33.6241C42.1681 34.0961 42.7726 33.9043 43.0458 33.1893C43.1341 32.9559 43.2066 32.7155 43.2888 32.4822C43.5354 31.768 43.7573 31.5921 44.5138 31.5851C45.7654 31.5727 47.0178 31.578 48.2694 31.578C49.4776 31.578 50.6849 31.578 51.8932 31.578C52.5411 31.578 52.808 31.852 52.8248 32.4857C52.8601 33.8477 52.7947 33.9246 51.4283 34.1164C51.2515 34.1412 51.0747 34.1571 50.9033 34.1854C50.6526 34.2184 50.4223 34.3406 50.2545 34.5298C50.0868 34.719 49.993 34.9623 49.9902 35.2151C49.9823 35.406 49.9902 35.5969 49.9902 35.7887C49.9902 40.0854 49.9902 44.3822 49.9902 48.6789C49.9902 49.9852 50.6682 50.5624 51.9595 50.3582C52.5441 50.273 53.1017 50.056 53.5902 49.7236C55.9298 48.1247 58.135 46.365 60.1387 44.3568C60.2505 44.2535 60.3386 44.1271 60.3969 43.9864C60.4552 43.8457 60.4823 43.6941 60.4763 43.5419C60.464 41.3941 60.471 39.2455 60.4693 37.0968C60.4693 36.6372 60.4206 36.1864 60.1882 35.771C59.7843 35.0569 59.1452 34.7882 58.356 35.0136C58.1734 35.0715 57.9943 35.1397 57.8195 35.2177C57.2485 35.452 56.9153 35.3574 56.5741 34.8642C56.2329 34.371 56.2718 33.998 56.681 33.5543C57.8636 32.2754 59.3989 31.7433 61.0641 31.4843C62.4164 31.274 63.7104 31.4216 64.8956 32.1472C65.6194 32.5886 66.1812 33.252 66.4972 34.0387C66.8189 34.812 67.298 34.9057 67.9052 34.3038C68.7077 33.5083 69.4705 32.659 70.4772 32.0986C73.7855 30.2602 79.1576 31.9218 79.717 36.4295C79.9301 38.1451 79.7365 39.8173 78.6069 41.2439C76.9753 43.3041 73.4266 43.5304 71.6713 41.6929C70.6619 40.6376 70.509 39.2631 71.2612 38.0107C71.5679 37.4999 71.5573 37.1003 71.2276 36.7609C70.8979 36.4215 70.448 36.372 69.9663 36.6567C68.9136 37.2754 68.4806 38.2706 68.4638 39.4373C68.4355 42.0411 68.4514 44.6458 68.4487 47.2506C68.4487 49.2835 68.4434 51.3163 68.4487 53.343C68.4487 54.3223 68.8341 54.7572 69.8108 54.9048C71.2974 55.1302 71.3177 55.154 71.2939 56.6557C71.2842 57.2488 71.0977 57.4627 70.4984 57.4644C67.3908 57.4739 64.2828 57.4739 61.1746 57.4644C60.5559 57.4644 60.3791 57.2585 60.3791 56.623C60.3791 53.9007 60.377 51.1784 60.3729 48.4562C60.3729 48.2971 60.4153 48.1327 60.3013 47.9312ZM41.7527 43.8415C41.7102 42.8693 41.8411 41.9024 41.6908 40.9557C41.2648 38.2237 38.4647 36.8856 36.1853 37.1401C34.0879 37.3735 32.7108 38.6701 31.8906 40.5297C31.1225 42.27 30.9988 44.1376 31.0651 46.0238C31.1844 49.3895 33.9473 51.6937 37.2644 51.1767C38.3561 51.0047 39.367 50.4964 40.156 49.7226C40.945 48.9488 41.4729 47.9481 41.6661 46.8599C41.8428 45.8532 41.7005 44.8332 41.7527 43.8415Z" fill="white"/>
<path d="M90.1241 32.6192C90.1241 38.3879 90.1241 44.1565 90.1241 49.9252C90.1252 50.4546 90.1547 50.9836 90.2125 51.5099C90.2658 52.0279 90.5021 52.5099 90.8789 52.8692C91.2558 53.2286 91.7484 53.4417 92.2684 53.4703C93.2848 53.5163 94.204 52.7703 94.3781 51.7097C94.5081 50.9248 94.1881 50.2557 93.6649 49.7033C93.3926 49.4161 93.4412 49.2561 93.7117 49.0387C94.228 48.6169 94.8537 48.3511 95.5157 48.2724C95.8409 48.2317 96.0221 48.3325 96.1291 48.671C96.9184 51.1723 98.6534 52.6068 101.207 53.0779C102.283 53.2909 103.398 53.1815 104.412 52.7632C106.101 52.065 106.86 50.5854 106.468 48.7982C106.266 47.8782 105.809 47.2073 104.95 46.7574C103.271 45.8789 101.609 44.9499 99.9464 44.0316C99.3392 43.6966 98.8054 43.2529 98.2671 42.8119C96.9652 41.738 96.4305 40.3265 96.4517 38.6798C96.4808 36.4799 97.2038 34.5814 98.9742 33.184C100.048 32.3328 101.375 31.8646 102.745 31.8538C105.438 31.8078 108.132 31.8335 110.826 31.8317C112.446 31.8317 114.066 31.8397 115.687 31.8317C116.053 31.8317 116.168 31.8927 115.992 32.2736C115.033 34.3587 114.094 36.4543 113.147 38.549C112.928 39.0316 112.923 39.0299 112.523 38.7046C111.339 37.743 109.935 37.3293 108.467 37.0933C107.393 36.921 106.324 36.89 105.304 37.3682C104.73 37.6378 104.234 37.9869 103.991 38.6056C103.581 39.653 104.116 40.8488 105.22 41.3305C107.123 42.1602 109.027 42.9878 110.932 43.8133C113.476 44.9199 115.115 47.3664 115.014 50.2274C114.918 52.978 113.55 55.0162 111.187 56.3888C109.935 57.1231 108.507 57.506 107.055 57.4972C101.31 57.4901 95.5652 57.5069 89.8201 57.4839C85.9718 57.468 82.5724 54.447 82.0351 50.6446C81.9686 50.1194 81.939 49.5901 81.9467 49.0608C81.9467 38.6407 81.9467 28.2214 81.9467 17.8031C81.9467 17.5539 81.9679 17.3037 81.8998 17.0571C81.7619 16.5586 81.4358 16.2811 80.9179 16.2617C80.5502 16.2457 80.1807 16.2617 79.813 16.251C79.2748 16.2298 78.9292 15.9337 78.8293 15.4114C78.7551 15.0331 78.7913 14.6486 78.7975 14.2668C78.7975 14.0502 78.9274 13.9504 79.136 13.9442C79.2836 13.9442 79.4303 13.938 79.5779 13.938L88.9468 13.9451C90.1285 13.9451 90.1285 13.9451 90.1285 15.0941L90.1241 32.6192Z" fill="white"/>
<path d="M181.576 19.8767C180.325 19.8669 179.239 19.0768 178.912 17.7634C178.676 16.8141 178.15 16.1671 177.36 15.6695C177.123 15.521 176.907 15.3408 176.718 15.1339C176.526 14.9289 176.382 14.6843 176.296 14.4175C176.21 14.1507 176.183 13.8681 176.218 13.5898C176.253 13.3116 176.348 13.0444 176.498 12.8072C176.648 12.5699 176.848 12.3685 177.084 12.2172C177.711 11.8053 178.365 11.4341 178.993 11.0222C179.424 10.7393 179.548 10.3549 179.385 9.96154C179.188 9.49045 178.668 9.32163 178.158 9.58591C177.557 9.89791 176.971 10.2373 176.371 10.5511C174.901 11.32 173.488 10.5458 173.342 8.90003C173.313 8.56328 173.281 8.22653 173.238 7.89155C173.159 7.27285 172.809 6.82031 172.375 6.39606C171.241 5.28417 171.078 3.79221 171.99 2.60607C172.748 1.62146 173.801 1.26261 174.977 1.61439C175.902 1.89015 176.706 1.76022 177.526 1.34216C177.803 1.20506 178.096 1.10207 178.398 1.03546C178.668 0.975641 178.947 0.975264 179.217 1.03436C179.487 1.09345 179.74 1.21059 179.96 1.37764C180.18 1.54468 180.361 1.75763 180.491 2.00167C180.62 2.24572 180.695 2.515 180.709 2.7908C180.744 3.51026 180.769 4.22972 180.798 4.95007C180.818 5.52458 181.178 5.95501 181.639 5.94794C182.101 5.94087 182.444 5.51574 182.454 4.92709C182.467 4.19172 182.461 3.45723 182.528 2.72274C182.628 1.60113 183.713 0.783559 184.817 1.02485C185.203 1.11881 185.578 1.25609 185.934 1.43408C186.634 1.78617 187.442 1.8567 188.193 1.63118C189.937 1.13622 191.507 2.16149 191.799 3.91242C191.874 4.33783 191.839 4.77538 191.696 5.18317C191.554 5.59095 191.309 5.95532 190.985 6.24138C190.201 6.95466 189.958 7.80847 189.895 8.79397C189.825 9.89172 189.249 10.5962 188.304 10.8118C187.915 10.9131 187.503 10.8669 187.146 10.6819C186.469 10.3283 185.792 9.96508 185.113 9.62126C184.582 9.3508 184.171 9.43742 183.916 9.85371C183.661 10.27 183.782 10.7455 184.269 11.0593C184.839 11.4252 185.426 11.7664 186.003 12.1199C187.298 12.9154 187.403 14.4427 186.228 15.4123C186.106 15.5188 185.976 15.6163 185.84 15.704C185.033 16.191 184.543 16.8609 184.307 17.8067C183.973 19.1325 182.887 19.8864 181.576 19.8767Z" fill="white"/>
</g>
</g>
<defs>
<clipPath id="clip0_2192_2862">
<rect width="223.333" height="90.9323" fill="white" transform="translate(0.248047 0.982422)"/>
</clipPath>
</defs>
</svg>
