<svg width="330" height="53" viewBox="0 0 330 53" fill="none" xmlns="http://www.w3.org/2000/svg">
<g clip-path="url(#clip0_2192_3090)">
<path fill-rule="evenodd" clip-rule="evenodd" d="M74.986 7.18457H56.2166L59.9737 10.9417V48.3677L55.8135 52.5118H74.6313L70.6162 48.4967V11.2319L74.986 7.18457Z" fill="white"/>
<path d="M143.871 6.94248L143.984 6.81348H126.295L129.971 10.5061V33.9195L109.67 6.84573L109.638 6.81348H91.4648L95.609 11.1511V48.3513L91.7873 52.576H109.67L105.752 48.1417V22.0193L128.52 52.447L128.552 52.4793H143.565L140.065 48.0449V11.0543L143.871 6.94248Z" fill="white"/>
<path d="M258.454 43.8525H235.331V33.1939H253.81L257.003 36.4028L257.132 36.3544V22.0355L257.003 21.9871L254.407 24.7767H235.235V14.7309L256.826 14.9244L261.051 18.9556L261.163 19.0685V6.7168H221.464L225.398 10.8448V48.2708L221.69 52.3504L221.577 52.4794H262.389V40.3373L258.454 43.8525Z" fill="white"/>
<path d="M305.798 52.4152H325.148L320.665 47.2391L313.344 35.613C316.343 34.4306 318.893 32.3321 320.63 29.6165C322.367 26.9008 323.203 23.7063 323.019 20.4878C322.89 17.5094 321.893 14.6338 320.149 12.2157C318.237 9.66193 315.541 7.80435 312.474 6.92676H278.466L282.094 11.0547V48.2872L278.289 52.3829L278.176 52.512H296.687L292.656 48.2872V36.6773H301.492L309.555 48.2066L305.959 52.3023L305.798 52.4152ZM292.656 15.5375L307.62 15.4407C308.867 15.6945 310 16.3424 310.85 17.2889C311.701 18.2355 312.225 19.4304 312.345 20.6975C312.428 22.2557 312.016 23.8003 311.167 25.1097C310.318 26.4191 309.076 27.426 307.62 27.9859H292.656V15.5375Z" fill="white"/>
<path d="M189.875 28.534L193.794 33.0813V40.9018C191.826 43.0948 186.924 44.401 183.312 44.401C182.419 44.4232 181.527 44.309 180.668 44.0623C171.638 41.2243 168.51 33.7101 169.38 27.5343C170.203 21.9228 174.847 15.3277 185.215 15.1987H185.393C190.955 15.578 196.335 17.3346 201.05 20.3103H201.163V7.15236L198.405 8.8616C193.448 7.62114 188.372 6.91302 183.264 6.74923C181.831 6.72424 180.399 6.84853 178.991 7.12011C169.316 9.15185 162.527 15.6018 160.576 24.8575C159.661 29.3076 159.945 33.9208 161.399 38.2251C162.776 42.4468 165.437 46.1334 169.01 48.7708C173.441 51.6226 178.625 53.0828 183.893 52.9633C191.459 52.9626 198.727 50.0193 204.162 44.7557L204.259 32.9361L208.5 28.5985L189.875 28.534Z" fill="white"/>
<path d="M39.011 34.2101C36.0601 27.1796 27.9331 26.3411 21.3864 25.6639C16.8875 25.2124 13.0014 24.8093 11.5179 22.6808C11.1539 22.0816 10.9287 21.4085 10.8589 20.7109C10.7891 20.0133 10.8766 19.3089 11.1148 18.6495C11.7759 15.9889 15.7104 14.3925 21.6444 14.3925C27.5784 14.3925 34.2702 16.005 38.0435 18.585H38.1563V6.44295L35.9311 8.1522C31.3179 6.98228 26.5809 6.37053 21.8218 6.33008C13.5819 6.33008 7.01908 8.44244 3.32647 12.2802C2.25268 13.3682 1.41936 14.6696 0.880474 16.1001C0.341592 17.5307 0.109163 19.0585 0.198236 20.5845C0.44011 26.0831 2.48798 29.7112 6.50309 31.6946C9.98607 33.4038 14.4527 33.6296 18.3872 33.8392C23.2246 34.0811 27.3688 34.2907 28.6749 36.9836C28.9816 37.498 29.1436 38.0858 29.1436 38.6848C29.1436 39.2837 28.9816 39.8715 28.6749 40.3859C27.3526 42.4983 23.2569 43.8206 18.0002 43.8206C12.4209 43.8206 4.51972 42.2081 0.60136 37.5802L0.47236 37.5641V52.5603L3.2781 50.2544C8.35233 51.8532 13.632 52.706 18.9515 52.786C27.7396 52.786 34.7056 49.9158 38.0273 44.8848C39.0841 43.3354 39.7289 41.5424 39.9009 39.6748C40.073 37.8072 39.7667 35.9266 39.011 34.2101Z" fill="white"/>
<path d="M325.052 2.71794H324.133V4.47556H325.052C325.423 4.50661 325.795 4.4399 326.132 4.28206C326.24 4.2106 326.327 4.11163 326.383 3.99539C326.44 3.87915 326.465 3.74988 326.455 3.62094C326.467 3.48542 326.442 3.34905 326.383 3.22675C326.323 3.10445 326.231 3.00095 326.116 2.92756C325.788 2.76016 325.419 2.68757 325.052 2.71794ZM325.181 2.21807C325.738 2.16694 326.299 2.27899 326.793 2.54057C326.96 2.65344 327.094 2.80828 327.182 2.98947C327.27 3.17066 327.308 3.37178 327.293 3.57256C327.298 3.88515 327.189 4.18884 326.987 4.42718C326.764 4.6705 326.46 4.8251 326.132 4.86256L327.229 7.12005H326.39L325.358 4.95931H324.213V7.12005H323.472V2.28257L325.181 2.21807ZM328.857 4.74968C328.86 4.24609 328.761 3.74717 328.567 3.28231C328.393 2.82751 328.124 2.41518 327.777 2.07294C327.426 1.71178 327.004 1.42665 326.538 1.23526C326.072 1.04386 325.572 0.950279 325.068 0.960322C324.576 0.952981 324.088 1.04626 323.633 1.23445C323.175 1.42006 322.759 1.69403 322.407 2.04069C322.052 2.40429 321.768 2.8308 321.569 3.29844C321.377 3.75251 321.278 4.24056 321.279 4.73356C321.277 5.22668 321.376 5.715 321.569 6.16868C321.962 7.09385 322.695 7.83277 323.617 8.23267C324.078 8.41957 324.571 8.51276 325.068 8.50679C325.564 8.50483 326.056 8.41192 326.519 8.23267C326.984 8.02778 327.409 7.7441 327.777 7.39417C328.121 7.05292 328.395 6.64753 328.583 6.20093C328.767 5.73926 328.86 5.24654 328.857 4.74968ZM325.068 0.476574C325.621 0.480273 326.168 0.589739 326.681 0.799073C327.197 1.00554 327.664 1.31875 328.051 1.71819C328.447 2.10797 328.76 2.57431 328.97 3.08881C329.174 3.6018 329.278 4.14917 329.277 4.70131C329.282 5.25378 329.178 5.80186 328.97 6.3138C328.764 6.82543 328.45 7.28718 328.051 7.6683C327.654 8.07833 327.176 8.40218 326.648 8.61967C325.615 9.04436 324.456 9.04436 323.423 8.61967C322.906 8.4076 322.439 8.08894 322.053 7.68442C321.647 7.29955 321.328 6.8322 321.117 6.3138C320.907 5.80202 320.798 5.25453 320.795 4.70131C320.797 4.14642 320.913 3.59782 321.134 3.08881C321.353 2.56587 321.67 2.0897 322.069 1.68594C322.45 1.28688 322.912 0.973554 323.423 0.766823C323.937 0.566684 324.484 0.462831 325.036 0.460449L325.068 0.476574Z" fill="white"/>
</g>
<defs>
<clipPath id="clip0_2192_3090">
<rect width="329.11" height="52.4383" fill="white" transform="translate(0.198242 0.476562)"/>
</clipPath>
</defs>
</svg>
